Abonner-TF.ufo
<glyph name="exclam" format="1">
  <advance width="238"/>
  <unicode hex="0021"/>
  <outline>
    <contour>
      <point x="192" y="652" type="curve"/>
      <point x="192" y="652"/>
      <point x="50" y="652"/>
      <point x="50" y="652" type="curve"/>
      <point x="56" y="553"/>
      <point x="79" y="354"/>
      <point x="90" y="190" type="curve"/>
      <point x="153" y="190" type="line"/>
      <point x="166" y="370"/>
      <point x="185" y="536"/>
    </contour>
    <contour>
      <point x="194" y="64" type="curve" smooth="yes"/>
      <point x="194" y="109"/>
      <point x="166" y="143"/>
      <point x="119" y="143" type="curve" smooth="yes"/>
      <point x="72" y="143"/>
      <point x="43" y="109"/>
      <point x="43" y="64" type="curve" smooth="yes"/>
      <point x="43" y="20"/>
      <point x="72" y="-13"/>
      <point x="119" y="-13" type="curve" smooth="yes"/>
      <point x="166" y="-13"/>
      <point x="194" y="20"/>
    </contour>
  </outline>
</glyph>
<glyph name="numbersign" format="1">
  <advance width="543"/>
  <unicode hex="0023"/>
  <outline>
    <contour>
      <point x="391" y="258" type="line"/>
      <point x="420" y="413" type="line"/>
      <point x="514" y="413" type="line"/>
      <point x="514" y="488" type="line"/>
      <point x="434" y="488" type="line"/>
      <point x="466" y="667" type="line"/>
      <point x="387" y="667" type="line"/>
      <point x="355" y="488" type="line"/>
      <point x="249" y="488" type="line"/>
      <point x="281" y="667" type="line"/>
      <point x="202" y="667" type="line"/>
      <point x="170" y="488" type="line"/>
      <point x="72" y="488" type="line"/>
      <point x="72" y="413" type="line"/>
      <point x="155" y="413" type="line"/>
      <point x="126" y="258" type="line"/>
      <point x="31" y="258" type="line"/>
      <point x="31" y="184" type="line"/>
      <point x="112" y="184" type="line"/>
      <point x="79" y="0" type="line"/>
      <point x="158" y="0" type="line"/>
      <point x="191" y="184" type="line"/>
      <point x="297" y="184" type="line"/>
      <point x="264" y="0" type="line"/>
      <point x="343" y="0" type="line"/>
      <point x="376" y="184" type="line"/>
      <point x="473" y="184" type="line"/>
      <point x="473" y="258" type="line"/>
    </contour>
    <contour>
      <point x="206" y="258" type="line"/>
      <point x="235" y="413" type="line"/>
      <point x="340" y="413" type="line"/>
      <point x="311" y="258" type="line"/>
    </contour>
  </outline>
</glyph>
<glyph name="percent" format="1">
  <advance width="707"/>
  <unicode hex="0025"/>
  <outline>
    <contour>
      <point x="320" y="505" type="curve" smooth="yes"/>
      <point x="320" y="620"/>
      <point x="272" y="682"/>
      <point x="175" y="682" type="curve" smooth="yes"/>
      <point x="78" y="682"/>
      <point x="27" y="620"/>
      <point x="27" y="505" type="curve" smooth="yes"/>
      <point x="27" y="388"/>
      <point x="76" y="328"/>
      <point x="173" y="328" type="curve" smooth="yes"/>
      <point x="270" y="328"/>
      <point x="320" y="391"/>
    </contour>
    <contour>
      <point x="676" y="163" type="curve" smooth="yes"/>
      <point x="676" y="278"/>
      <point x="628" y="339"/>
      <point x="531" y="339" type="curve" smooth="yes"/>
      <point x="434" y="339"/>
      <point x="383" y="277"/>
      <point x="383" y="163" type="curve" smooth="yes"/>
      <point x="383" y="46"/>
      <point x="432" y="-14"/>
      <point x="529" y="-14" type="curve" smooth="yes"/>
      <point x="626" y="-14"/>
      <point x="676" y="48"/>
    </contour>
    <contour>
      <point x="106" y="-15" type="line"/>
      <point x="186" y="-15" type="line"/>
      <point x="593" y="682" type="line"/>
      <point x="514" y="682" type="line"/>
    </contour>
    <contour>
      <point x="226" y="506" type="curve" smooth="yes"/>
      <point x="226" y="430"/>
      <point x="214" y="382"/>
      <point x="173" y="382" type="curve" smooth="yes"/>
      <point x="133" y="382"/>
      <point x="121" y="425"/>
      <point x="121" y="506" type="curve" smooth="yes"/>
      <point x="121" y="593"/>
      <point x="137" y="629"/>
      <point x="173" y="629" type="curve" smooth="yes"/>
      <point x="210" y="629"/>
      <point x="226" y="596"/>
    </contour>
    <contour>
      <point x="582" y="164" type="curve" smooth="yes"/>
      <point x="582" y="88"/>
      <point x="571" y="40"/>
      <point x="530" y="40" type="curve" smooth="yes"/>
      <point x="490" y="40"/>
      <point x="477" y="82"/>
      <point x="477" y="164" type="curve" smooth="yes"/>
      <point x="477" y="250"/>
      <point x="493" y="287"/>
      <point x="530" y="287" type="curve" smooth="yes"/>
      <point x="566" y="287"/>
      <point x="582" y="254"/>
    </contour>
  </outline>
</glyph>
<glyph name="ampersand" format="1">
  <advance width="752"/>
  <unicode hex="0026"/>
  <outline>
    <contour>
      <point x="647" y="117" type="curve"/>
      <point x="574" y="237" type="line"/>
      <point x="608" y="262"/>
      <point x="637" y="297"/>
      <point x="647" y="328" type="curve"/>
      <point x="667" y="325"/>
      <point x="678" y="315"/>
      <point x="688" y="290" type="curve"/>
      <point x="730" y="330" type="line"/>
      <point x="651" y="410" type="line"/>
      <point x="582" y="371"/>
      <point x="505" y="334"/>
      <point x="421" y="304" type="curve"/>
      <point x="302" y="385"/>
      <point x="247" y="441"/>
      <point x="247" y="515" type="curve" smooth="yes"/>
      <point x="247" y="571"/>
      <point x="279" y="616"/>
      <point x="343" y="616" type="curve" smooth="yes"/>
      <point x="374" y="616"/>
      <point x="402" y="602"/>
      <point x="408" y="573" type="curve"/>
      <point x="415" y="495" type="line"/>
      <point x="500" y="501" type="line"/>
      <point x="505" y="658" type="line"/>
      <point x="468" y="671"/>
      <point x="413" y="679"/>
      <point x="368" y="679" type="curve" smooth="yes"/>
      <point x="214" y="679"/>
      <point x="116" y="622"/>
      <point x="116" y="496" type="curve" smooth="yes"/>
      <point x="116" y="437"/>
      <point x="150" y="392"/>
      <point x="206" y="368" type="curve"/>
      <point x="82" y="341"/>
      <point x="31" y="266"/>
      <point x="31" y="179" type="curve" smooth="yes"/>
      <point x="31" y="49"/>
      <point x="130" y="-13"/>
      <point x="290" y="-13" type="curve" smooth="yes"/>
      <point x="388" y="-13"/>
      <point x="467" y="15"/>
      <point x="520" y="75" type="curve"/>
      <point x="546" y="64"/>
      <point x="570" y="54"/>
      <point x="595" y="45" type="curve"/>
      <point x="615" y="65"/>
      <point x="633" y="89"/>
    </contour>
    <contour>
      <point x="400" y="267" type="curve"/>
      <point x="453" y="184" type="line"/>
      <point x="433" y="106"/>
      <point x="386" y="60"/>
      <point x="304" y="60" type="curve" smooth="yes"/>
      <point x="226" y="60"/>
      <point x="174" y="107"/>
      <point x="174" y="191" type="curve" smooth="yes"/>
      <point x="174" y="255"/>
      <point x="214" y="306"/>
      <point x="287" y="315" type="curve"/>
      <point x="321" y="300"/>
      <point x="358" y="284"/>
    </contour>
  </outline>
</glyph>
<glyph name="parenleft" format="1">
  <advance width="312"/>
  <unicode hex="0028"/>
  <outline>
    <contour>
      <point x="231" y="-190" type="curve"/>
      <point x="292" y="-167" type="line"/>
      <point x="213" y="-114"/>
      <point x="172" y="47"/>
      <point x="172" y="265" type="curve" smooth="yes"/>
      <point x="172" y="530"/>
      <point x="241" y="650"/>
      <point x="292" y="697" type="curve"/>
      <point x="231" y="719" type="line"/>
      <point x="126" y="656"/>
      <point x="42" y="491"/>
      <point x="42" y="265" type="curve" smooth="yes"/>
      <point x="42" y="51"/>
      <point x="106" y="-131"/>
    </contour>
  </outline>
</glyph>
<glyph name="asterisk" format="1">
  <advance width="408"/>
  <unicode hex="002A"/>
  <outline>
    <contour>
      <point x="152" y="511" type="line"/>
      <point x="36" y="528" type="line"/>
      <point x="36" y="436" type="line"/>
      <point x="152" y="453" type="line"/>
      <point x="78" y="360" type="line"/>
      <point x="160" y="313" type="line"/>
      <point x="203" y="425" type="line"/>
      <point x="244" y="313" type="line"/>
      <point x="326" y="360" type="line"/>
      <point x="252" y="453" type="line"/>
      <point x="370" y="436" type="line"/>
      <point x="370" y="528" type="line"/>
      <point x="252" y="511" type="line"/>
      <point x="326" y="605" type="line"/>
      <point x="244" y="652" type="line"/>
      <point x="203" y="541" type="line"/>
      <point x="160" y="652" type="line"/>
      <point x="78" y="605" type="line"/>
    </contour>
  </outline>
</glyph>
<glyph name="plus" format="1">
  <advance width="515"/>
  <unicode hex="002B"/>
  <outline>
    <contour>
      <point x="309" y="5" type="line"/>
      <point x="309" y="198" type="line"/>
      <point x="491" y="198" type="line"/>
      <point x="491" y="294" type="line"/>
      <point x="309" y="294" type="line"/>
      <point x="309" y="486" type="line"/>
      <point x="209" y="486" type="line"/>
      <point x="209" y="294" type="line"/>
      <point x="26" y="294" type="line"/>
      <point x="26" y="198" type="line"/>
      <point x="209" y="198" type="line"/>
      <point x="209" y="5" type="line"/>
    </contour>
  </outline>
</glyph>
<glyph name="comma" format="1">
  <advance width="277"/>
  <unicode hex="002C"/>
  <outline>
    <contour>
      <point x="35" y="-129" type="curve"/>
      <point x="78" y="-165" type="line"/>
      <point x="155" y="-132"/>
      <point x="211" y="-58"/>
      <point x="227" y="30" type="curve"/>
      <point x="228" y="40"/>
      <point x="229" y="50"/>
      <point x="229" y="59" type="curve" smooth="yes"/>
      <point x="229" y="105"/>
      <point x="200" y="136"/>
      <point x="151" y="136" type="curve" smooth="yes"/>
      <point x="105" y="136"/>
      <point x="74" y="106"/>
      <point x="74" y="68" type="curve" smooth="yes"/>
      <point x="74" y="44"/>
      <point x="92" y="10"/>
      <point x="130" y="8" type="curve"/>
      <point x="122" y="-49"/>
      <point x="91" y="-101"/>
    </contour>
  </outline>
</glyph>
<glyph name="hyphen" format="1">
  <advance width="349"/>
  <unicode hex="002D"/>
  <outline>
    <contour>
      <point x="47" y="286" type="line"/>
      <point x="47" y="195" type="line"/>
      <point x="304" y="195" type="line"/>
      <point x="304" y="286" type="line"/>
    </contour>
  </outline>
</glyph>
<glyph name="period" format="1">
  <advance width="247"/>
  <unicode hex="002E"/>
  <outline>
    <contour>
      <point x="200" y="64" type="curve" smooth="yes"/>
      <point x="200" y="109"/>
      <point x="172" y="143"/>
      <point x="125" y="143" type="curve" smooth="yes"/>
      <point x="78" y="143"/>
      <point x="49" y="109"/>
      <point x="49" y="64" type="curve" smooth="yes"/>
      <point x="49" y="20"/>
      <point x="78" y="-13"/>
      <point x="125" y="-13" type="curve" smooth="yes"/>
      <point x="172" y="-13"/>
      <point x="200" y="20"/>
    </contour>
  </outline>
</glyph>
<glyph name="slash" format="1">
  <advance width="428"/>
  <unicode hex="002F"/>
  <outline>
    <contour>
      <point x="26" y="-9" type="line"/>
      <point x="139" y="-9" type="line"/>
      <point x="407" y="688" type="line"/>
      <point x="294" y="688" type="line"/>
    </contour>
  </outline>
</glyph>
<glyph name="zero" format="1">
  <advance width="545"/>
  <unicode hex="0030"/>
  <outline>
    <contour>
      <point x="507" y="288" type="curve" smooth="yes"/>
      <point x="507" y="461"/>
      <point x="449" y="589"/>
      <point x="275" y="589" type="curve" smooth="yes"/>
      <point x="100" y="589"/>
      <point x="38" y="460"/>
      <point x="38" y="288" type="curve" smooth="yes"/>
      <point x="38" y="112"/>
      <point x="96" y="-14"/>
      <point x="271" y="-14" type="curve" smooth="yes"/>
      <point x="446" y="-14"/>
      <point x="507" y="115"/>
    </contour>
    <contour>
      <point x="370" y="289" type="curve" smooth="yes"/>
      <point x="370" y="122"/>
      <point x="344" y="53"/>
      <point x="272" y="53" type="curve" smooth="yes"/>
      <point x="201" y="53"/>
      <point x="175" y="112"/>
      <point x="175" y="289" type="curve" smooth="yes"/>
      <point x="175" y="464"/>
      <point x="203" y="523"/>
      <point x="272" y="523" type="curve" smooth="yes"/>
      <point x="342" y="523"/>
      <point x="370" y="471"/>
    </contour>
  </outline>
</glyph>
<glyph name="one" format="1">
  <advance width="403"/>
  <unicode hex="0031"/>
  <outline>
    <contour>
      <point x="33" y="0" type="line"/>
      <point x="189" y="0" type="line"/>
      <point x="377" y="0" type="line"/>
      <point x="376" y="62" type="line"/>
      <point x="344" y="64"/>
      <point x="308" y="64"/>
      <point x="283" y="76" type="curve"/>
      <point x="280" y="89"/>
      <point x="278" y="104"/>
      <point x="278" y="122" type="curve" smooth="yes"/>
      <point x="278" y="589" type="line"/>
      <point x="199" y="578"/>
      <point x="118" y="560"/>
      <point x="38" y="547" type="curve"/>
      <point x="38" y="481" type="line"/>
      <point x="106" y="485" type="line"/>
      <point x="111" y="485"/>
      <point x="116" y="485"/>
      <point x="120" y="485" type="curve" smooth="yes"/>
      <point x="152" y="485"/>
      <point x="146" y="463"/>
      <point x="146" y="440" type="curve" smooth="yes"/>
      <point x="146" y="122" type="line" smooth="yes"/>
      <point x="146" y="87"/>
      <point x="149" y="70"/>
      <point x="104" y="67" type="curve" smooth="yes"/>
      <point x="33" y="62" type="line"/>
    </contour>
  </outline>
</glyph>
<glyph name="two" format="1">
  <advance width="506"/>
  <unicode hex="0032"/>
  <outline>
    <contour>
      <point x="34" y="99" type="curve"/>
      <point x="34" y="0" type="line"/>
      <point x="464" y="0" type="line"/>
      <point x="464" y="114" type="line"/>
      <point x="464" y="114"/>
      <point x="402" y="114"/>
      <point x="363" y="114" type="curve" smooth="yes"/>
      <point x="194" y="114" type="line"/>
      <point x="367" y="245"/>
      <point x="464" y="296"/>
      <point x="464" y="412" type="curve" smooth="yes"/>
      <point x="464" y="506"/>
      <point x="394" y="589"/>
      <point x="260" y="589" type="curve" smooth="yes"/>
      <point x="155" y="589"/>
      <point x="113" y="556"/>
      <point x="60" y="523" type="curve"/>
      <point x="60" y="523"/>
      <point x="60" y="426"/>
      <point x="60" y="400" type="curve"/>
      <point x="156" y="400" type="line"/>
      <point x="162" y="475"/>
      <point x="182" y="517"/>
      <point x="246" y="517" type="curve" smooth="yes"/>
      <point x="298" y="517"/>
      <point x="335" y="478"/>
      <point x="335" y="406" type="curve" smooth="yes"/>
      <point x="335" y="312"/>
      <point x="216" y="253"/>
    </contour>
  </outline>
</glyph>
<glyph name="three" format="1">
  <advance width="500"/>
  <unicode hex="0033"/>
  <outline>
    <contour>
      <point x="462" y="101" type="curve" smooth="yes"/>
      <point x="462" y="194"/>
      <point x="404" y="245"/>
      <point x="301" y="257" type="curve"/>
      <point x="301" y="260" type="line"/>
      <point x="379" y="275"/>
      <point x="437" y="332"/>
      <point x="437" y="420" type="curve" smooth="yes"/>
      <point x="437" y="528"/>
      <point x="351" y="589"/>
      <point x="229" y="589" type="curve" smooth="yes"/>
      <point x="124" y="589"/>
      <point x="65" y="543"/>
      <point x="41" y="490" type="curve"/>
      <point x="42" y="400" type="line"/>
      <point x="139" y="394" type="line"/>
      <point x="146" y="443" type="line" smooth="yes"/>
      <point x="152" y="486"/>
      <point x="174" y="514"/>
      <point x="218" y="514" type="curve" smooth="yes"/>
      <point x="270" y="514"/>
      <point x="302" y="480"/>
      <point x="302" y="408" type="curve" smooth="yes"/>
      <point x="302" y="326"/>
      <point x="256" y="287"/>
      <point x="189" y="287" type="curve" smooth="yes"/>
      <point x="130" y="287" type="line"/>
      <point x="130" y="213" type="line"/>
      <point x="174" y="213" type="line" smooth="yes"/>
      <point x="260" y="213"/>
      <point x="319" y="192"/>
      <point x="319" y="104" type="curve" smooth="yes"/>
      <point x="319" y="14"/>
      <point x="257" y="-12"/>
      <point x="200" y="-12" type="curve" smooth="yes"/>
      <point x="155" y="-12"/>
      <point x="124" y="9"/>
      <point x="84" y="31" type="curve"/>
      <point x="30" y="-10" type="line"/>
      <point x="62" y="-53"/>
      <point x="99" y="-95"/>
      <point x="207" y="-95" type="curve" smooth="yes"/>
      <point x="373" y="-95"/>
      <point x="462" y="0"/>
    </contour>
  </outline>
</glyph>
<glyph name="four" format="1">
  <advance width="575"/>
  <unicode hex="0034"/>
  <outline>
    <contour>
      <point x="450" y="652" type="line"/>
      <point x="290" y="652" type="line"/>
      <point x="23" y="283" type="line"/>
      <point x="23" y="181" type="line"/>
      <point x="328" y="181" type="line"/>
      <point x="328" y="95" type="line" smooth="yes"/>
      <point x="328" y="60"/>
      <point x="314" y="55"/>
      <point x="279" y="55" type="curve" smooth="yes"/>
      <point x="231" y="55" type="line"/>
      <point x="231" y="0" type="line"/>
      <point x="539" y="0" type="line"/>
      <point x="539" y="55" type="line"/>
      <point x="499" y="55" type="line" smooth="yes"/>
      <point x="464" y="55"/>
      <point x="450" y="60"/>
      <point x="450" y="95" type="curve" smooth="yes"/>
      <point x="450" y="181" type="line"/>
      <point x="539" y="181" type="line"/>
      <point x="539" y="253" type="line"/>
      <point x="450" y="253" type="line"/>
    </contour>
    <contour>
      <point x="328" y="550" type="line"/>
      <point x="328" y="253" type="line"/>
      <point x="113" y="253" type="line"/>
      <point x="326" y="550" type="line"/>
    </contour>
  </outline>
</glyph>
<glyph name="six" format="1">
  <advance width="531"/>
  <unicode hex="0036"/>
  <outline>
    <contour>
      <point x="499" y="208" type="curve" smooth="yes"/>
      <point x="499" y="341"/>
      <point x="421" y="414"/>
      <point x="306" y="414" type="curve" smooth="yes"/>
      <point x="249" y="414"/>
      <point x="208" y="395"/>
      <point x="177" y="363" type="curve"/>
      <point x="183" y="514"/>
      <point x="255" y="598"/>
      <point x="341" y="598" type="curve" smooth="yes"/>
      <point x="368" y="598"/>
      <point x="397" y="589"/>
      <point x="425" y="572" type="curve"/>
      <point x="453" y="619" type="line"/>
      <point x="453" y="619"/>
      <point x="412" y="670"/>
      <point x="326" y="670" type="curve" smooth="yes"/>
      <point x="155" y="670"/>
      <point x="38" y="536"/>
      <point x="38" y="282" type="curve" smooth="yes"/>
      <point x="38" y="89"/>
      <point x="116" y="-14"/>
      <point x="278" y="-14" type="curve" smooth="yes"/>
      <point x="416" y="-14"/>
      <point x="499" y="69"/>
    </contour>
    <contour>
      <point x="363" y="204" type="curve" smooth="yes"/>
      <point x="363" y="95"/>
      <point x="322" y="57"/>
      <point x="267" y="57" type="curve" smooth="yes"/>
      <point x="211" y="57"/>
      <point x="174" y="101"/>
      <point x="174" y="198" type="curve" smooth="yes"/>
      <point x="174" y="299"/>
      <point x="219" y="343"/>
      <point x="269" y="343" type="curve" smooth="yes"/>
      <point x="321" y="343"/>
      <point x="363" y="306"/>
    </contour>
  </outline>
</glyph>
<glyph name="seven" format="1">
  <advance width="507"/>
  <unicode hex="0037"/>
  <outline>
    <contour>
      <point x="79" y="-94" type="line"/>
      <point x="189" y="-94" type="line"/>
      <point x="482" y="478" type="line"/>
      <point x="482" y="575" type="line"/>
      <point x="30" y="575" type="line"/>
      <point x="30" y="371" type="line"/>
      <point x="103" y="371" type="line"/>
      <point x="107" y="404" type="line" smooth="yes"/>
      <point x="109" y="420"/>
      <point x="112" y="435"/>
      <point x="116" y="449" type="curve"/>
      <point x="131" y="455"/>
      <point x="148" y="458"/>
      <point x="170" y="458" type="curve" smooth="yes"/>
      <point x="368" y="458" type="line"/>
      <point x="316" y="361"/>
      <point x="267" y="263"/>
      <point x="216" y="167" type="curve" smooth="yes"/>
    </contour>
  </outline>
</glyph>
<glyph name="eight" format="1">
  <advance width="544"/>
  <unicode hex="0038"/>
  <outline>
    <contour>
      <point x="269" y="-14" type="curve" smooth="yes"/>
      <point x="414" y="-14"/>
      <point x="507" y="57"/>
      <point x="507" y="174" type="curve" smooth="yes"/>
      <point x="507" y="266"/>
      <point x="448" y="327"/>
      <point x="358" y="357" type="curve"/>
      <point x="357" y="357"/>
      <point x="357" y="358"/>
      <point x="357" y="358" type="curve"/>
      <point x="357" y="359"/>
      <point x="358" y="361"/>
      <point x="358" y="362" type="curve" smooth="yes"/>
      <point x="358" y="363"/>
      <point x="358" y="363"/>
      <point x="357" y="363" type="curve"/>
      <point x="441" y="385"/>
      <point x="488" y="442"/>
      <point x="488" y="517" type="curve" smooth="yes"/>
      <point x="488" y="616"/>
      <point x="422" y="681"/>
      <point x="273" y="681" type="curve" smooth="yes"/>
      <point x="131" y="681"/>
      <point x="57" y="611"/>
      <point x="57" y="510" type="curve" smooth="yes"/>
      <point x="57" y="434"/>
      <point x="90" y="374"/>
      <point x="184" y="338" type="curve"/>
      <point x="184" y="337"/>
      <point x="179" y="333"/>
      <point x="179" y="332" type="curve" smooth="yes"/>
      <point x="179" y="331"/>
      <point x="179" y="331"/>
      <point x="180" y="331" type="curve"/>
      <point x="180" y="331"/>
      <point x="181" y="331"/>
      <point x="183" y="332" type="curve"/>
      <point x="108" y="315"/>
      <point x="39" y="259"/>
      <point x="39" y="165" type="curve" smooth="yes"/>
      <point x="39" y="59"/>
      <point x="116" y="-14"/>
    </contour>
    <contour>
      <point x="164" y="172" type="curve" smooth="yes"/>
      <point x="164" y="251"/>
      <point x="211" y="295"/>
      <point x="256" y="306" type="curve"/>
      <point x="325" y="287"/>
      <point x="376" y="246"/>
      <point x="376" y="166" type="curve" smooth="yes"/>
      <point x="376" y="96"/>
      <point x="333" y="55"/>
      <point x="269" y="55" type="curve" smooth="yes"/>
      <point x="207" y="55"/>
      <point x="164" y="96"/>
    </contour>
    <contour>
      <point x="183" y="513" type="curve" smooth="yes"/>
      <point x="183" y="577"/>
      <point x="219" y="615"/>
      <point x="276" y="615" type="curve" smooth="yes"/>
      <point x="332" y="615"/>
      <point x="368" y="577"/>
      <point x="368" y="512" type="curve" smooth="yes"/>
      <point x="368" y="447"/>
      <point x="332" y="399"/>
      <point x="286" y="389" type="curve"/>
      <point x="225" y="405"/>
      <point x="183" y="447"/>
    </contour>
  </outline>
</glyph>
<glyph name="colon" format="1">
  <advance width="264"/>
  <unicode hex="003A"/>
  <outline>
    <contour>
      <point x="207" y="64" type="curve" smooth="yes"/>
      <point x="207" y="109"/>
      <point x="179" y="143"/>
      <point x="132" y="143" type="curve" smooth="yes"/>
      <point x="85" y="143"/>
      <point x="57" y="109"/>
      <point x="57" y="64" type="curve" smooth="yes"/>
      <point x="57" y="20"/>
      <point x="85" y="-13"/>
      <point x="132" y="-13" type="curve" smooth="yes"/>
      <point x="179" y="-13"/>
      <point x="207" y="20"/>
    </contour>
    <contour>
      <point x="207" y="383" type="curve" smooth="yes"/>
      <point x="207" y="428"/>
      <point x="179" y="462"/>
      <point x="132" y="462" type="curve" smooth="yes"/>
      <point x="85" y="462"/>
      <point x="57" y="428"/>
      <point x="57" y="383" type="curve" smooth="yes"/>
      <point x="57" y="338"/>
      <point x="85" y="306"/>
      <point x="132" y="306" type="curve" smooth="yes"/>
      <point x="179" y="306"/>
      <point x="207" y="338"/>
    </contour>
  </outline>
</glyph>
<glyph name="semicolon" format="1">
  <advance width="238"/>
  <unicode hex="003B"/>
  <outline>
    <contour>
      <point x="193" y="386" type="curve" smooth="yes"/>
      <point x="193" y="431"/>
      <point x="165" y="465"/>
      <point x="118" y="465" type="curve" smooth="yes"/>
      <point x="71" y="465"/>
      <point x="42" y="431"/>
      <point x="42" y="386" type="curve" smooth="yes"/>
      <point x="42" y="341"/>
      <point x="71" y="308"/>
      <point x="118" y="308" type="curve" smooth="yes"/>
      <point x="165" y="308"/>
      <point x="193" y="341"/>
    </contour>
  </outline>
</glyph>
<glyph name="less" format="1">
  <advance width="525"/>
  <unicode hex="003C"/>
  <outline>
    <contour>
      <point x="23" y="226" type="line"/>
      <point x="407" y="1" type="line"/>
      <point x="493" y="43" type="line"/>
      <point x="159" y="247" type="line"/>
      <point x="493" y="442" type="line"/>
      <point x="407" y="484" type="line"/>
      <point x="49" y="284" type="line"/>
    </contour>
  </outline>
</glyph>
<glyph name="equal" format="1">
  <advance width="554"/>
  <unicode hex="003D"/>
  <outline>
    <contour>
      <point x="47" y="295" type="line"/>
      <point x="47" y="200" type="line"/>
      <point x="509" y="200" type="line"/>
      <point x="509" y="295" type="line"/>
    </contour>
    <contour>
      <point x="47" y="297" type="line"/>
      <point x="47" y="201" type="line"/>
      <point x="509" y="201" type="line"/>
      <point x="509" y="297" type="line"/>
    </contour>
  </outline>
</glyph>
<glyph name="greater" format="1">
  <advance width="523"/>
  <unicode hex="003E"/>
  <outline>
    <contour>
      <point x="501" y="260" type="line"/>
      <point x="118" y="484" type="line"/>
      <point x="31" y="442" type="line"/>
      <point x="366" y="239" type="line"/>
      <point x="31" y="43" type="line"/>
      <point x="117" y="1" type="line"/>
      <point x="475" y="202" type="line"/>
    </contour>
  </outline>
</glyph>
<glyph name="question" format="1">
  <advance width="414"/>
  <unicode hex="003F"/>
  <outline>
    <contour>
      <point x="192" y="682" type="curve" smooth="yes"/>
      <point x="101" y="682"/>
      <point x="54" y="645"/>
      <point x="28" y="622" type="curve"/>
      <point x="28" y="484" type="line"/>
      <point x="28" y="484"/>
      <point x="133" y="484"/>
      <point x="133" y="484" type="curve"/>
      <point x="133" y="564"/>
      <point x="166" y="589"/>
      <point x="190" y="589" type="curve" smooth="yes"/>
      <point x="228" y="589"/>
      <point x="254" y="569"/>
      <point x="258" y="513" type="curve"/>
      <point x="258" y="437"/>
      <point x="96" y="312"/>
      <point x="96" y="312" type="curve"/>
      <point x="137" y="186" type="line"/>
      <point x="214" y="186" type="line"/>
      <point x="214" y="265" type="line"/>
      <point x="258" y="326"/>
      <point x="388" y="382"/>
      <point x="388" y="510" type="curve" smooth="yes"/>
      <point x="388" y="618"/>
      <point x="311" y="682"/>
    </contour>
    <contour>
      <point x="181" y="143" type="curve" smooth="yes"/>
      <point x="134" y="143"/>
      <point x="106" y="109"/>
      <point x="106" y="64" type="curve" smooth="yes"/>
      <point x="106" y="20"/>
      <point x="134" y="-13"/>
      <point x="181" y="-13" type="curve" smooth="yes"/>
      <point x="228" y="-13"/>
      <point x="256" y="20"/>
      <point x="256" y="64" type="curve" smooth="yes"/>
      <point x="256" y="109"/>
      <point x="228" y="143"/>
    </contour>
  </outline>
</glyph>
<glyph name="A" format="1">
  <advance width="774"/>
  <unicode hex="0041"/>
  <outline>
    <contour>
      <point x="361" y="667" type="move" name="top"/>
    </contour>
    <contour>
      <point x="650" y="10" type="move" name="ogonek"/>
    </contour>
    <contour>
      <point x="247" y="201" type="curve"/>
      <point x="479" y="201" type="line"/>
      <point x="506" y="125"/>
      <point x="514" y="107"/>
      <point x="522" y="82" type="curve"/>
      <point x="515" y="71"/>
      <point x="501" y="70"/>
      <point x="476" y="68" type="curve" smooth="yes"/>
      <point x="434" y="65" type="line"/>
      <point x="434" y="0" type="line"/>
      <point x="751" y="0" type="line"/>
      <point x="751" y="64" type="line"/>
      <point x="703" y="70"/>
      <point x="687" y="65"/>
      <point x="664" y="122" type="curve" smooth="yes"/>
      <point x="595" y="295"/>
      <point x="456" y="667"/>
      <point x="456" y="667" type="curve"/>
      <point x="319" y="667" type="line"/>
      <point x="298" y="607"/>
      <point x="170" y="258"/>
      <point x="109" y="107" type="curve" smooth="yes"/>
      <point x="104" y="94"/>
      <point x="97" y="83"/>
      <point x="90" y="74" type="curve"/>
      <point x="75" y="70"/>
      <point x="46" y="67"/>
      <point x="25" y="64" type="curve"/>
      <point x="25" y="0" type="line"/>
      <point x="288" y="0" type="line"/>
      <point x="288" y="65" type="line"/>
      <point x="236" y="68" type="line" smooth="yes"/>
      <point x="221" y="69"/>
      <point x="209" y="72"/>
      <point x="202" y="78" type="curve"/>
      <point x="209" y="101"/>
      <point x="221" y="128"/>
    </contour>
    <contour>
      <point x="457" y="272" type="curve"/>
      <point x="270" y="272" type="line"/>
      <point x="296" y="346"/>
      <point x="336" y="465"/>
      <point x="362" y="547" type="curve"/>
      <point x="366" y="547" type="line"/>
      <point x="392" y="465"/>
      <point x="426" y="362"/>
    </contour>
  </outline>
</glyph>
<glyph name="B" format="1">
  <advance width="578"/>
  <unicode hex="0042"/>
  <outline>
    <contour>
      <point x="236" y="71" type="curve"/>
      <point x="236" y="304" type="line"/>
      <point x="293" y="304" type="line" smooth="yes"/>
      <point x="393" y="304"/>
      <point x="435" y="250"/>
      <point x="435" y="184" type="curve" smooth="yes"/>
      <point x="435" y="104"/>
      <point x="371" y="71"/>
      <point x="303" y="71" type="curve" smooth="yes"/>
      <point x="284" y="71"/>
      <point x="256" y="70"/>
    </contour>
    <contour>
      <point x="282" y="376" type="curve" smooth="yes"/>
      <point x="236" y="376" type="line"/>
      <point x="236" y="597" type="line"/>
      <point x="254" y="598"/>
      <point x="275" y="597"/>
      <point x="293" y="597" type="curve" smooth="yes"/>
      <point x="361" y="597"/>
      <point x="411" y="562"/>
      <point x="411" y="491" type="curve" smooth="yes"/>
      <point x="411" y="419"/>
      <point x="358" y="376"/>
    </contour>
    <contour>
      <point x="36" y="45" type="curve"/>
      <point x="36" y="0" type="line"/>
      <point x="207" y="0" type="line" smooth="yes"/>
      <point x="235" y="0"/>
      <point x="260" y="-1"/>
      <point x="307" y="-1" type="curve" smooth="yes"/>
      <point x="450" y="-1"/>
      <point x="543" y="59"/>
      <point x="543" y="179" type="curve" smooth="yes"/>
      <point x="543" y="290"/>
      <point x="469" y="337"/>
      <point x="365" y="345" type="curve"/>
      <point x="365" y="350" type="line"/>
      <point x="456" y="363"/>
      <point x="511" y="416"/>
      <point x="511" y="503" type="curve" smooth="yes"/>
      <point x="511" y="610"/>
      <point x="435" y="667"/>
      <point x="296" y="667" type="curve" smooth="yes"/>
      <point x="244" y="667"/>
      <point x="233" y="667"/>
      <point x="205" y="667" type="curve" smooth="yes"/>
      <point x="31" y="667" type="line"/>
      <point x="31" y="621" type="line"/>
      <point x="48" y="617"/>
      <point x="104" y="603"/>
      <point x="134" y="584" type="curve"/>
      <point x="134" y="82" type="line"/>
      <point x="106" y="69"/>
      <point x="71" y="53"/>
    </contour>
  </outline>
</glyph>
<glyph name="C" format="1">
  <advance width="620"/>
  <unicode hex="0043"/>
  <outline>
    <contour>
      <point x="350" y="667" type="move" name="top"/>
    </contour>
    <contour>
      <point x="350" y="0" type="move" name="bottom"/>
    </contour>
    <contour>
      <point x="578" y="24" type="curve"/>
      <point x="578" y="223" type="line"/>
      <point x="509" y="223" type="line"/>
      <point x="503" y="175"/>
      <point x="491" y="81"/>
      <point x="491" y="81" type="curve"/>
      <point x="478" y="76"/>
      <point x="440" y="60"/>
      <point x="379" y="60" type="curve" smooth="yes"/>
      <point x="238" y="60"/>
      <point x="158" y="176"/>
      <point x="158" y="324" type="curve" smooth="yes"/>
      <point x="158" y="525"/>
      <point x="277" y="612"/>
      <point x="389" y="612" type="curve" smooth="yes"/>
      <point x="434" y="612"/>
      <point x="481" y="595"/>
      <point x="487" y="592" type="curve"/>
      <point x="499" y="452" type="line"/>
      <point x="565" y="452" type="line"/>
      <point x="575" y="647" type="line"/>
      <point x="519" y="668"/>
      <point x="436" y="682"/>
      <point x="372" y="682" type="curve" smooth="yes"/>
      <point x="171" y="682"/>
      <point x="33" y="550"/>
      <point x="33" y="320" type="curve" smooth="yes"/>
      <point x="33" y="133"/>
      <point x="167" y="-14"/>
      <point x="359" y="-14" type="curve" smooth="yes"/>
      <point x="432" y="-14"/>
      <point x="526" y="-1"/>
    </contour>
  </outline>
</glyph>
<glyph name="D" format="1">
  <advance width="670"/>
  <unicode hex="0044"/>
  <outline>
    <contour>
      <point x="385" y="667" type="move" name="top"/>
    </contour>
    <contour>
      <point x="385" y="334" type="move" name="center"/>
    </contour>
    <contour>
      <point x="236" y="73" type="curve"/>
      <point x="236" y="594" type="line"/>
      <point x="260" y="595"/>
      <point x="283" y="596"/>
      <point x="309" y="596" type="curve" smooth="yes"/>
      <point x="431" y="596"/>
      <point x="524" y="539"/>
      <point x="524" y="335" type="curve" smooth="yes"/>
      <point x="524" y="150"/>
      <point x="447" y="70"/>
      <point x="319" y="70" type="curve" smooth="yes"/>
      <point x="291" y="70"/>
      <point x="262" y="72"/>
    </contour>
    <contour>
      <point x="134" y="585" type="curve"/>
      <point x="134" y="82" type="line"/>
      <point x="92" y="59"/>
      <point x="36" y="45"/>
      <point x="36" y="45" type="curve"/>
      <point x="36" y="0" type="line"/>
      <point x="193" y="0" type="line" smooth="yes"/>
      <point x="218" y="0"/>
      <point x="246" y="0"/>
      <point x="299" y="0" type="curve" smooth="yes"/>
      <point x="495" y="0"/>
      <point x="636" y="93"/>
      <point x="636" y="336" type="curve" smooth="yes"/>
      <point x="636" y="564"/>
      <point x="503" y="668"/>
      <point x="307" y="668" type="curve" smooth="yes"/>
      <point x="242" y="668"/>
      <point x="205" y="667"/>
      <point x="168" y="667" type="curve" smooth="yes"/>
      <point x="31" y="667" type="line"/>
      <point x="31" y="622" type="line"/>
      <point x="72" y="611"/>
      <point x="102" y="600"/>
    </contour>
  </outline>
</glyph>
<glyph name="E" format="1">
  <advance width="598"/>
  <unicode hex="0045"/>
  <outline>
    <contour>
      <point x="336" y="667" type="move" name="top"/>
    </contour>
    <contour>
      <point x="336" y="0" type="move" name="bottom"/>
    </contour>
    <contour>
      <point x="605" y="10" type="move" name="ogonek"/>
    </contour>
    <contour>
      <point x="560" y="179" type="curve"/>
      <point x="501" y="179" type="line"/>
      <point x="495" y="134"/>
      <point x="489" y="95"/>
      <point x="479" y="69" type="curve"/>
      <point x="465" y="62"/>
      <point x="445" y="62"/>
      <point x="416" y="62" type="curve" smooth="yes"/>
      <point x="235" y="62" type="line"/>
      <point x="235" y="319" type="line"/>
      <point x="329" y="319" type="line" smooth="yes"/>
      <point x="346" y="319"/>
      <point x="360" y="319"/>
      <point x="373" y="316" type="curve"/>
      <point x="385" y="297"/>
      <point x="396" y="261"/>
      <point x="399" y="220" type="curve"/>
      <point x="449" y="222" type="line"/>
      <point x="449" y="355" type="line"/>
      <point x="449" y="457" type="line"/>
      <point x="399" y="460" type="line"/>
      <point x="396" y="421"/>
      <point x="384" y="389"/>
      <point x="373" y="371" type="curve"/>
      <point x="360" y="368"/>
      <point x="347" y="368"/>
      <point x="331" y="368" type="curve" smooth="yes"/>
      <point x="235" y="368" type="line"/>
      <point x="235" y="612" type="line"/>
      <point x="403" y="612" type="line" smooth="yes"/>
      <point x="428" y="612"/>
      <point x="457" y="612"/>
      <point x="457" y="612" type="curve"/>
      <point x="465" y="589"/>
      <point x="473" y="533"/>
      <point x="476" y="493" type="curve"/>
      <point x="532" y="497" type="line"/>
      <point x="532" y="667" type="line"/>
      <point x="32" y="667" type="line"/>
      <point x="32" y="621" type="line"/>
      <point x="62" y="612"/>
      <point x="105" y="599"/>
      <point x="133" y="584" type="curve"/>
      <point x="133" y="83" type="line"/>
      <point x="107" y="66"/>
      <point x="35" y="46"/>
      <point x="35" y="46" type="curve"/>
      <point x="35" y="0" type="line"/>
      <point x="428" y="0" type="line" smooth="yes"/>
      <point x="467" y="0"/>
      <point x="527" y="-3"/>
      <point x="560" y="-3" type="curve"/>
      <point x="560" y="58"/>
      <point x="560" y="118"/>
    </contour>
  </outline>
</glyph>
<glyph name="F" format="1">
  <advance width="551"/>
  <unicode hex="0046"/>
  <outline>
    <contour>
      <point x="36" y="0" type="line"/>
      <point x="340" y="0" type="line"/>
      <point x="340" y="45" type="line"/>
      <point x="340" y="45"/>
      <point x="249" y="73"/>
      <point x="236" y="84" type="curve"/>
      <point x="236" y="295" type="line"/>
      <point x="317" y="295" type="line" smooth="yes"/>
      <point x="338" y="295"/>
      <point x="358" y="295"/>
      <point x="375" y="293" type="curve"/>
      <point x="386" y="273"/>
      <point x="392" y="238"/>
      <point x="396" y="194" type="curve"/>
      <point x="451" y="196" type="line"/>
      <point x="451" y="322" type="line"/>
      <point x="451" y="443" type="line"/>
      <point x="396" y="446" type="line"/>
      <point x="391" y="409"/>
      <point x="386" y="373"/>
      <point x="378" y="353" type="curve"/>
      <point x="358" y="347"/>
      <point x="335" y="347"/>
      <point x="302" y="347" type="curve" smooth="yes"/>
      <point x="236" y="347" type="line"/>
      <point x="236" y="593" type="line"/>
      <point x="404" y="593" type="line" smooth="yes"/>
      <point x="426" y="593"/>
      <point x="454" y="593"/>
      <point x="454" y="593" type="curve"/>
      <point x="461" y="567"/>
      <point x="465" y="527"/>
      <point x="468" y="484" type="curve"/>
      <point x="523" y="489" type="line"/>
      <point x="523" y="667" type="line"/>
      <point x="31" y="667" type="line"/>
      <point x="31" y="621" type="line"/>
      <point x="78" y="610"/>
      <point x="115" y="593"/>
      <point x="134" y="584" type="curve"/>
      <point x="134" y="84" type="line"/>
      <point x="118" y="70"/>
      <point x="69" y="55"/>
      <point x="36" y="44" type="curve"/>
    </contour>
  </outline>
</glyph>
<glyph name="G" format="1">
  <advance width="689"/>
  <unicode hex="0047"/>
  <outline>
    <contour>
      <point x="377" y="667" type="move" name="top"/>
    </contour>
    <contour>
      <point x="377" y="0" type="move" name="bottom"/>
    </contour>
    <contour>
      <point x="366" y="-14" type="curve" smooth="yes"/>
      <point x="445" y="-14"/>
      <point x="530" y="4"/>
      <point x="591" y="27" type="curve"/>
      <point x="591" y="178" type="line" smooth="yes"/>
      <point x="591" y="196"/>
      <point x="592" y="211"/>
      <point x="595" y="224" type="curve"/>
      <point x="609" y="230"/>
      <point x="637" y="232"/>
      <point x="662" y="235" type="curve"/>
      <point x="662" y="290" type="line"/>
      <point x="405" y="290" type="line"/>
      <point x="405" y="235" type="line"/>
      <point x="437" y="232"/>
      <point x="463" y="232"/>
      <point x="485" y="224" type="curve"/>
      <point x="488" y="211"/>
      <point x="489" y="196"/>
      <point x="489" y="177" type="curve" smooth="yes"/>
      <point x="489" y="57" type="line"/>
      <point x="463" y="48"/>
      <point x="401" y="41"/>
      <point x="373" y="41" type="curve" smooth="yes"/>
      <point x="245" y="41"/>
      <point x="150" y="141"/>
      <point x="150" y="322" type="curve" smooth="yes"/>
      <point x="150" y="537"/>
      <point x="259" y="627"/>
      <point x="379" y="627" type="curve" smooth="yes"/>
      <point x="421" y="627"/>
      <point x="482" y="622"/>
      <point x="507" y="608" type="curve"/>
      <point x="507" y="608"/>
      <point x="519" y="452"/>
      <point x="519" y="452" type="curve"/>
      <point x="589" y="457" type="line"/>
      <point x="601" y="645" type="line"/>
      <point x="534" y="668"/>
      <point x="455" y="682"/>
      <point x="373" y="682" type="curve" smooth="yes"/>
      <point x="173" y="682"/>
      <point x="34" y="550"/>
      <point x="34" y="319" type="curve" smooth="yes"/>
      <point x="34" y="93"/>
      <point x="183" y="-14"/>
    </contour>
  </outline>
</glyph>
<glyph name="H" format="1">
  <advance width="784"/>
  <unicode hex="0048"/>
  <outline>
    <contour>
      <point x="422" y="667" type="move" name="top"/>
    </contour>
    <contour>
      <point x="422" y="334" type="move" name="center"/>
    </contour>
    <contour>
      <point x="42" y="45" type="curve"/>
      <point x="42" y="0" type="line"/>
      <point x="338" y="0" type="line"/>
      <point x="338" y="45" type="line"/>
      <point x="277" y="61"/>
      <point x="235" y="82"/>
      <point x="235" y="82" type="curve"/>
      <point x="235" y="307" type="line"/>
      <point x="548" y="307" type="line"/>
      <point x="548" y="83" type="line"/>
      <point x="548" y="83"/>
      <point x="536" y="71"/>
      <point x="457" y="45" type="curve"/>
      <point x="457" y="0" type="line"/>
      <point x="754" y="0" type="line"/>
      <point x="754" y="45" type="line"/>
      <point x="693" y="61"/>
      <point x="651" y="82"/>
      <point x="651" y="82" type="curve"/>
      <point x="651" y="584" type="line"/>
      <point x="651" y="584"/>
      <point x="663" y="596"/>
      <point x="742" y="622" type="curve"/>
      <point x="742" y="667" type="line"/>
      <point x="445" y="667" type="line"/>
      <point x="445" y="622" type="line"/>
      <point x="506" y="606"/>
      <point x="548" y="585"/>
      <point x="548" y="585" type="curve"/>
      <point x="548" y="375" type="line"/>
      <point x="235" y="375" type="line"/>
      <point x="235" y="584" type="line"/>
      <point x="235" y="584"/>
      <point x="247" y="596"/>
      <point x="326" y="622" type="curve"/>
      <point x="326" y="667" type="line"/>
      <point x="30" y="667" type="line"/>
      <point x="30" y="622" type="line"/>
      <point x="91" y="606"/>
      <point x="133" y="585"/>
      <point x="133" y="585" type="curve"/>
      <point x="133" y="83" type="line"/>
      <point x="133" y="83"/>
      <point x="121" y="71"/>
    </contour>
  </outline>
</glyph>
<glyph name="I" format="1">
  <advance width="368"/>
  <unicode hex="0049"/>
  <outline>
    <contour>
      <point x="201.0" y="667.0" type="move" name="top"/>
    </contour>
    <contour>
      <point x="367.0" y="10.0" type="move" name="ogonek"/>
    </contour>
    <contour>
      <point x="39" y="45" type="curve"/>
      <point x="39" y="0" type="line"/>
      <point x="338" y="0" type="line"/>
      <point x="338" y="45" type="line"/>
      <point x="270" y="64"/>
      <point x="235" y="82"/>
      <point x="235" y="82" type="curve"/>
      <point x="235" y="585" type="line"/>
      <point x="235" y="585"/>
      <point x="251" y="600"/>
      <point x="329" y="622" type="curve"/>
      <point x="329" y="667" type="line"/>
      <point x="30" y="667" type="line"/>
      <point x="30" y="622" type="line"/>
      <point x="91" y="606"/>
      <point x="133" y="585"/>
      <point x="133" y="585" type="curve"/>
      <point x="133" y="82" type="line"/>
      <point x="133" y="82"/>
      <point x="102" y="63"/>
    </contour>
  </outline>
</glyph>
<glyph name="J" format="1">
  <advance width="466"/>
  <unicode hex="004A"/>
  <outline>
    <contour>
      <point x="442.0" y="10.0" type="move" name="ogonek"/>
    </contour>
    <contour>
      <point x="276.0" y="667.0" type="move" name="top"/>
    </contour>
    <contour>
      <point x="246" y="667" type="move" name="top"/>
    </contour>
    <contour>
      <point x="164" y="-96" type="curve" smooth="yes"/>
      <point x="352" y="-96"/>
      <point x="351" y="39"/>
      <point x="351" y="170" type="curve" smooth="yes"/>
      <point x="351" y="585" type="line"/>
      <point x="351" y="585"/>
      <point x="367" y="600"/>
      <point x="445" y="622" type="curve"/>
      <point x="445" y="667" type="line"/>
      <point x="146" y="667" type="line"/>
      <point x="146" y="622" type="line"/>
      <point x="207" y="606"/>
      <point x="249" y="585"/>
      <point x="249" y="585" type="curve"/>
      <point x="249" y="146" type="line" smooth="yes"/>
      <point x="249" y="46"/>
      <point x="243" y="-31"/>
      <point x="165" y="-31" type="curve" smooth="yes"/>
      <point x="140" y="-31"/>
      <point x="112" y="-20"/>
      <point x="112" y="-20" type="curve"/>
      <point x="112" y="-20"/>
      <point x="96" y="64"/>
      <point x="88" y="109" type="curve"/>
      <point x="66" y="109"/>
      <point x="53" y="108"/>
      <point x="30" y="109" type="curve"/>
      <point x="30" y="-77" type="line"/>
      <point x="62" y="-85"/>
      <point x="129" y="-96"/>
    </contour>
  </outline>
</glyph>
<glyph name="L" format="1">
  <advance width="613"/>
  <unicode hex="004C"/>
  <outline>
    <contour>
      <point x="308" y="667" type="move" name="top"/>
    </contour>
    <contour>
      <point x="308" y="0" type="move" name="bottom"/>
    </contour>
    <contour>
      <point x="426" y="74" type="curve" smooth="yes"/>
      <point x="279" y="74" type="line"/>
      <point x="279" y="543" type="line" smooth="yes"/>
      <point x="279" y="562"/>
      <point x="280" y="578"/>
      <point x="283" y="591" type="curve"/>
      <point x="304" y="599"/>
      <point x="349" y="599"/>
      <point x="384" y="602" type="curve"/>
      <point x="387" y="667" type="line"/>
      <point x="36" y="667" type="line"/>
      <point x="33" y="602" type="line"/>
      <point x="66" y="599"/>
      <point x="108" y="599"/>
      <point x="130" y="591" type="curve"/>
      <point x="133" y="578"/>
      <point x="134" y="562"/>
      <point x="134" y="543" type="curve" smooth="yes"/>
      <point x="134" y="123" type="line" smooth="yes"/>
      <point x="134" y="104"/>
      <point x="133" y="89"/>
      <point x="130" y="75" type="curve"/>
      <point x="120" y="71"/>
      <point x="106" y="69"/>
      <point x="90" y="68" type="curve" smooth="yes"/>
      <point x="36" y="64" type="line"/>
      <point x="36" y="0" type="line"/>
      <point x="451" y="0" type="line" smooth="yes"/>
      <point x="490" y="0"/>
      <point x="546" y="-3"/>
      <point x="579" y="-3" type="curve"/>
      <point x="579" y="70"/>
      <point x="579" y="143"/>
      <point x="579" y="217" type="curve"/>
      <point x="498" y="221" type="line"/>
      <point x="492" y="150"/>
      <point x="483" y="108"/>
      <point x="470" y="78" type="curve"/>
      <point x="456" y="75"/>
      <point x="441" y="74"/>
    </contour>
  </outline>
</glyph>
<glyph name="O" format="1">
  <advance width="678"/>
  <unicode hex="004F"/>
  <outline>
    <contour>
      <point x="383" y="667" type="move" name="top"/>
    </contour>
    <contour>
      <point x="645" y="336" type="curve" smooth="yes"/>
      <point x="645" y="505"/>
      <point x="543" y="682"/>
      <point x="340" y="682" type="curve" smooth="yes"/>
      <point x="134" y="682"/>
      <point x="33" y="508"/>
      <point x="33" y="334" type="curve" smooth="yes"/>
      <point x="33" y="160"/>
      <point x="133" y="-14"/>
      <point x="330" y="-14" type="curve" smooth="yes"/>
      <point x="532" y="-14"/>
      <point x="645" y="157"/>
    </contour>
    <contour>
      <point x="158" y="326" type="curve" smooth="yes"/>
      <point x="158" y="466"/>
      <point x="226" y="608"/>
      <point x="338" y="608" type="curve" smooth="yes"/>
      <point x="446" y="608"/>
      <point x="515" y="466"/>
      <point x="515" y="326" type="curve" smooth="yes"/>
      <point x="515" y="192"/>
      <point x="451" y="60"/>
      <point x="335" y="60" type="curve" smooth="yes"/>
      <point x="222" y="60"/>
      <point x="158" y="192"/>
    </contour>
  </outline>
</glyph>
<glyph name="P" format="1">
  <advance width="605"/>
  <unicode hex="0050"/>
  <outline>
    <contour>
      <point x="311" y="358" type="curve" smooth="yes"/>
      <point x="266" y="358" type="line"/>
      <point x="266" y="603" type="line"/>
      <point x="327" y="603" type="line" smooth="yes"/>
      <point x="402" y="603"/>
      <point x="445" y="558"/>
      <point x="445" y="485" type="curve" smooth="yes"/>
      <point x="445" y="398"/>
      <point x="388" y="358"/>
    </contour>
    <contour>
      <point x="35" y="55" type="curve"/>
      <point x="35" y="0" type="line"/>
      <point x="369" y="0" type="line"/>
      <point x="369" y="55" type="line"/>
      <point x="308" y="71"/>
      <point x="266" y="92"/>
      <point x="266" y="92" type="curve"/>
      <point x="266" y="294" type="line"/>
      <point x="319" y="294" type="line" smooth="yes"/>
      <point x="492" y="294"/>
      <point x="579" y="364"/>
      <point x="579" y="486" type="curve" smooth="yes"/>
      <point x="579" y="608"/>
      <point x="505" y="667"/>
      <point x="351" y="667" type="curve" smooth="yes"/>
      <point x="35" y="667" type="line"/>
      <point x="35" y="612" type="line"/>
      <point x="94" y="593"/>
      <point x="126" y="567"/>
      <point x="126" y="567" type="curve"/>
      <point x="126" y="93" type="line"/>
      <point x="126" y="93"/>
      <point x="114" y="81"/>
    </contour>
  </outline>
</glyph>
<glyph name="Q" format="1">
  <advance width="745"/>
  <unicode hex="0051"/>
  <outline>
    <contour>
      <point x="515" y="-74" type="curve" smooth="yes"/>
      <point x="652" y="-139" type="line"/>
      <point x="717" y="-48" type="line"/>
      <point x="653" y="-27"/>
      <point x="581" y="15"/>
      <point x="520" y="26" type="curve"/>
      <point x="640" y="61"/>
      <point x="693" y="196"/>
      <point x="693" y="330" type="curve" smooth="yes"/>
      <point x="693" y="551"/>
      <point x="544" y="682"/>
      <point x="370" y="682" type="curve" smooth="yes"/>
      <point x="181" y="682"/>
      <point x="34" y="568"/>
      <point x="34" y="334" type="curve" smooth="yes"/>
      <point x="34" y="130"/>
      <point x="145" y="-9"/>
      <point x="338" y="-12" type="curve"/>
      <point x="393" y="-26"/>
      <point x="453" y="-44"/>
    </contour>
    <contour>
      <point x="189" y="333" type="curve" smooth="yes"/>
      <point x="189" y="534"/>
      <point x="265" y="608"/>
      <point x="365" y="608" type="curve" smooth="yes"/>
      <point x="463" y="608"/>
      <point x="536" y="529"/>
      <point x="536" y="335" type="curve" smooth="yes"/>
      <point x="536" y="158"/>
      <point x="470" y="62"/>
      <point x="369" y="62" type="curve" smooth="yes"/>
      <point x="264" y="62"/>
      <point x="189" y="132"/>
    </contour>
  </outline>
</glyph>
<glyph name="R" format="1">
  <advance width="652"/>
  <unicode hex="0052"/>
  <outline>
    <contour>
      <point x="367.0" y="10.0" type="move" name="ogonek"/>
    </contour>
    <contour>
      <point x="201.0" y="667.0" type="move" name="top"/>
    </contour>
    <contour>
      <point x="366" y="667" type="move" name="top"/>
    </contour>
    <contour>
      <point x="366" y="0" type="move" name="bottom"/>
    </contour>
    <contour>
      <point x="281" y="375" type="curve" smooth="yes"/>
      <point x="235" y="375" type="line"/>
      <point x="235" y="607" type="line"/>
      <point x="336" y="607" type="line" smooth="yes"/>
      <point x="405" y="607"/>
      <point x="458" y="579"/>
      <point x="462" y="504" type="curve" smooth="yes"/>
      <point x="467" y="419"/>
      <point x="379" y="375"/>
    </contour>
    <contour>
      <point x="39" y="0" type="line"/>
      <point x="336" y="0" type="line"/>
      <point x="336" y="45" type="line"/>
      <point x="268" y="64"/>
      <point x="235" y="82"/>
      <point x="235" y="82" type="curve"/>
      <point x="235" y="311" type="line"/>
      <point x="283" y="311" type="line" smooth="yes"/>
      <point x="322" y="311"/>
      <point x="306" y="311"/>
      <point x="306" y="312" type="curve" smooth="yes"/>
      <point x="306" y="313"/>
      <point x="462" y="0"/>
      <point x="462" y="0" type="curve"/>
      <point x="627" y="0" type="line"/>
      <point x="627" y="62" type="line"/>
      <point x="547" y="78" type="line"/>
      <point x="527" y="100"/>
      <point x="509" y="141"/>
      <point x="497" y="160" type="curve" smooth="yes"/>
      <point x="493" y="167"/>
      <point x="426" y="278"/>
      <point x="403" y="323" type="curve"/>
      <point x="497" y="353"/>
      <point x="565" y="422"/>
      <point x="565" y="508" type="curve" smooth="yes"/>
      <point x="565" y="610"/>
      <point x="472" y="667"/>
      <point x="325" y="667" type="curve" smooth="yes"/>
      <point x="30" y="667" type="line"/>
      <point x="30" y="622" type="line"/>
      <point x="91" y="606"/>
      <point x="133" y="585"/>
      <point x="133" y="585" type="curve"/>
      <point x="133" y="83" type="line"/>
      <point x="133" y="83"/>
      <point x="102" y="63"/>
      <point x="39" y="45" type="curve"/>
    </contour>
  </outline>
</glyph>
<glyph name="U" format="1">
  <advance width="746"/>
  <unicode hex="0055"/>
  <outline>
    <contour>
      <point x="383" y="667" type="move" name="top"/>
    </contour>
    <contour>
      <point x="689" y="10" type="move" name="ogonek"/>
    </contour>
    <contour>
      <point x="721" y="602" type="curve"/>
      <point x="724" y="667" type="line"/>
      <point x="448" y="667" type="line"/>
      <point x="444" y="602" type="line"/>
      <point x="477" y="599"/>
      <point x="514" y="599"/>
      <point x="536" y="591" type="curve"/>
      <point x="539" y="577"/>
      <point x="541" y="560"/>
      <point x="541" y="540" type="curve" smooth="yes"/>
      <point x="542" y="222" type="line" smooth="yes"/>
      <point x="542" y="118"/>
      <point x="486" y="67"/>
      <point x="390" y="67" type="curve" smooth="yes"/>
      <point x="283" y="67"/>
      <point x="251" y="131"/>
      <point x="251" y="230" type="curve" smooth="yes"/>
      <point x="251" y="540" type="line" smooth="yes"/>
      <point x="251" y="560"/>
      <point x="252" y="577"/>
      <point x="255" y="591" type="curve"/>
      <point x="276" y="599"/>
      <point x="317" y="599"/>
      <point x="351" y="602" type="curve"/>
      <point x="353" y="667" type="line"/>
      <point x="24" y="667" type="line"/>
      <point x="21" y="602" type="line"/>
      <point x="50" y="599"/>
      <point x="85" y="599"/>
      <point x="105" y="591" type="curve"/>
      <point x="108" y="576"/>
      <point x="109" y="560"/>
      <point x="109" y="539" type="curve" smooth="yes"/>
      <point x="109" y="226" type="line" smooth="yes"/>
      <point x="109" y="58"/>
      <point x="202" y="-14"/>
      <point x="387" y="-14" type="curve" smooth="yes"/>
      <point x="547" y="-14"/>
      <point x="636" y="82"/>
      <point x="636" y="224" type="curve" smooth="yes"/>
      <point x="636" y="539" type="line" smooth="yes"/>
      <point x="636" y="560"/>
      <point x="637" y="576"/>
      <point x="640" y="591" type="curve"/>
      <point x="658" y="598"/>
      <point x="692" y="599"/>
    </contour>
  </outline>
</glyph>
<glyph name="V" format="1">
  <advance width="760"/>
  <unicode hex="0056"/>
  <outline>
    <contour>
      <point x="740" y="603" type="curve"/>
      <point x="743" y="667" type="line"/>
      <point x="468" y="667" type="line"/>
      <point x="465" y="603" type="line"/>
      <point x="500" y="600"/>
      <point x="547" y="601"/>
      <point x="566" y="587" type="curve"/>
      <point x="564" y="576"/>
      <point x="559" y="565"/>
      <point x="554" y="552" type="curve" smooth="yes"/>
      <point x="537" y="504" type="line" smooth="yes"/>
      <point x="508" y="430"/>
      <point x="434" y="182"/>
      <point x="411" y="130" type="curve"/>
      <point x="375" y="247"/>
      <point x="324" y="385"/>
      <point x="282" y="502" type="curve" smooth="yes"/>
      <point x="263" y="554" type="line" smooth="yes"/>
      <point x="259" y="565"/>
      <point x="255" y="576"/>
      <point x="252" y="587" type="curve"/>
      <point x="260" y="595"/>
      <point x="277" y="597"/>
      <point x="300" y="599" type="curve" smooth="yes"/>
      <point x="351" y="603" type="line"/>
      <point x="351" y="667" type="line"/>
      <point x="18" y="667" type="line"/>
      <point x="18" y="603" type="line"/>
      <point x="59" y="599" type="line"/>
      <point x="72" y="597"/>
      <point x="83" y="594"/>
      <point x="93" y="590" type="curve"/>
      <point x="119" y="554"/>
      <point x="147" y="465"/>
      <point x="172" y="398" type="curve" smooth="yes"/>
      <point x="223" y="262"/>
      <point x="282" y="113"/>
      <point x="319" y="-5" type="curve"/>
      <point x="456" y="-5" type="line"/>
      <point x="511" y="167"/>
      <point x="592" y="384"/>
      <point x="655" y="551" type="curve" smooth="yes"/>
      <point x="676" y="606"/>
      <point x="697" y="598"/>
    </contour>
  </outline>
</glyph>
<glyph name="X" format="1">
  <advance width="767"/>
  <unicode hex="0058"/>
  <outline>
    <contour>
      <point x="31" y="64" type="curve"/>
      <point x="29" y="0" type="line"/>
      <point x="311" y="0" type="line"/>
      <point x="311" y="65" type="line"/>
      <point x="263" y="68" type="line" smooth="yes"/>
      <point x="242" y="69"/>
      <point x="230" y="73"/>
      <point x="223" y="79" type="curve"/>
      <point x="228" y="90"/>
      <point x="237" y="103"/>
      <point x="245" y="114" type="curve" smooth="yes"/>
      <point x="361" y="276" type="line"/>
      <point x="469" y="114" type="line" smooth="yes"/>
      <point x="479" y="99"/>
      <point x="486" y="90"/>
      <point x="490" y="79" type="curve"/>
      <point x="482" y="72"/>
      <point x="465" y="69"/>
      <point x="445" y="68" type="curve" smooth="yes"/>
      <point x="398" y="65" type="line"/>
      <point x="398" y="0" type="line"/>
      <point x="740" y="0" type="line"/>
      <point x="740" y="64" type="line"/>
      <point x="701" y="68" type="line" smooth="yes"/>
      <point x="668" y="72"/>
      <point x="658" y="82"/>
      <point x="641" y="105" type="curve" smooth="yes"/>
      <point x="463" y="353" type="line"/>
      <point x="613" y="553" type="line" smooth="yes"/>
      <point x="623" y="567"/>
      <point x="633" y="579"/>
      <point x="643" y="589" type="curve"/>
      <point x="666" y="599"/>
      <point x="693" y="599"/>
      <point x="718" y="602" type="curve"/>
      <point x="721" y="667" type="line"/>
      <point x="447" y="667" type="line"/>
      <point x="444" y="602" type="line"/>
      <point x="472" y="599"/>
      <point x="510" y="600"/>
      <point x="526" y="589" type="curve"/>
      <point x="520" y="577"/>
      <point x="514" y="566"/>
      <point x="505" y="552" type="curve" smooth="yes"/>
      <point x="407" y="411" type="line"/>
      <point x="316" y="553" type="line" smooth="yes"/>
      <point x="309" y="564"/>
      <point x="302" y="575"/>
      <point x="297" y="587" type="curve"/>
      <point x="312" y="599"/>
      <point x="346" y="599"/>
      <point x="377" y="602" type="curve"/>
      <point x="380" y="667" type="line"/>
      <point x="51" y="667" type="line"/>
      <point x="54" y="602" type="line"/>
      <point x="76" y="599"/>
      <point x="103" y="600"/>
      <point x="123" y="591" type="curve"/>
      <point x="131" y="579"/>
      <point x="143" y="566"/>
      <point x="155" y="549" type="curve" smooth="yes"/>
      <point x="306" y="334" type="line"/>
      <point x="135" y="111" type="line" smooth="yes"/>
      <point x="100" y="66"/>
      <point x="79" y="69"/>
    </contour>
  </outline>
</glyph>
<glyph name="Z" format="1">
  <advance width="629"/>
  <unicode hex="005A"/>
  <outline>
    <contour>
      <point x="330" y="667" type="move" name="top"/>
    </contour>
    <contour>
      <point x="36" y="99" type="curve"/>
      <point x="43" y="0" type="line"/>
      <point x="589" y="0" type="line"/>
      <point x="589" y="214" type="line"/>
      <point x="502" y="214" type="line"/>
      <point x="493" y="164" type="line"/>
      <point x="490" y="132"/>
      <point x="485" y="107"/>
      <point x="478" y="87" type="curve"/>
      <point x="460" y="80"/>
      <point x="440" y="78"/>
      <point x="419" y="78" type="curve" smooth="yes"/>
      <point x="186" y="78" type="line"/>
      <point x="297" y="243"/>
      <point x="461" y="443"/>
      <point x="584" y="584" type="curve"/>
      <point x="575" y="667" type="line"/>
      <point x="62" y="667" type="line"/>
      <point x="62" y="474" type="line"/>
      <point x="146" y="474" type="line"/>
      <point x="153" y="510" type="line"/>
      <point x="155" y="553"/>
      <point x="165" y="578"/>
      <point x="185" y="590" type="curve"/>
      <point x="409" y="590" type="line"/>
      <point x="291" y="453"/>
      <point x="140" y="253"/>
    </contour>
  </outline>
</glyph>
<glyph name="bracketleft" format="1">
  <advance width="306"/>
  <unicode hex="005B"/>
  <outline>
    <contour>
      <point x="186" y="631" type="line"/>
      <point x="281" y="631" type="line"/>
      <point x="281" y="707" type="line"/>
      <point x="54" y="707" type="line"/>
      <point x="54" y="639" type="line"/>
      <point x="54" y="-110" type="line"/>
      <point x="54" y="-183" type="line"/>
      <point x="281" y="-183" type="line"/>
      <point x="281" y="-102" type="line"/>
      <point x="186" y="-102" type="line"/>
    </contour>
  </outline>
</glyph>
<glyph name="backslash" format="1">
  <advance width="428"/>
  <unicode hex="005C"/>
  <outline>
    <contour>
      <point x="21" y="688" type="line"/>
      <point x="290" y="-9" type="line"/>
      <point x="403" y="-9" type="line"/>
      <point x="135" y="688" type="line"/>
    </contour>
  </outline>
</glyph>
<glyph name="bracketright" format="1">
  <advance width="305"/>
  <unicode hex="005D"/>
  <outline>
    <contour>
      <point x="251" y="651" type="line"/>
      <point x="251" y="712" type="line"/>
      <point x="24" y="712" type="line"/>
      <point x="24" y="631" type="line"/>
      <point x="119" y="631" type="line"/>
      <point x="119" y="-102" type="line"/>
      <point x="24" y="-102" type="line"/>
      <point x="24" y="-178" type="line"/>
      <point x="251" y="-178" type="line"/>
      <point x="251" y="-93" type="line"/>
    </contour>
  </outline>
</glyph>
<glyph name="asciicircum" format="1">
  <advance width="550"/>
  <unicode hex="005E"/>
  <outline>
    <contour>
      <point x="470" y="276" type="line"/>
      <point x="309" y="610" type="line"/>
      <point x="231" y="610" type="line"/>
      <point x="72" y="279" type="line"/>
      <point x="148" y="279" type="line"/>
      <point x="270" y="511" type="line"/>
      <point x="393" y="276" type="line"/>
    </contour>
  </outline>
</glyph>
<glyph name="underscore" format="1">
  <advance width="595"/>
  <unicode hex="005F"/>
  <outline>
    <contour>
      <point x="48" y="-38" type="line"/>
      <point x="48" y="-112" type="line"/>
      <point x="548" y="-112" type="line"/>
      <point x="548" y="-38" type="line"/>
    </contour>
  </outline>
</glyph>
<glyph name="a" format="1">
  <advance width="499"/>
  <unicode hex="0061"/>
  <outline>
    <contour>
      <point x="233" y="474" type="move" name="top"/>
    </contour>
    <contour>
      <point x="442" y="10" type="move" name="ogonek"/>
    </contour>
    <contour>
      <point x="318" y="74" type="curve"/>
      <point x="325" y="55"/>
      <point x="344" y="1"/>
      <point x="375" y="-5" type="curve"/>
      <point x="387" y="-5"/>
      <point x="394" y="-5"/>
      <point x="399" y="-5" type="curve" smooth="yes"/>
      <point x="413" y="-5"/>
      <point x="416" y="-4"/>
      <point x="470" y="0" type="curve"/>
      <point x="470" y="45" type="line"/>
      <point x="411" y="45"/>
      <point x="396" y="49"/>
      <point x="396" y="75" type="curve"/>
      <point x="396" y="75"/>
      <point x="396" y="288"/>
      <point x="396" y="319" type="curve" smooth="yes"/>
      <point x="396" y="461"/>
      <point x="301" y="475"/>
      <point x="238" y="475" type="curve" smooth="yes"/>
      <point x="166" y="472"/>
      <point x="126" y="465"/>
      <point x="60" y="432" type="curve"/>
      <point x="60" y="432"/>
      <point x="73" y="307"/>
      <point x="73" y="307" type="curve"/>
      <point x="128" y="307" type="line"/>
      <point x="128" y="307"/>
      <point x="143" y="413"/>
      <point x="143" y="413" type="curve"/>
      <point x="143" y="413"/>
      <point x="193" y="424"/>
      <point x="223" y="424" type="curve" smooth="yes"/>
      <point x="271" y="424"/>
      <point x="304" y="397"/>
      <point x="304" y="322" type="curve" smooth="yes"/>
      <point x="304" y="305"/>
      <point x="304" y="278"/>
      <point x="304" y="270" type="curve"/>
      <point x="207" y="251" type="line" smooth="yes"/>
      <point x="108" y="231"/>
      <point x="40" y="190"/>
      <point x="40" y="118" type="curve" smooth="yes"/>
      <point x="40" y="30"/>
      <point x="97" y="-13"/>
      <point x="178" y="-13" type="curve" smooth="yes"/>
      <point x="221" y="-13"/>
      <point x="284" y="16"/>
    </contour>
    <contour>
      <point x="233" y="213" type="curve" smooth="yes"/>
      <point x="304" y="232" type="line"/>
      <point x="304" y="224"/>
      <point x="304" y="194"/>
      <point x="304" y="185" type="curve" smooth="yes"/>
      <point x="304" y="126"/>
      <point x="285" y="43"/>
      <point x="197" y="43" type="curve" smooth="yes"/>
      <point x="159" y="43"/>
      <point x="129" y="76"/>
      <point x="129" y="113" type="curve" smooth="yes"/>
      <point x="129" y="175"/>
      <point x="193" y="201"/>
    </contour>
  </outline>
</glyph>
<glyph name="b" format="1">
  <advance width="554"/>
  <unicode hex="0062"/>
  <outline>
    <contour>
      <point x="191.0" y="0.0" type="move" name="bottom"/>
    </contour>
    <contour>
      <point x="336.0" y="474.0" type="move" name="topright"/>
    </contour>
    <contour>
      <point x="191.0" y="474.0" type="move" name="top"/>
    </contour>
    <contour>
      <point x="524" y="237" type="curve" smooth="yes"/>
      <point x="524" y="400"/>
      <point x="431" y="482"/>
      <point x="340" y="476" type="curve" smooth="yes"/>
      <point x="282" y="472"/>
      <point x="229" y="452"/>
      <point x="196" y="409" type="curve"/>
      <point x="196" y="682" type="line"/>
      <point x="129" y="677"/>
      <point x="87" y="673"/>
      <point x="24" y="671" type="curve"/>
      <point x="24" y="628" type="line"/>
      <point x="83" y="615"/>
      <point x="104" y="597"/>
      <point x="104" y="587" type="curve" smooth="yes"/>
      <point x="104" y="0" type="line"/>
      <point x="182" y="0" type="line"/>
      <point x="192" y="46" type="line"/>
      <point x="218" y="20"/>
      <point x="275" y="-11"/>
      <point x="326" y="-10" type="curve" smooth="yes"/>
      <point x="443" y="-8"/>
      <point x="524" y="90"/>
    </contour>
    <contour>
      <point x="299" y="48" type="curve" smooth="yes"/>
      <point x="260" y="48"/>
      <point x="212" y="72"/>
      <point x="196" y="96" type="curve"/>
      <point x="196" y="246" type="line" smooth="yes"/>
      <point x="196" y="308"/>
      <point x="205" y="361"/>
      <point x="208" y="372" type="curve"/>
      <point x="224" y="387"/>
      <point x="260" y="411"/>
      <point x="308" y="413" type="curve" smooth="yes"/>
      <point x="377" y="416"/>
      <point x="428" y="359"/>
      <point x="428" y="234" type="curve" smooth="yes"/>
      <point x="428" y="97"/>
      <point x="360" y="48"/>
    </contour>
  </outline>
</glyph>
<glyph name="c" format="1">
  <advance width="476"/>
  <unicode hex="0063"/>
  <outline>
    <contour>
      <point x="241" y="474" type="move" name="top"/>
    </contour>
    <contour>
      <point x="241" y="0" type="move" name="bottom"/>
    </contour>
    <contour>
      <point x="403" y="123" type="curve"/>
      <point x="371" y="77"/>
      <point x="320" y="50"/>
      <point x="270" y="50" type="curve" smooth="yes"/>
      <point x="198" y="50"/>
      <point x="132" y="98"/>
      <point x="132" y="233" type="curve" smooth="yes"/>
      <point x="132" y="371"/>
      <point x="197" y="418"/>
      <point x="274" y="418" type="curve" smooth="yes"/>
      <point x="313" y="418"/>
      <point x="339" y="403"/>
      <point x="345" y="396" type="curve"/>
      <point x="345" y="396"/>
      <point x="365" y="286"/>
      <point x="365" y="286" type="curve"/>
      <point x="365" y="286"/>
      <point x="413" y="286"/>
      <point x="413" y="286" type="curve"/>
      <point x="422" y="443" type="line"/>
      <point x="400" y="452"/>
      <point x="343" y="476"/>
      <point x="265" y="476" type="curve" smooth="yes"/>
      <point x="129" y="476"/>
      <point x="36" y="391"/>
      <point x="36" y="230" type="curve" smooth="yes"/>
      <point x="36" y="85"/>
      <point x="124" y="-5"/>
      <point x="248" y="-13" type="curve"/>
      <point x="249" y="-13"/>
      <point x="249" y="-13"/>
      <point x="250" y="-13" type="curve" smooth="yes"/>
      <point x="364" y="-12"/>
      <point x="415" y="46"/>
      <point x="440" y="83" type="curve"/>
      <point x="440" y="83"/>
      <point x="403" y="123"/>
    </contour>
  </outline>
</glyph>
<glyph name="d" format="1">
  <advance width="600"/>
  <unicode hex="0064"/>
  <outline>
    <contour>
      <point x="292" y="237" type="move" name="center"/>
    </contour>
    <contour>
      <point x="226" y="-13" type="curve" smooth="yes"/>
      <point x="290" y="-13"/>
      <point x="341" y="16"/>
      <point x="371" y="71" type="curve"/>
      <point x="371" y="0" type="line"/>
      <point x="572" y="0" type="line"/>
      <point x="572" y="53" type="line"/>
      <point x="530" y="58"/>
      <point x="489" y="77"/>
      <point x="489" y="81" type="curve" smooth="yes"/>
      <point x="489" y="574" type="line"/>
      <point x="489" y="683" type="line"/>
      <point x="413" y="675"/>
      <point x="340" y="673"/>
      <point x="277" y="671" type="curve"/>
      <point x="277" y="655"/>
      <point x="277" y="618"/>
      <point x="277" y="618" type="curve"/>
      <point x="327" y="604"/>
      <point x="357" y="587"/>
      <point x="357" y="575" type="curve" smooth="yes"/>
      <point x="357" y="430" type="line"/>
      <point x="347" y="442"/>
      <point x="291" y="474"/>
      <point x="244" y="474" type="curve" smooth="yes"/>
      <point x="125" y="474"/>
      <point x="32" y="392"/>
      <point x="32" y="219" type="curve" smooth="yes"/>
      <point x="32" y="63"/>
      <point x="119" y="-13"/>
    </contour>
    <contour>
      <point x="276" y="75" type="curve" smooth="yes"/>
      <point x="213" y="75"/>
      <point x="174" y="121"/>
      <point x="174" y="232" type="curve" smooth="yes"/>
      <point x="174" y="347"/>
      <point x="214" y="392"/>
      <point x="277" y="392" type="curve" smooth="yes"/>
      <point x="309" y="392"/>
      <point x="343" y="379"/>
      <point x="357" y="363" type="curve"/>
      <point x="357" y="363"/>
      <point x="357" y="258"/>
      <point x="357" y="201" type="curve" smooth="yes"/>
      <point x="357" y="126"/>
      <point x="333" y="75"/>
    </contour>
  </outline>
</glyph>
<glyph name="e" format="1">
  <advance width="487"/>
  <unicode hex="0065"/>
  <outline>
    <contour>
      <point x="238" y="474" type="move" name="top"/>
    </contour>
    <contour>
      <point x="238" y="0" type="move" name="bottom"/>
    </contour>
    <contour>
      <point x="444" y="10" type="move" name="ogonek"/>
    </contour>
    <contour>
      <point x="132" y="228" type="curve"/>
      <point x="445" y="228" type="line"/>
      <point x="447" y="240"/>
      <point x="447" y="252"/>
      <point x="447" y="263" type="curve" smooth="yes"/>
      <point x="447" y="370"/>
      <point x="396" y="476"/>
      <point x="252" y="476" type="curve" smooth="yes"/>
      <point x="127" y="476"/>
      <point x="36" y="381"/>
      <point x="36" y="229" type="curve" smooth="yes"/>
      <point x="36" y="79"/>
      <point x="132" y="-13"/>
      <point x="260" y="-13" type="curve" smooth="yes"/>
      <point x="354" y="-13"/>
      <point x="407" y="25"/>
      <point x="443" y="85" type="curve"/>
      <point x="443" y="85"/>
      <point x="397" y="125"/>
      <point x="397" y="125" type="curve"/>
      <point x="397" y="125"/>
      <point x="359" y="53"/>
      <point x="283" y="51" type="curve" smooth="yes"/>
      <point x="281" y="51"/>
      <point x="279" y="51"/>
      <point x="278" y="51" type="curve" smooth="yes"/>
      <point x="184" y="51"/>
      <point x="137" y="128"/>
    </contour>
    <contour>
      <point x="369" y="289" type="curve"/>
      <point x="135" y="272" type="line"/>
      <point x="142" y="379"/>
      <point x="213" y="424"/>
      <point x="262" y="424" type="curve" smooth="yes"/>
      <point x="318" y="424"/>
      <point x="359" y="387"/>
    </contour>
  </outline>
</glyph>
<glyph name="f" format="1">
  <advance width="429"/>
  <unicode hex="0066"/>
  <outline>
    <contour>
      <point x="39" y="60" type="curve"/>
      <point x="39" y="0" type="line"/>
      <point x="333" y="0" type="line"/>
      <point x="333" y="60" type="line"/>
      <point x="289" y="69"/>
      <point x="252" y="89"/>
      <point x="252" y="89" type="curve"/>
      <point x="252" y="392" type="line"/>
      <point x="372" y="392" type="line"/>
      <point x="372" y="462" type="line"/>
      <point x="252" y="462" type="line"/>
      <point x="248" y="492"/>
      <point x="246" y="517"/>
      <point x="246" y="538" type="curve" smooth="yes"/>
      <point x="246" y="622"/>
      <point x="276" y="641"/>
      <point x="301" y="641" type="curve" smooth="yes"/>
      <point x="330" y="641"/>
      <point x="340" y="605"/>
      <point x="353" y="568" type="curve"/>
      <point x="402" y="568" type="line"/>
      <point x="402" y="716" type="line"/>
      <point x="383" y="719"/>
      <point x="360" y="724"/>
      <point x="336" y="724" type="curve" smooth="yes"/>
      <point x="192" y="724"/>
      <point x="120" y="645"/>
      <point x="120" y="497" type="curve" smooth="yes"/>
      <point x="120" y="465" type="line"/>
      <point x="35" y="458" type="line"/>
      <point x="35" y="392" type="line"/>
      <point x="120" y="392" type="line"/>
      <point x="120" y="98" type="line" smooth="yes"/>
      <point x="120" y="97"/>
      <point x="118" y="86"/>
    </contour>
  </outline>
</glyph>
<glyph name="g" format="1">
  <advance width="532"/>
  <unicode hex="0067"/>
  <outline>
    <contour>
      <point x="248.0" y="474.0" type="move" name="top"/>
    </contour>
    <contour>
      <point x="354" y="304" type="curve" smooth="yes"/>
      <point x="354" y="237"/>
      <point x="317" y="191"/>
      <point x="257" y="191" type="curve" smooth="yes"/>
      <point x="195" y="191"/>
      <point x="152" y="239"/>
      <point x="152" y="310" type="curve" smooth="yes"/>
      <point x="152" y="381"/>
      <point x="197" y="430"/>
      <point x="251" y="430" type="curve" smooth="yes"/>
      <point x="302" y="430"/>
      <point x="354" y="402"/>
    </contour>
    <contour>
      <point x="230" y="-241" type="curve" smooth="yes"/>
      <point x="405" y="-248"/>
      <point x="485" y="-179"/>
      <point x="485" y="-77" type="curve" smooth="yes"/>
      <point x="485" y="97"/>
      <point x="133" y="42"/>
      <point x="133" y="106" type="curve" smooth="yes"/>
      <point x="133" y="124"/>
      <point x="166" y="142"/>
      <point x="189" y="148" type="curve"/>
      <point x="203" y="146"/>
      <point x="232" y="140"/>
      <point x="250" y="140" type="curve" smooth="yes"/>
      <point x="374" y="140"/>
      <point x="444" y="207"/>
      <point x="444" y="307" type="curve" smooth="yes"/>
      <point x="444" y="358"/>
      <point x="410" y="401"/>
      <point x="392" y="408" type="curve"/>
      <point x="502" y="403" type="line"/>
      <point x="502" y="464" type="line"/>
      <point x="350" y="453" type="line"/>
      <point x="325" y="462"/>
      <point x="285" y="475"/>
      <point x="252" y="475" type="curve" smooth="yes"/>
      <point x="134" y="475"/>
      <point x="61" y="411"/>
      <point x="61" y="310" type="curve" smooth="yes"/>
      <point x="61" y="244"/>
      <point x="99" y="202"/>
      <point x="139" y="182" type="curve"/>
      <point x="101" y="171"/>
      <point x="53" y="136"/>
      <point x="53" y="92" type="curve" smooth="yes"/>
      <point x="53" y="45"/>
      <point x="80" y="27"/>
      <point x="130" y="14" type="curve"/>
      <point x="130" y="14"/>
      <point x="60" y="-30"/>
      <point x="50" y="-38" type="curve"/>
      <point x="41" y="-52"/>
      <point x="34" y="-72"/>
      <point x="34" y="-91" type="curve" smooth="yes"/>
      <point x="34" y="-182"/>
      <point x="115" y="-236"/>
    </contour>
    <contour>
      <point x="258" y="-180" type="curve" smooth="yes"/>
      <point x="155" y="-180"/>
      <point x="117" y="-136"/>
      <point x="117" y="-81" type="curve" smooth="yes"/>
      <point x="117" y="-53"/>
      <point x="181" y="-1"/>
      <point x="192" y="-2" type="curve" smooth="yes"/>
      <point x="377" y="-24"/>
      <point x="396" y="-49"/>
      <point x="396" y="-90" type="curve" smooth="yes"/>
      <point x="396" y="-141"/>
      <point x="346" y="-180"/>
    </contour>
  </outline>
</glyph>
<glyph name="h" format="1">
  <advance width="612"/>
  <unicode hex="0068"/>
  <outline>
    <contour>
      <point x="35" y="0" type="line"/>
      <point x="275" y="0" type="line"/>
      <point x="275" y="46" type="line"/>
      <point x="237" y="55"/>
      <point x="207" y="70"/>
      <point x="207" y="70" type="curve"/>
      <point x="207" y="311" type="line"/>
      <point x="216" y="363"/>
      <point x="265" y="414"/>
      <point x="335" y="414" type="curve" smooth="yes"/>
      <point x="393" y="414"/>
      <point x="419" y="378"/>
      <point x="419" y="308" type="curve" smooth="yes"/>
      <point x="419" y="73" type="line" smooth="yes"/>
      <point x="419" y="72"/>
      <point x="414" y="59"/>
      <point x="348" y="45" type="curve"/>
      <point x="348" y="0" type="line"/>
      <point x="586" y="0" type="line"/>
      <point x="586" y="46" type="line"/>
      <point x="550" y="53"/>
      <point x="516" y="64"/>
      <point x="512" y="69" type="curve"/>
      <point x="512" y="70"/>
      <point x="511" y="71"/>
      <point x="511" y="71" type="curve"/>
      <point x="511" y="302" type="line" smooth="yes"/>
      <point x="511" y="425"/>
      <point x="436" y="476"/>
      <point x="358" y="476" type="curve" smooth="yes"/>
      <point x="301" y="476"/>
      <point x="247" y="457"/>
      <point x="207" y="402" type="curve"/>
      <point x="207" y="682" type="line"/>
      <point x="140" y="677"/>
      <point x="98" y="673"/>
      <point x="35" y="671" type="curve"/>
      <point x="35" y="628" type="line"/>
      <point x="94" y="615"/>
      <point x="115" y="598"/>
      <point x="115" y="588" type="curve" smooth="yes"/>
      <point x="115" y="71" type="line" smooth="yes"/>
      <point x="115" y="70"/>
      <point x="107" y="58"/>
      <point x="35" y="43" type="curve"/>
    </contour>
  </outline>
</glyph>
<glyph name="i" format="1">
  <advance width="321"/>
  <unicode hex="0069"/>
  <outline>
    <contour>
      <point x="232" y="620" type="curve" smooth="yes"/>
      <point x="232" y="653"/>
      <point x="209" y="678"/>
      <point x="174" y="678" type="curve" smooth="yes"/>
      <point x="139" y="678"/>
      <point x="117" y="653"/>
      <point x="117" y="620" type="curve" smooth="yes"/>
      <point x="117" y="587"/>
      <point x="141" y="561"/>
      <point x="176" y="561" type="curve" smooth="yes"/>
      <point x="211" y="561"/>
      <point x="232" y="587"/>
    </contour>
    <contour>
      <point x="37" y="43" type="curve"/>
      <point x="37" y="0" type="line"/>
      <point x="288" y="0" type="line"/>
      <point x="288" y="45" type="line"/>
      <point x="243" y="51"/>
      <point x="216" y="65"/>
      <point x="211" y="71" type="curve"/>
      <point x="211" y="382" type="line"/>
      <point x="213" y="471" type="line"/>
      <point x="158" y="466"/>
      <point x="48" y="460"/>
      <point x="39" y="460" type="curve"/>
      <point x="39" y="417" type="line"/>
      <point x="108" y="401"/>
      <point x="119" y="382"/>
      <point x="119" y="378" type="curve"/>
      <point x="119" y="378"/>
      <point x="119" y="149"/>
      <point x="119" y="72" type="curve"/>
      <point x="119" y="72"/>
      <point x="117" y="59"/>
    </contour>
  </outline>
</glyph>
<glyph name="j" format="1">
  <advance width="355"/>
  <unicode hex="006A"/>
  <outline>
    <contour>
      <point x="292" y="630" type="curve" smooth="yes"/>
      <point x="292" y="669"/>
      <point x="265" y="699"/>
      <point x="224" y="699" type="curve" smooth="yes"/>
      <point x="183" y="699"/>
      <point x="156" y="669"/>
      <point x="156" y="630" type="curve" smooth="yes"/>
      <point x="156" y="591"/>
      <point x="183" y="561"/>
      <point x="224" y="561" type="curve" smooth="yes"/>
      <point x="265" y="561"/>
      <point x="292" y="591"/>
    </contour>
    <contour>
      <point x="86" y="-244" type="curve" smooth="yes"/>
      <point x="247" y="-244"/>
      <point x="294" y="-143"/>
      <point x="294" y="-38" type="curve" smooth="yes"/>
      <point x="294" y="367" type="line"/>
      <point x="299" y="471" type="line"/>
      <point x="231" y="463"/>
      <point x="130" y="462"/>
      <point x="82" y="460" type="curve"/>
      <point x="82" y="407" type="line"/>
      <point x="162" y="379"/>
      <point x="162" y="374"/>
      <point x="162" y="309" type="curve" smooth="yes"/>
      <point x="162" y="-14" type="line" smooth="yes"/>
      <point x="162" y="-119"/>
      <point x="135" y="-150"/>
      <point x="65" y="-150" type="curve" smooth="yes"/>
      <point x="48" y="-150"/>
      <point x="29" y="-148"/>
      <point x="7" y="-145" type="curve"/>
      <point x="29" y="-239" type="line"/>
      <point x="43" y="-240"/>
      <point x="63" y="-244"/>
    </contour>
  </outline>
</glyph>
<glyph name="k" format="1">
  <advance width="641"/>
  <unicode hex="006B"/>
  <outline>
    <contour>
      <point x="301" y="0" type="move" name="bottom"/>
    </contour>
    <contour>
      <point x="35" y="0" type="line"/>
      <point x="316" y="0" type="line"/>
      <point x="316" y="55" type="line"/>
      <point x="272" y="64"/>
      <point x="248" y="84"/>
      <point x="248" y="84" type="curve"/>
      <point x="248" y="192" type="line"/>
      <point x="289" y="225" type="line"/>
      <point x="407" y="79" type="line"/>
      <point x="395" y="63"/>
      <point x="360" y="55"/>
      <point x="360" y="55" type="curve"/>
      <point x="360" y="0" type="line"/>
      <point x="613" y="0" type="line"/>
      <point x="613" y="55" type="line"/>
      <point x="584" y="60"/>
      <point x="550" y="73"/>
      <point x="543" y="81" type="curve"/>
      <point x="383" y="285" type="line"/>
      <point x="507" y="394" type="line"/>
      <point x="525" y="412"/>
      <point x="538" y="417"/>
      <point x="555" y="417" type="curve" smooth="yes"/>
      <point x="588" y="417" type="line"/>
      <point x="588" y="466" type="line"/>
      <point x="334" y="466" type="line"/>
      <point x="334" y="417" type="line"/>
      <point x="384" y="417" type="line" smooth="yes"/>
      <point x="391" y="417"/>
      <point x="400" y="413"/>
      <point x="400" y="403" type="curve" smooth="yes"/>
      <point x="400" y="395"/>
      <point x="396" y="383"/>
      <point x="351" y="344" type="curve"/>
      <point x="248" y="265" type="line"/>
      <point x="248" y="685" type="line"/>
      <point x="181" y="677"/>
      <point x="99" y="673"/>
      <point x="36" y="671" type="curve"/>
      <point x="36" y="618" type="line"/>
      <point x="72" y="606" type="line" smooth="yes"/>
      <point x="111" y="593"/>
      <point x="116" y="578"/>
      <point x="116" y="577" type="curve" smooth="yes"/>
      <point x="116" y="93" type="line" smooth="yes"/>
      <point x="116" y="92"/>
      <point x="114" y="81"/>
      <point x="35" y="55" type="curve"/>
    </contour>
  </outline>
</glyph>
<glyph name="l" format="1">
  <advance width="318"/>
  <unicode hex="006C"/>
  <outline>
    <contour>
      <point x="171" y="474" type="move" name="top"/>
    </contour>
    <contour>
      <point x="171" y="0" type="move" name="bottom"/>
    </contour>
    <contour>
      <point x="316" y="474" type="move" name="topright"/>
    </contour>
    <contour>
      <point x="34" y="43" type="curve"/>
      <point x="34" y="0" type="line"/>
      <point x="291" y="0" type="line"/>
      <point x="291" y="43" type="line"/>
      <point x="246" y="49"/>
      <point x="213" y="65"/>
      <point x="208" y="71" type="curve"/>
      <point x="208" y="682" type="line"/>
      <point x="141" y="677"/>
      <point x="99" y="673"/>
      <point x="36" y="671" type="curve"/>
      <point x="36" y="628" type="line"/>
      <point x="95" y="615"/>
      <point x="116" y="597"/>
      <point x="116" y="587" type="curve" smooth="yes"/>
      <point x="116" y="71" type="line"/>
      <point x="116" y="71"/>
      <point x="114" y="59"/>
    </contour>
  </outline>
</glyph>
<glyph name="m" format="1">
  <advance width="904"/>
  <unicode hex="006D"/>
  <outline>
    <contour>
      <point x="300.0" y="0.0" type="move" name="bottom"/>
    </contour>
    <contour>
      <point x="300.0" y="474.0" type="move" name="top"/>
    </contour>
    <contour>
      <point x="37" y="0" type="line"/>
      <point x="277" y="0" type="line"/>
      <point x="277" y="46" type="line"/>
      <point x="239" y="55"/>
      <point x="209" y="70"/>
      <point x="209" y="70" type="curve"/>
      <point x="209" y="311" type="line"/>
      <point x="218" y="363"/>
      <point x="262" y="414"/>
      <point x="332" y="414" type="curve" smooth="yes"/>
      <point x="390" y="414"/>
      <point x="416" y="378"/>
      <point x="416" y="308" type="curve" smooth="yes"/>
      <point x="416" y="73" type="line" smooth="yes"/>
      <point x="416" y="72"/>
      <point x="411" y="59"/>
      <point x="345" y="45" type="curve"/>
      <point x="345" y="0" type="line"/>
      <point x="583" y="0" type="line"/>
      <point x="583" y="46" type="line"/>
      <point x="547" y="53"/>
      <point x="513" y="64"/>
      <point x="509" y="69" type="curve"/>
      <point x="509" y="70"/>
      <point x="508" y="71"/>
      <point x="508" y="71" type="curve"/>
      <point x="508" y="302" type="line" smooth="yes"/>
      <point x="508" y="315"/>
      <point x="507" y="327"/>
      <point x="506" y="339" type="curve"/>
      <point x="524" y="380"/>
      <point x="568" y="414"/>
      <point x="625" y="414" type="curve" smooth="yes"/>
      <point x="683" y="414"/>
      <point x="709" y="378"/>
      <point x="709" y="308" type="curve" smooth="yes"/>
      <point x="709" y="73" type="line" smooth="yes"/>
      <point x="709" y="72"/>
      <point x="704" y="59"/>
      <point x="638" y="45" type="curve"/>
      <point x="638" y="0" type="line"/>
      <point x="876" y="0" type="line"/>
      <point x="876" y="46" type="line"/>
      <point x="840" y="53"/>
      <point x="806" y="64"/>
      <point x="802" y="69" type="curve"/>
      <point x="802" y="70"/>
      <point x="801" y="71"/>
      <point x="801" y="71" type="curve"/>
      <point x="801" y="302" type="line" smooth="yes"/>
      <point x="801" y="425"/>
      <point x="726" y="476"/>
      <point x="648" y="476" type="curve" smooth="yes"/>
      <point x="588" y="476"/>
      <point x="530" y="455"/>
      <point x="490" y="393" type="curve"/>
      <point x="464" y="451"/>
      <point x="410" y="476"/>
      <point x="355" y="476" type="curve" smooth="yes"/>
      <point x="292" y="476"/>
      <point x="236" y="453"/>
      <point x="196" y="382" type="curve"/>
      <point x="196" y="382"/>
      <point x="196" y="382"/>
      <point x="195" y="382" type="curve"/>
      <point x="195" y="471" type="line"/>
      <point x="151" y="465"/>
      <point x="56" y="460"/>
      <point x="37" y="460" type="curve"/>
      <point x="37" y="417" type="line"/>
      <point x="102" y="402"/>
      <point x="117" y="374"/>
      <point x="117" y="373" type="curve" smooth="yes"/>
      <point x="117" y="71" type="line" smooth="yes"/>
      <point x="117" y="70"/>
      <point x="109" y="58"/>
      <point x="37" y="43" type="curve"/>
    </contour>
  </outline>
</glyph>
<glyph name="n" format="1">
  <advance width="616"/>
  <unicode hex="006E"/>
  <outline>
    <contour>
      <point x="287" y="474" type="move" name="top"/>
    </contour>
    <contour>
      <point x="287" y="0" type="move" name="bottom"/>
    </contour>
    <contour>
      <point x="37" y="43" type="curve"/>
      <point x="37" y="0" type="line"/>
      <point x="277" y="0" type="line"/>
      <point x="277" y="46" type="line"/>
      <point x="239" y="55"/>
      <point x="209" y="70"/>
      <point x="209" y="70" type="curve"/>
      <point x="209" y="311" type="line"/>
      <point x="218" y="363"/>
      <point x="267" y="414"/>
      <point x="337" y="414" type="curve" smooth="yes"/>
      <point x="395" y="414"/>
      <point x="421" y="378"/>
      <point x="421" y="308" type="curve" smooth="yes"/>
      <point x="421" y="73" type="line" smooth="yes"/>
      <point x="421" y="72"/>
      <point x="416" y="59"/>
      <point x="350" y="45" type="curve"/>
      <point x="350" y="0" type="line"/>
      <point x="588" y="0" type="line"/>
      <point x="588" y="46" type="line"/>
      <point x="552" y="53"/>
      <point x="518" y="64"/>
      <point x="514" y="69" type="curve"/>
      <point x="514" y="70"/>
      <point x="513" y="71"/>
      <point x="513" y="71" type="curve"/>
      <point x="513" y="302" type="line" smooth="yes"/>
      <point x="513" y="425"/>
      <point x="438" y="476"/>
      <point x="360" y="476" type="curve" smooth="yes"/>
      <point x="297" y="476"/>
      <point x="236" y="453"/>
      <point x="196" y="382" type="curve"/>
      <point x="196" y="382"/>
      <point x="196" y="382"/>
      <point x="195" y="382" type="curve"/>
      <point x="195" y="471" type="line"/>
      <point x="151" y="465"/>
      <point x="56" y="460"/>
      <point x="37" y="460" type="curve"/>
      <point x="37" y="417" type="line"/>
      <point x="102" y="402"/>
      <point x="117" y="374"/>
      <point x="117" y="373" type="curve" smooth="yes"/>
      <point x="117" y="71" type="line" smooth="yes"/>
      <point x="117" y="70"/>
      <point x="109" y="58"/>
    </contour>
  </outline>
</glyph>
<glyph name="o" format="1">
  <advance width="517"/>
  <unicode hex="006F"/>
  <outline>
    <contour>
      <point x="254" y="474" type="move" name="top"/>
    </contour>
    <contour>
      <point x="482" y="226" type="curve" smooth="yes"/>
      <point x="482" y="369"/>
      <point x="393" y="476"/>
      <point x="263" y="476" type="curve" smooth="yes"/>
      <point x="127" y="476"/>
      <point x="36" y="384"/>
      <point x="36" y="236" type="curve" smooth="yes"/>
      <point x="36" y="94"/>
      <point x="126" y="-13"/>
      <point x="254" y="-13" type="curve" smooth="yes"/>
      <point x="388" y="-13"/>
      <point x="482" y="76"/>
    </contour>
    <contour>
      <point x="386" y="232" type="curve" smooth="yes"/>
      <point x="386" y="114"/>
      <point x="331" y="50"/>
      <point x="258" y="50" type="curve" smooth="yes"/>
      <point x="189" y="50"/>
      <point x="132" y="113"/>
      <point x="132" y="232" type="curve" smooth="yes"/>
      <point x="132" y="356"/>
      <point x="191" y="413"/>
      <point x="259" y="413" type="curve" smooth="yes"/>
      <point x="328" y="413"/>
      <point x="386" y="352"/>
    </contour>
  </outline>
</glyph>
<glyph name="p" format="1">
  <advance width="564"/>
  <unicode hex="0070"/>
  <outline>
    <contour>
      <point x="171" y="0" type="move" name="bottom"/>
    </contour>
    <contour>
      <point x="316" y="474" type="move" name="topright"/>
    </contour>
    <contour>
      <point x="171" y="474" type="move" name="top"/>
    </contour>
    <contour>
      <point x="311" y="50" type="curve" smooth="yes"/>
      <point x="234" y="50"/>
      <point x="200" y="103"/>
      <point x="200" y="182" type="curve"/>
      <point x="200" y="181"/>
      <point x="200" y="180"/>
      <point x="200" y="180" type="curve"/>
      <point x="200" y="180"/>
      <point x="200" y="224"/>
      <point x="200" y="231" type="curve" smooth="yes"/>
      <point x="200" y="278"/>
      <point x="205" y="337"/>
      <point x="207" y="353" type="curve"/>
      <point x="229" y="383"/>
      <point x="269" y="413"/>
      <point x="317" y="413" type="curve" smooth="yes"/>
      <point x="381" y="413"/>
      <point x="431" y="343"/>
      <point x="431" y="230" type="curve" smooth="yes"/>
      <point x="431" y="118"/>
      <point x="386" y="50"/>
    </contour>
    <contour>
      <point x="26" y="-211" type="line"/>
      <point x="283" y="-211" type="line"/>
      <point x="283" y="-168" type="line"/>
      <point x="238" y="-162"/>
      <point x="205" y="-144"/>
      <point x="200" y="-138" type="curve"/>
      <point x="200" y="59" type="line"/>
      <point x="230" y="5"/>
      <point x="287" y="-13"/>
      <point x="334" y="-13" type="curve" smooth="yes"/>
      <point x="336" y="-13"/>
      <point x="339" y="-13"/>
      <point x="341" y="-13" type="curve" smooth="yes"/>
      <point x="444" y="-9"/>
      <point x="527" y="73"/>
      <point x="527" y="235" type="curve" smooth="yes"/>
      <point x="527" y="392"/>
      <point x="439" y="476"/>
      <point x="339" y="476" type="curve" smooth="yes"/>
      <point x="276" y="476"/>
      <point x="237" y="453"/>
      <point x="200" y="405" type="curve"/>
      <point x="200" y="471" type="line"/>
      <point x="133" y="466"/>
      <point x="91" y="462"/>
      <point x="28" y="460" type="curve"/>
      <point x="28" y="417" type="line"/>
      <point x="87" y="404"/>
      <point x="108" y="386"/>
      <point x="108" y="376" type="curve" smooth="yes"/>
      <point x="108" y="-138" type="line"/>
      <point x="108" y="-138"/>
      <point x="106" y="-152"/>
      <point x="26" y="-168" type="curve"/>
    </contour>
  </outline>
</glyph>
<glyph name="q" format="1">
  <advance width="602"/>
  <unicode hex="0071"/>
  <outline>
    <contour>
      <point x="279" y="73" type="curve" smooth="yes"/>
      <point x="224" y="73"/>
      <point x="180" y="118"/>
      <point x="180" y="231" type="curve" smooth="yes"/>
      <point x="180" y="346"/>
      <point x="221" y="389"/>
      <point x="285" y="389" type="curve" smooth="yes"/>
      <point x="363" y="389"/>
      <point x="364" y="315"/>
      <point x="364" y="225" type="curve" smooth="yes"/>
      <point x="364" y="168"/>
      <point x="356" y="125"/>
      <point x="342" y="93" type="curve"/>
      <point x="327" y="80"/>
      <point x="303" y="73"/>
    </contour>
    <contour>
      <point x="272" y="-176" type="curve"/>
      <point x="272" y="-236" type="line"/>
      <point x="588" y="-236" type="line"/>
      <point x="588" y="-176" type="line"/>
      <point x="503" y="-155"/>
      <point x="495" y="-143"/>
      <point x="495" y="-122" type="curve" smooth="yes"/>
      <point x="495" y="299" type="line" smooth="yes"/>
      <point x="495" y="387"/>
      <point x="504" y="441"/>
      <point x="504" y="442" type="curve" smooth="yes"/>
      <point x="504" y="451" type="line"/>
      <point x="397" y="461" type="line"/>
      <point x="372" y="394" type="line"/>
      <point x="351" y="455"/>
      <point x="276" y="470"/>
      <point x="238" y="470" type="curve" smooth="yes"/>
      <point x="123" y="470"/>
      <point x="38" y="378"/>
      <point x="38" y="218" type="curve" smooth="yes"/>
      <point x="38" y="68"/>
      <point x="120" y="-13"/>
      <point x="230" y="-13" type="curve" smooth="yes"/>
      <point x="286" y="-13"/>
      <point x="333" y="10"/>
      <point x="362" y="48" type="curve"/>
      <point x="362" y="48"/>
      <point x="362" y="48"/>
      <point x="363" y="48" type="curve"/>
      <point x="363" y="-122" type="line" smooth="yes"/>
      <point x="363" y="-141"/>
      <point x="354" y="-155"/>
    </contour>
  </outline>
</glyph>
<glyph name="r" format="1">
  <advance width="473"/>
  <unicode hex="0072"/>
  <outline>
    <contour>
      <point x="229" y="474" type="move" name="top"/>
    </contour>
    <contour>
      <point x="229" y="0" type="move" name="bottom"/>
    </contour>
    <contour>
      <point x="79" y="64" type="curve" smooth="yes"/>
      <point x="36" y="60" type="line"/>
      <point x="36" y="0" type="line"/>
      <point x="360" y="0" type="line"/>
      <point x="360" y="60" type="line"/>
      <point x="297" y="64" type="line" smooth="yes"/>
      <point x="252" y="67"/>
      <point x="252" y="76"/>
      <point x="252" y="117" type="curve" smooth="yes"/>
      <point x="252" y="272" type="line"/>
      <point x="262" y="328"/>
      <point x="300" y="368"/>
      <point x="338" y="368" type="curve" smooth="yes"/>
      <point x="357" y="368"/>
      <point x="363" y="346"/>
      <point x="363" y="321" type="curve"/>
      <point x="436" y="321" type="line"/>
      <point x="446" y="467" type="line"/>
      <point x="423" y="474"/>
      <point x="403" y="475"/>
      <point x="380" y="475" type="curve" smooth="yes"/>
      <point x="319" y="472"/>
      <point x="276" y="442"/>
      <point x="236" y="359" type="curve"/>
      <point x="238" y="471" type="line"/>
      <point x="182" y="463"/>
      <point x="105" y="455"/>
      <point x="45" y="451" type="curve"/>
      <point x="45" y="410" type="line"/>
      <point x="77" y="396" type="line"/>
      <point x="104" y="387"/>
      <point x="113" y="373"/>
      <point x="120" y="330" type="curve"/>
      <point x="120" y="117" type="line" smooth="yes"/>
      <point x="120" y="79"/>
      <point x="122" y="68"/>
    </contour>
  </outline>
</glyph>
<glyph name="s" format="1">
  <advance width="454"/>
  <unicode hex="0073"/>
  <outline>
    <contour>
      <point x="228" y="474" type="move" name="top"/>
    </contour>
    <contour>
      <point x="228" y="0" type="move" name="bottom"/>
    </contour>
    <contour>
      <point x="414" y="142" type="curve" smooth="yes"/>
      <point x="414" y="242"/>
      <point x="325" y="264"/>
      <point x="226" y="304" type="curve" smooth="yes"/>
      <point x="194" y="317"/>
      <point x="175" y="336"/>
      <point x="175" y="364" type="curve" smooth="yes"/>
      <point x="175" y="392"/>
      <point x="203" y="408"/>
      <point x="235" y="408" type="curve" smooth="yes"/>
      <point x="269" y="408"/>
      <point x="308" y="389"/>
      <point x="313" y="318" type="curve"/>
      <point x="313" y="318"/>
      <point x="378" y="318"/>
      <point x="378" y="318" type="curve"/>
      <point x="394" y="444" type="line"/>
      <point x="365" y="457"/>
      <point x="307" y="476"/>
      <point x="244" y="476" type="curve" smooth="yes"/>
      <point x="135" y="476"/>
      <point x="44" y="421"/>
      <point x="44" y="333" type="curve" smooth="yes"/>
      <point x="44" y="250"/>
      <point x="112" y="213"/>
      <point x="198" y="182" type="curve" smooth="yes"/>
      <point x="262" y="158"/>
      <point x="282" y="140"/>
      <point x="282" y="108" type="curve" smooth="yes"/>
      <point x="282" y="76"/>
      <point x="249" y="56"/>
      <point x="209" y="56" type="curve" smooth="yes"/>
      <point x="162" y="56"/>
      <point x="124" y="87"/>
      <point x="124" y="145" type="curve"/>
      <point x="124" y="145"/>
      <point x="59" y="145"/>
      <point x="59" y="145" type="curve"/>
      <point x="43" y="19" type="line"/>
      <point x="75" y="4"/>
      <point x="144" y="-13"/>
      <point x="210" y="-13" type="curve" smooth="yes"/>
      <point x="321" y="-13"/>
      <point x="414" y="42"/>
    </contour>
  </outline>
</glyph>
<glyph name="u" format="1">
  <advance width="603"/>
  <unicode hex="0075"/>
  <outline>
    <contour>
      <point x="296" y="474" type="move" name="top"/>
    </contour>
    <contour>
      <point x="547" y="10" type="move" name="ogonek"/>
    </contour>
    <contour>
      <point x="418" y="81" type="curve"/>
      <point x="418" y="0" type="line"/>
      <point x="573" y="0" type="line"/>
      <point x="573" y="45" type="line"/>
      <point x="538" y="50"/>
      <point x="496" y="69"/>
      <point x="496" y="71" type="curve" smooth="yes"/>
      <point x="496" y="471" type="line"/>
      <point x="429" y="467"/>
      <point x="389" y="460"/>
      <point x="324" y="460" type="curve"/>
      <point x="324" y="417" type="line"/>
      <point x="376" y="406"/>
      <point x="404" y="385"/>
      <point x="404" y="379" type="curve" smooth="yes"/>
      <point x="404" y="164" type="line" smooth="yes"/>
      <point x="404" y="111"/>
      <point x="335" y="49"/>
      <point x="273" y="49" type="curve" smooth="yes"/>
      <point x="221" y="49"/>
      <point x="197" y="87"/>
      <point x="197" y="142" type="curve" smooth="yes"/>
      <point x="197" y="374" type="line"/>
      <point x="200" y="471" type="line"/>
      <point x="133" y="463"/>
      <point x="30" y="460"/>
      <point x="25" y="460" type="curve"/>
      <point x="25" y="417" type="line"/>
      <point x="57" y="411"/>
      <point x="105" y="392"/>
      <point x="105" y="377" type="curve" smooth="yes"/>
      <point x="105" y="141" type="line" smooth="yes"/>
      <point x="105" y="32"/>
      <point x="176" y="-12"/>
      <point x="247" y="-12" type="curve" smooth="yes"/>
      <point x="318" y="-12"/>
      <point x="387" y="27"/>
      <point x="417" y="81" type="curve"/>
      <point x="417" y="81"/>
      <point x="417" y="81"/>
    </contour>
  </outline>
</glyph>
<glyph name="v" format="1">
  <advance width="586"/>
  <unicode hex="0076"/>
  <outline>
    <contour>
      <point x="531" y="399" type="curve"/>
      <point x="563" y="401" type="line"/>
      <point x="563" y="465" type="line"/>
      <point x="348" y="465" type="line"/>
      <point x="348" y="401" type="line"/>
      <point x="388" y="401"/>
      <point x="403" y="393"/>
      <point x="403" y="382" type="curve" smooth="yes"/>
      <point x="403" y="379"/>
      <point x="402" y="375"/>
      <point x="400" y="372" type="curve"/>
      <point x="314" y="120" type="line"/>
      <point x="314" y="120"/>
      <point x="314" y="120"/>
      <point x="313" y="120" type="curve"/>
      <point x="224" y="363" type="line" smooth="yes"/>
      <point x="222" y="369"/>
      <point x="220" y="373"/>
      <point x="220" y="377" type="curve" smooth="yes"/>
      <point x="220" y="386"/>
      <point x="229" y="392"/>
      <point x="266" y="404" type="curve"/>
      <point x="266" y="465" type="line"/>
      <point x="20" y="465" type="line"/>
      <point x="20" y="400" type="line"/>
      <point x="51" y="398" type="line"/>
      <point x="80" y="394"/>
      <point x="79" y="380"/>
      <point x="91" y="357" type="curve"/>
      <point x="241" y="-3" type="line"/>
      <point x="344" y="-3" type="line"/>
      <point x="492" y="361" type="line" smooth="yes"/>
      <point x="501" y="382"/>
      <point x="505" y="399"/>
    </contour>
  </outline>
</glyph>
<glyph name="w" format="1">
  <advance width="862"/>
  <unicode hex="0077"/>
  <outline>
    <contour>
      <point x="416" y="474" type="move" name="top"/>
    </contour>
    <contour>
      <point x="806" y="399" type="curve"/>
      <point x="838" y="401" type="line"/>
      <point x="838" y="462" type="line"/>
      <point x="615" y="462" type="line"/>
      <point x="615" y="401" type="line"/>
      <point x="655" y="399" type="line" smooth="yes"/>
      <point x="672" y="398"/>
      <point x="680" y="396"/>
      <point x="685" y="388" type="curve"/>
      <point x="683" y="377"/>
      <point x="679" y="367"/>
      <point x="675" y="354" type="curve" smooth="yes"/>
      <point x="619" y="134" type="line"/>
      <point x="619" y="134"/>
      <point x="619" y="134"/>
      <point x="618" y="134" type="curve"/>
      <point x="515" y="464" type="line"/>
      <point x="515" y="464"/>
      <point x="380" y="464"/>
      <point x="380" y="464" type="curve"/>
      <point x="380" y="464"/>
      <point x="277" y="134"/>
      <point x="277" y="134" type="curve"/>
      <point x="226" y="349" type="line" smooth="yes"/>
      <point x="223" y="361"/>
      <point x="219" y="371"/>
      <point x="218" y="381" type="curve"/>
      <point x="219" y="389"/>
      <point x="224" y="397"/>
      <point x="233" y="398" type="curve" smooth="yes"/>
      <point x="268" y="402" type="line"/>
      <point x="268" y="464" type="line"/>
      <point x="22" y="464" type="line"/>
      <point x="22" y="399" type="line"/>
      <point x="52" y="398" type="line" smooth="yes"/>
      <point x="65" y="397"/>
      <point x="74" y="394"/>
      <point x="81" y="382" type="curve"/>
      <point x="196" y="-3" type="line"/>
      <point x="303" y="-3" type="line"/>
      <point x="431" y="373" type="line"/>
      <point x="432" y="373"/>
      <point x="432" y="373"/>
      <point x="432" y="373" type="curve"/>
      <point x="553" y="-3" type="line"/>
      <point x="658" y="-3" type="line"/>
      <point x="765" y="349" type="line" smooth="yes"/>
      <point x="775" y="379"/>
      <point x="777" y="399"/>
    </contour>
  </outline>
</glyph>
<glyph name="x" format="1">
  <advance width="591"/>
  <unicode hex="0078"/>
  <outline>
    <contour>
      <point x="312" y="42" type="curve"/>
      <point x="309" y="0" type="line"/>
      <point x="557" y="0" type="line"/>
      <point x="556" y="58" type="line"/>
      <point x="529" y="63"/>
      <point x="511" y="69"/>
      <point x="491" y="94" type="curve" smooth="yes"/>
      <point x="372" y="243" type="line"/>
      <point x="480" y="366" type="line" smooth="yes"/>
      <point x="495" y="384"/>
      <point x="505" y="392"/>
      <point x="520" y="396" type="curve" smooth="yes"/>
      <point x="546" y="402" type="line"/>
      <point x="546" y="462" type="line"/>
      <point x="350" y="462" type="line"/>
      <point x="350" y="402" type="line"/>
      <point x="376" y="398" type="line"/>
      <point x="388" y="397"/>
      <point x="394" y="395"/>
      <point x="397" y="388" type="curve"/>
      <point x="385" y="373"/>
      <point x="371" y="356"/>
      <point x="324" y="297" type="curve"/>
      <point x="279" y="361"/>
      <point x="267" y="377"/>
      <point x="257" y="394" type="curve"/>
      <point x="258" y="404"/>
      <point x="263" y="410"/>
      <point x="272" y="414" type="curve"/>
      <point x="284" y="427" type="line"/>
      <point x="287" y="464" type="line"/>
      <point x="48" y="464" type="line"/>
      <point x="48" y="399" type="line"/>
      <point x="64" y="398" type="line" smooth="yes"/>
      <point x="86" y="396"/>
      <point x="94" y="389"/>
      <point x="109" y="370" type="curve" smooth="yes"/>
      <point x="215" y="237" type="line"/>
      <point x="97" y="94" type="line" smooth="yes"/>
      <point x="74" y="64"/>
      <point x="61" y="62"/>
      <point x="34" y="58" type="curve"/>
      <point x="33" y="0" type="line"/>
      <point x="235" y="0" type="line"/>
      <point x="235" y="58" type="line"/>
      <point x="208" y="61" type="line" smooth="yes"/>
      <point x="195" y="62"/>
      <point x="188" y="68"/>
      <point x="184" y="73" type="curve"/>
      <point x="197" y="91"/>
      <point x="211" y="113"/>
      <point x="264" y="182" type="curve"/>
      <point x="313" y="113"/>
      <point x="328" y="90"/>
      <point x="340" y="70" type="curve"/>
      <point x="339" y="55"/>
      <point x="329" y="48"/>
    </contour>
  </outline>
</glyph>
<glyph name="y" format="1">
  <advance width="639"/>
  <unicode hex="0079"/>
  <outline>
    <contour>
      <point x="272" y="474" type="move" name="top"/>
    </contour>
    <contour>
      <point x="418" y="84" type="curve" smooth="yes"/>
      <point x="543" y="355" type="line"/>
      <point x="555" y="377"/>
      <point x="556" y="399"/>
      <point x="583" y="400" type="curve" smooth="yes"/>
      <point x="616" y="402" type="line"/>
      <point x="616" y="462" type="line"/>
      <point x="373" y="462" type="line"/>
      <point x="373" y="401" type="line"/>
      <point x="411" y="399" type="line" smooth="yes"/>
      <point x="426" y="398"/>
      <point x="436" y="398"/>
      <point x="442" y="389" type="curve"/>
      <point x="440" y="380"/>
      <point x="436" y="370"/>
      <point x="432" y="358" type="curve"/>
      <point x="334" y="117" type="line"/>
      <point x="250" y="349" type="line" smooth="yes"/>
      <point x="246" y="361"/>
      <point x="240" y="374"/>
      <point x="240" y="387" type="curve" smooth="yes"/>
      <point x="240" y="400"/>
      <point x="263" y="400"/>
      <point x="299" y="400" type="curve"/>
      <point x="299" y="465" type="line"/>
      <point x="20" y="465" type="line"/>
      <point x="20" y="400" type="line"/>
      <point x="66" y="398" type="line"/>
      <point x="97" y="395"/>
      <point x="98" y="380"/>
      <point x="113" y="345" type="curve" smooth="yes"/>
      <point x="247" y="6" type="line"/>
      <point x="253" y="-10" type="line"/>
      <point x="253" y="-10"/>
      <point x="189" y="-153"/>
      <point x="189" y="-153" type="curve"/>
      <point x="112" y="-168" type="line"/>
      <point x="112" y="-236" type="line"/>
      <point x="398" y="-236" type="line"/>
      <point x="398" y="-168" type="line"/>
      <point x="315" y="-153" type="line"/>
      <point x="315" y="-153"/>
      <point x="377" y="-13"/>
    </contour>
  </outline>
</glyph>
<glyph name="braceleft" format="1">
  <advance width="342"/>
  <unicode hex="007B"/>
  <outline>
    <contour>
      <point x="25" y="710" type="curve"/>
      <point x="25" y="657" type="line"/>
      <point x="85" y="653"/>
      <point x="114" y="626"/>
      <point x="114" y="561" type="curve" smooth="yes"/>
      <point x="114" y="503"/>
      <point x="100" y="429"/>
      <point x="100" y="372" type="curve"/>
      <point x="104" y="316"/>
      <point x="135" y="276"/>
      <point x="224" y="268" type="curve"/>
      <point x="224" y="261" type="line"/>
      <point x="135" y="252"/>
      <point x="100" y="210"/>
      <point x="100" y="155" type="curve" smooth="yes"/>
      <point x="100" y="94"/>
      <point x="114" y="27"/>
      <point x="114" y="-32" type="curve" smooth="yes"/>
      <point x="114" y="-96"/>
      <point x="72" y="-125"/>
      <point x="25" y="-128" type="curve"/>
      <point x="25" y="-181" type="line"/>
      <point x="25" y="-181"/>
      <point x="49" y="-181"/>
      <point x="61" y="-181" type="curve" smooth="yes"/>
      <point x="175" y="-181"/>
      <point x="244" y="-147"/>
      <point x="244" y="-30" type="curve" smooth="yes"/>
      <point x="244" y="37"/>
      <point x="235" y="124"/>
      <point x="235" y="176" type="curve" smooth="yes"/>
      <point x="235" y="220"/>
      <point x="260" y="235"/>
      <point x="314" y="240" type="curve"/>
      <point x="314" y="240"/>
      <point x="314" y="296"/>
      <point x="314" y="296" type="curve"/>
      <point x="254" y="307"/>
      <point x="228" y="327"/>
      <point x="228" y="376" type="curve" smooth="yes"/>
      <point x="228" y="423"/>
      <point x="244" y="500"/>
      <point x="244" y="559" type="curve" smooth="yes"/>
      <point x="244" y="671"/>
      <point x="184" y="710"/>
      <point x="59" y="710" type="curve" smooth="yes"/>
      <point x="48" y="710"/>
      <point x="25" y="710"/>
    </contour>
  </outline>
</glyph>
<glyph name="bar" format="1">
  <advance width="219"/>
  <unicode hex="007C"/>
  <outline>
    <contour>
      <point x="54" y="728" type="line"/>
      <point x="54" y="-254" type="line"/>
      <point x="165" y="-254" type="line"/>
      <point x="165" y="728" type="line"/>
    </contour>
  </outline>
</glyph>
<glyph name="yen" format="1">
  <advance width="693"/>
  <unicode hex="00A5"/>
  <outline>
    <contour>
      <point x="180" y="64" type="line"/>
      <point x="180" y="0" type="line"/>
      <point x="523" y="0" type="line"/>
      <point x="523" y="64" type="line"/>
      <point x="464" y="68" type="line" smooth="yes"/>
      <point x="425" y="71"/>
      <point x="420" y="71"/>
      <point x="420" y="113" type="curve" smooth="yes"/>
      <point x="420" y="143" type="line"/>
      <point x="537" y="143" type="line"/>
      <point x="537" y="203" type="line"/>
      <point x="162" y="202" type="line"/>
      <point x="162" y="142" type="line"/>
      <point x="278" y="142" type="line"/>
      <point x="278" y="113" type="line" smooth="yes"/>
      <point x="278" y="71"/>
      <point x="273" y="71"/>
      <point x="234" y="68" type="curve" smooth="yes"/>
    </contour>
    <contour>
      <point x="162" y="315" type="line"/>
      <point x="162" y="254" type="line"/>
      <point x="537" y="255" type="line"/>
      <point x="537" y="315" type="line"/>
      <point x="456" y="315" type="line"/>
      <point x="498" y="398"/>
      <point x="549" y="487"/>
      <point x="592" y="562" type="curve"/>
      <point x="611" y="600"/>
      <point x="631" y="597"/>
      <point x="669" y="602" type="curve"/>
      <point x="671" y="667" type="line"/>
      <point x="414" y="667" type="line"/>
      <point x="414" y="602" type="line"/>
      <point x="468" y="598" type="line" smooth="yes"/>
      <point x="485" y="597"/>
      <point x="493" y="594"/>
      <point x="499" y="587" type="curve"/>
      <point x="495" y="577"/>
      <point x="490" y="565"/>
      <point x="484" y="552" type="curve" smooth="yes"/>
      <point x="440" y="467" type="line" smooth="yes"/>
      <point x="417" y="423"/>
      <point x="396" y="377"/>
      <point x="376" y="333" type="curve"/>
      <point x="355" y="377"/>
      <point x="334" y="422"/>
      <point x="311" y="466" type="curve" smooth="yes"/>
      <point x="266" y="551" type="line" smooth="yes"/>
      <point x="260" y="562"/>
      <point x="253" y="574"/>
      <point x="250" y="587" type="curve"/>
      <point x="265" y="601"/>
      <point x="302" y="599"/>
      <point x="332" y="602" type="curve"/>
      <point x="335" y="667" type="line"/>
      <point x="25" y="667" type="line"/>
      <point x="22" y="602" type="line"/>
      <point x="42" y="599"/>
      <point x="61" y="598"/>
      <point x="78" y="590" type="curve"/>
      <point x="124" y="532"/>
      <point x="190" y="410"/>
      <point x="239" y="315" type="curve"/>
    </contour>
  </outline>
</glyph>
<glyph name="ordfeminine" format="1">
  <advance width="403"/>
  <unicode hex="00AA"/>
  <outline>
    <contour>
      <point x="361" y="399" type="curve"/>
      <point x="363" y="434" type="line"/>
      <point x="355" y="434"/>
      <point x="348" y="433"/>
      <point x="342" y="433" type="curve" smooth="yes"/>
      <point x="324" y="433"/>
      <point x="317" y="443"/>
      <point x="317" y="462" type="curve" smooth="yes"/>
      <point x="317" y="489"/>
      <point x="320" y="569"/>
      <point x="320" y="587" type="curve" smooth="yes"/>
      <point x="320" y="646"/>
      <point x="296" y="682"/>
      <point x="198" y="682" type="curve" smooth="yes"/>
      <point x="143" y="682"/>
      <point x="104" y="669"/>
      <point x="74" y="645" type="curve"/>
      <point x="70" y="630"/>
      <point x="69" y="614"/>
      <point x="69" y="598" type="curve" smooth="yes"/>
      <point x="69" y="593"/>
      <point x="69" y="589"/>
      <point x="69" y="584" type="curve"/>
      <point x="133" y="580" type="line"/>
      <point x="136" y="598"/>
      <point x="144" y="638"/>
      <point x="179" y="638" type="curve" smooth="yes"/>
      <point x="221" y="638"/>
      <point x="231" y="616"/>
      <point x="231" y="575" type="curve" smooth="yes"/>
      <point x="231" y="566"/>
      <point x="231" y="557"/>
      <point x="231" y="553" type="curve"/>
      <point x="180" y="552" type="line" smooth="yes"/>
      <point x="105" y="550"/>
      <point x="39" y="539"/>
      <point x="39" y="468" type="curve" smooth="yes"/>
      <point x="39" y="423"/>
      <point x="71" y="395"/>
      <point x="117" y="391" type="curve"/>
      <point x="163" y="397"/>
      <point x="207" y="402"/>
      <point x="238" y="440" type="curve"/>
      <point x="245" y="429"/>
      <point x="256" y="400"/>
      <point x="273" y="395" type="curve"/>
      <point x="300" y="395"/>
      <point x="335" y="397"/>
    </contour>
    <contour>
      <point x="196" y="444" type="curve"/>
      <point x="196" y="444"/>
      <point x="181" y="439"/>
      <point x="173" y="437" type="curve"/>
      <point x="151" y="438"/>
      <point x="134" y="450"/>
      <point x="134" y="477" type="curve" smooth="yes"/>
      <point x="134" y="508"/>
      <point x="161" y="517"/>
      <point x="190" y="519" type="curve" smooth="yes"/>
      <point x="231" y="522" type="line"/>
      <point x="231" y="490"/>
      <point x="225" y="451"/>
    </contour>
  </outline>
</glyph>
<glyph name="guillemotleft" format="1">
  <advance width="502"/>
  <unicode hex="00AB"/>
  <outline>
    <contour>
      <point x="232" y="227" type="line"/>
      <point x="390" y="6" type="line"/>
      <point x="464" y="8" type="line"/>
      <point x="358" y="235" type="line"/>
      <point x="464" y="447" type="line"/>
      <point x="390" y="447" type="line"/>
      <point x="241" y="256" type="line"/>
    </contour>
    <contour>
      <point x="26" y="227" type="line"/>
      <point x="184" y="6" type="line"/>
      <point x="258" y="6" type="line"/>
      <point x="152" y="235" type="line"/>
      <point x="258" y="447" type="line"/>
      <point x="184" y="447" type="line"/>
      <point x="35" y="256" type="line"/>
    </contour>
  </outline>
</glyph>
<glyph name="logicalnot" format="1">
  <advance width="551"/>
  <unicode hex="00AC"/>
  <outline>
    <contour>
      <point x="400" y="277" type="line"/>
      <point x="400" y="109" type="line"/>
      <point x="502" y="109" type="line"/>
      <point x="502" y="378" type="line"/>
      <point x="28" y="378" type="line"/>
      <point x="28" y="277" type="line"/>
    </contour>
  </outline>
</glyph>
<glyph name="degree" format="1">
  <advance width="358"/>
  <unicode hex="00B0"/>
  <outline>
    <contour>
      <point x="320" y="551" type="curve" smooth="yes"/>
      <point x="320" y="629"/>
      <point x="259" y="687"/>
      <point x="181" y="687" type="curve" smooth="yes"/>
      <point x="100" y="687"/>
      <point x="37" y="628"/>
      <point x="37" y="546" type="curve" smooth="yes"/>
      <point x="37" y="468"/>
      <point x="100" y="411"/>
      <point x="176" y="411" type="curve" smooth="yes"/>
      <point x="255" y="411"/>
      <point x="320" y="468"/>
    </contour>
    <contour>
      <point x="243" y="550" type="curve" smooth="yes"/>
      <point x="243" y="510"/>
      <point x="217" y="481"/>
      <point x="178" y="481" type="curve" smooth="yes"/>
      <point x="142" y="481"/>
      <point x="113" y="509"/>
      <point x="113" y="550" type="curve" smooth="yes"/>
      <point x="113" y="592"/>
      <point x="143" y="619"/>
      <point x="179" y="619" type="curve" smooth="yes"/>
      <point x="215" y="619"/>
      <point x="243" y="592"/>
    </contour>
  </outline>
</glyph>
<glyph name="plusminus" format="1">
  <advance width="520"/>
  <unicode hex="00B1"/>
  <outline>
    <contour>
      <point x="309" y="129" type="line"/>
      <point x="309" y="261" type="line"/>
      <point x="480" y="261" type="line"/>
      <point x="480" y="356" type="line"/>
      <point x="309" y="356" type="line"/>
      <point x="309" y="488" type="line"/>
      <point x="210" y="488" type="line"/>
      <point x="210" y="356" type="line"/>
      <point x="40" y="356" type="line"/>
      <point x="40" y="261" type="line"/>
      <point x="210" y="261" type="line"/>
      <point x="210" y="129" type="line"/>
    </contour>
    <contour>
      <point x="40" y="96" type="line"/>
      <point x="40" y="0" type="line"/>
      <point x="480" y="0" type="line"/>
      <point x="480" y="96" type="line"/>
    </contour>
  </outline>
</glyph>
<glyph name="acute" format="1">
  <advance width="389"/>
  <unicode hex="00B4"/>
  <outline>
    <contour>
      <point x="243.5" y="474" type="move" name="_top"/>
    </contour>
    <contour>
      <point x="357" y="717" type="line"/>
      <point x="205" y="717" type="line"/>
      <point x="130" y="532" type="line"/>
      <point x="202" y="532" type="line"/>
    </contour>
  </outline>
</glyph>
<glyph name="periodcentered" format="1">
  <advance width="227"/>
  <unicode hex="00B7"/>
  <outline>
    <contour>
      <point x="186" y="252" type="curve" smooth="yes"/>
      <point x="186" y="291"/>
      <point x="154" y="324"/>
      <point x="114" y="324" type="curve" smooth="yes"/>
      <point x="75" y="324"/>
      <point x="42" y="291"/>
      <point x="42" y="252" type="curve" smooth="yes"/>
      <point x="42" y="212"/>
      <point x="75" y="181"/>
      <point x="114" y="181" type="curve" smooth="yes"/>
      <point x="154" y="181"/>
      <point x="186" y="212"/>
    </contour>
  </outline>
</glyph>
<glyph name="cedilla" format="1">
  <advance width="389"/>
  <unicode hex="00B8"/>
  <outline>
    <contour>
      <point x="202.5" y="0" type="move" name="_bottom"/>
    </contour>
    <contour>
      <point x="269" y="-100" type="curve"/>
      <point x="260" y="-100"/>
      <point x="255" y="-101"/>
      <point x="249" y="-103" type="curve"/>
      <point x="248" y="-92"/>
      <point x="245" y="-83"/>
      <point x="240" y="-75" type="curve"/>
      <point x="238" y="-53"/>
      <point x="231" y="-35"/>
      <point x="223" y="-19" type="curve"/>
      <point x="206" y="-16"/>
      <point x="188" y="-15"/>
      <point x="171" y="-15" type="curve"/>
      <point x="144" y="-88" type="line"/>
      <point x="171" y="-102"/>
      <point x="216" y="-111"/>
      <point x="216" y="-140" type="curve" smooth="yes"/>
      <point x="216" y="-159"/>
      <point x="205" y="-173"/>
      <point x="177" y="-173" type="curve"/>
      <point x="154" y="-171"/>
      <point x="130" y="-164"/>
      <point x="116" y="-157" type="curve"/>
      <point x="99" y="-206" type="line"/>
      <point x="115" y="-215"/>
      <point x="153" y="-228"/>
      <point x="188" y="-228" type="curve" smooth="yes"/>
      <point x="246" y="-228"/>
      <point x="306" y="-198"/>
      <point x="306" y="-147" type="curve" smooth="yes"/>
      <point x="306" y="-122"/>
      <point x="291" y="-105"/>
    </contour>
  </outline>
</glyph>
<glyph name="questiondown" format="1">
  <advance width="402"/>
  <unicode hex="00BF"/>
  <outline>
    <contour>
      <point x="24" y="-49" type="curve" smooth="yes"/>
      <point x="24" y="-156"/>
      <point x="102" y="-220"/>
      <point x="220" y="-220" type="curve" smooth="yes"/>
      <point x="312" y="-220"/>
      <point x="368" y="-187"/>
      <point x="384" y="-131" type="curve"/>
      <point x="379" y="-50" type="line"/>
      <point x="344" y="-60"/>
      <point x="285" y="-56"/>
      <point x="269" y="-84" type="curve"/>
      <point x="263" y="-114"/>
      <point x="247" y="-128"/>
      <point x="222" y="-128" type="curve" smooth="yes"/>
      <point x="184" y="-128"/>
      <point x="155" y="-102"/>
      <point x="155" y="-44" type="curve" smooth="yes"/>
      <point x="155" y="64"/>
      <point x="267" y="97"/>
      <point x="316" y="149" type="curve"/>
      <point x="276" y="276" type="line"/>
      <point x="199" y="276" type="line"/>
      <point x="199" y="197" type="line"/>
      <point x="154" y="136"/>
      <point x="24" y="79"/>
    </contour>
    <contour>
      <point x="156" y="397" type="curve" smooth="yes"/>
      <point x="156" y="352"/>
      <point x="184" y="318"/>
      <point x="231" y="318" type="curve" smooth="yes"/>
      <point x="278" y="318"/>
      <point x="307" y="352"/>
      <point x="307" y="397" type="curve" smooth="yes"/>
      <point x="307" y="442"/>
      <point x="278" y="475"/>
      <point x="231" y="475" type="curve" smooth="yes"/>
      <point x="184" y="475"/>
      <point x="156" y="442"/>
    </contour>
  </outline>
</glyph>
<glyph name="Atilde" format="1">
  <advance width="765"/>
  <unicode hex="00C3"/>
  <outline>
    <contour>
      <point x="425" y="65" type="line"/>
      <point x="425" y="0" type="line"/>
      <point x="742" y="0" type="line"/>
      <point x="740" y="64" type="line"/>
      <point x="711" y="67"/>
      <point x="692" y="69"/>
      <point x="675" y="80" type="curve"/>
      <point x="667" y="93"/>
      <point x="659" y="109"/>
      <point x="652" y="127" type="curve" smooth="yes"/>
      <point x="579" y="301"/>
      <point x="499" y="512"/>
      <point x="446" y="667" type="curve"/>
      <point x="310" y="667" type="line"/>
      <point x="244" y="478"/>
      <point x="170" y="280"/>
      <point x="102" y="112" type="curve" smooth="yes"/>
      <point x="96" y="97"/>
      <point x="89" y="85"/>
      <point x="81" y="74" type="curve"/>
      <point x="66" y="70"/>
      <point x="49" y="67"/>
      <point x="28" y="64" type="curve"/>
      <point x="25" y="0" type="line"/>
      <point x="279" y="0" type="line"/>
      <point x="279" y="65" type="line"/>
      <point x="227" y="68" type="line" smooth="yes"/>
      <point x="212" y="69"/>
      <point x="200" y="72"/>
      <point x="193" y="78" type="curve"/>
      <point x="201" y="101"/>
      <point x="212" y="128"/>
      <point x="238" y="201" type="curve"/>
      <point x="470" y="201" type="line"/>
      <point x="497" y="125"/>
      <point x="505" y="107"/>
      <point x="513" y="82" type="curve"/>
      <point x="506" y="71"/>
      <point x="492" y="70"/>
      <point x="467" y="68" type="curve" smooth="yes"/>
    </contour>
    <contour>
      <point x="448" y="272" type="curve"/>
      <point x="261" y="272" type="line"/>
      <point x="287" y="346"/>
      <point x="327" y="465"/>
      <point x="353" y="547" type="curve"/>
      <point x="357" y="547" type="line"/>
      <point x="383" y="465"/>
      <point x="417" y="362"/>
    </contour>
    <contour>
      <point x="555" y="835" type="curve"/>
      <point x="503" y="842" type="line"/>
      <point x="495" y="817"/>
      <point x="484" y="797"/>
      <point x="459" y="797" type="curve" smooth="yes"/>
      <point x="419" y="797"/>
      <point x="365" y="839"/>
      <point x="315" y="839" type="curve" smooth="yes"/>
      <point x="254" y="839"/>
      <point x="222" y="792"/>
      <point x="209" y="724" type="curve"/>
      <point x="257" y="715" type="line"/>
      <point x="267" y="744"/>
      <point x="280" y="761"/>
      <point x="307" y="761" type="curve" smooth="yes"/>
      <point x="346" y="761"/>
      <point x="404" y="718"/>
      <point x="451" y="718" type="curve" smooth="yes"/>
      <point x="512" y="718"/>
      <point x="546" y="766"/>
    </contour>
  </outline>
</glyph>
<glyph name="Adieresis" format="1">
  <advance width="765"/>
  <unicode hex="00C4"/>
  <outline>
    <contour>
      <point x="425" y="65" type="line"/>
      <point x="425" y="0" type="line"/>
      <point x="742" y="0" type="line"/>
      <point x="740" y="64" type="line"/>
      <point x="711" y="67"/>
      <point x="692" y="69"/>
      <point x="675" y="80" type="curve"/>
      <point x="667" y="93"/>
      <point x="659" y="109"/>
      <point x="652" y="127" type="curve" smooth="yes"/>
      <point x="579" y="301"/>
      <point x="499" y="512"/>
      <point x="446" y="667" type="curve"/>
      <point x="310" y="667" type="line"/>
      <point x="244" y="478"/>
      <point x="170" y="280"/>
      <point x="102" y="112" type="curve" smooth="yes"/>
      <point x="96" y="97"/>
      <point x="89" y="85"/>
      <point x="81" y="74" type="curve"/>
      <point x="66" y="70"/>
      <point x="49" y="67"/>
      <point x="28" y="64" type="curve"/>
      <point x="25" y="0" type="line"/>
      <point x="279" y="0" type="line"/>
      <point x="279" y="65" type="line"/>
      <point x="227" y="68" type="line" smooth="yes"/>
      <point x="212" y="69"/>
      <point x="200" y="72"/>
      <point x="193" y="78" type="curve"/>
      <point x="201" y="101"/>
      <point x="212" y="128"/>
      <point x="238" y="201" type="curve"/>
      <point x="470" y="201" type="line"/>
      <point x="497" y="125"/>
      <point x="505" y="107"/>
      <point x="513" y="82" type="curve"/>
      <point x="506" y="71"/>
      <point x="492" y="70"/>
      <point x="467" y="68" type="curve" smooth="yes"/>
    </contour>
    <contour>
      <point x="448" y="272" type="curve"/>
      <point x="261" y="272" type="line"/>
      <point x="287" y="346"/>
      <point x="327" y="465"/>
      <point x="353" y="547" type="curve"/>
      <point x="357" y="547" type="line"/>
      <point x="383" y="465"/>
      <point x="417" y="362"/>
    </contour>
    <contour>
      <point x="543" y="775" type="curve" smooth="yes"/>
      <point x="543" y="814"/>
      <point x="516" y="842"/>
      <point x="478" y="842" type="curve" smooth="yes"/>
      <point x="441" y="842"/>
      <point x="414" y="814"/>
      <point x="414" y="775" type="curve" smooth="yes"/>
      <point x="414" y="736"/>
      <point x="441" y="707"/>
      <point x="478" y="707" type="curve" smooth="yes"/>
      <point x="516" y="707"/>
      <point x="543" y="736"/>
    </contour>
    <contour>
      <point x="344" y="775" type="curve" smooth="yes"/>
      <point x="344" y="814"/>
      <point x="317" y="842"/>
      <point x="280" y="842" type="curve" smooth="yes"/>
      <point x="242" y="842"/>
      <point x="215" y="814"/>
      <point x="215" y="775" type="curve" smooth="yes"/>
      <point x="215" y="736"/>
      <point x="242" y="707"/>
      <point x="280" y="707" type="curve" smooth="yes"/>
      <point x="317" y="707"/>
      <point x="344" y="736"/>
    </contour>
  </outline>
</glyph>
<glyph name="Ccedilla" format="1">
  <advance width="615"/>
  <unicode hex="00C7"/>
  <outline>
    <contour>
      <point x="315" y="-18" type="curve"/>
      <point x="279" y="-100" type="line"/>
      <point x="301" y="-119" type="line"/>
      <point x="312" y="-113"/>
      <point x="326" y="-111"/>
      <point x="345" y="-111" type="curve" smooth="yes"/>
      <point x="375" y="-111"/>
      <point x="386" y="-125"/>
      <point x="386" y="-145" type="curve" smooth="yes"/>
      <point x="386" y="-167"/>
      <point x="365" y="-181"/>
      <point x="337" y="-181" type="curve" smooth="yes"/>
      <point x="308" y="-181"/>
      <point x="280" y="-172"/>
      <point x="261" y="-162" type="curve"/>
      <point x="240" y="-207" type="line"/>
      <point x="253" y="-214"/>
      <point x="297" y="-233"/>
      <point x="343" y="-233" type="curve" smooth="yes"/>
      <point x="422" y="-233"/>
      <point x="466" y="-190"/>
      <point x="466" y="-139" type="curve" smooth="yes"/>
      <point x="466" y="-95"/>
      <point x="434" y="-67"/>
      <point x="387" y="-67" type="curve" smooth="yes"/>
      <point x="370" y="-67"/>
      <point x="355" y="-69"/>
      <point x="341" y="-76" type="curve"/>
      <point x="363" y="-18" type="line"/>
      <point x="439" y="-18"/>
      <point x="539" y="-1"/>
      <point x="574" y="16" type="curve"/>
      <point x="574" y="197" type="line"/>
      <point x="478" y="197" type="line"/>
      <point x="478" y="143" type="line" smooth="yes"/>
      <point x="478" y="65"/>
      <point x="432" y="46"/>
      <point x="360" y="46" type="curve" smooth="yes"/>
      <point x="204" y="46"/>
      <point x="170" y="162"/>
      <point x="170" y="321" type="curve" smooth="yes"/>
      <point x="170" y="558"/>
      <point x="268" y="606"/>
      <point x="365" y="606" type="curve" smooth="yes"/>
      <point x="427" y="606"/>
      <point x="460" y="586"/>
      <point x="466" y="525" type="curve" smooth="yes"/>
      <point x="472" y="462" type="line"/>
      <point x="565" y="462" type="line"/>
      <point x="565" y="641" type="line"/>
      <point x="526" y="654"/>
      <point x="432" y="670"/>
      <point x="372" y="670" type="curve" smooth="yes"/>
      <point x="132" y="670"/>
      <point x="36" y="523"/>
      <point x="36" y="311" type="curve" smooth="yes"/>
      <point x="36" y="100"/>
      <point x="133" y="-3"/>
    </contour>
  </outline>
</glyph>
<glyph name="Ograve" format="1">
  <advance width="733"/>
  <unicode hex="00D2"/>
  <outline>
    <contour>
      <point x="700" y="340" type="curve" smooth="yes"/>
      <point x="700" y="549"/>
      <point x="571" y="682"/>
      <point x="371" y="682" type="curve" smooth="yes"/>
      <point x="162" y="682"/>
      <point x="33" y="547"/>
      <point x="33" y="326" type="curve" smooth="yes"/>
      <point x="33" y="111"/>
      <point x="167" y="-14"/>
      <point x="361" y="-14" type="curve" smooth="yes"/>
      <point x="566" y="-14"/>
      <point x="700" y="113"/>
    </contour>
    <contour>
      <point x="543" y="335" type="curve" smooth="yes"/>
      <point x="543" y="152"/>
      <point x="481" y="60"/>
      <point x="366" y="60" type="curve" smooth="yes"/>
      <point x="252" y="60"/>
      <point x="190" y="144"/>
      <point x="190" y="333" type="curve" smooth="yes"/>
      <point x="190" y="527"/>
      <point x="258" y="608"/>
      <point x="369" y="608" type="curve" smooth="yes"/>
      <point x="478" y="608"/>
      <point x="543" y="527"/>
    </contour>
    <contour>
      <point x="214" y="839" type="line"/>
      <point x="345" y="710" type="line"/>
      <point x="430" y="710" type="line"/>
      <point x="353" y="839" type="line"/>
    </contour>
  </outline>
</glyph>
<glyph name="Oslash" format="1">
  <advance width="740"/>
  <unicode hex="00D8"/>
  <outline>
    <contour>
      <point x="383" y="667" type="move" name="top"/>
    </contour>
    <contour>
      <point x="704" y="340" type="curve" smooth="yes"/>
      <point x="704" y="448"/>
      <point x="668" y="536"/>
      <point x="607" y="594" type="curve"/>
      <point x="679" y="689" type="line"/>
      <point x="626" y="706" type="line"/>
      <point x="566" y="628" type="line"/>
      <point x="515" y="662"/>
      <point x="450" y="682"/>
      <point x="375" y="682" type="curve" smooth="yes"/>
      <point x="166" y="682"/>
      <point x="37" y="547"/>
      <point x="37" y="326" type="curve" smooth="yes"/>
      <point x="37" y="215"/>
      <point x="74" y="129"/>
      <point x="136" y="71" type="curve"/>
      <point x="65" y="-22" type="line"/>
      <point x="119" y="-39" type="line"/>
      <point x="178" y="37" type="line"/>
      <point x="228" y="3"/>
      <point x="292" y="-14"/>
      <point x="365" y="-14" type="curve" smooth="yes"/>
      <point x="570" y="-14"/>
      <point x="704" y="113"/>
    </contour>
    <contour>
      <point x="501" y="543" type="curve"/>
      <point x="217" y="175" type="line"/>
      <point x="201" y="215"/>
      <point x="194" y="268"/>
      <point x="194" y="333" type="curve" smooth="yes"/>
      <point x="194" y="527"/>
      <point x="262" y="608"/>
      <point x="373" y="608" type="curve" smooth="yes"/>
      <point x="427" y="608"/>
      <point x="471" y="588"/>
    </contour>
    <contour>
      <point x="547" y="335" type="curve" smooth="yes"/>
      <point x="547" y="152"/>
      <point x="485" y="60"/>
      <point x="370" y="60" type="curve" smooth="yes"/>
      <point x="315" y="60"/>
      <point x="272" y="79"/>
      <point x="243" y="122" type="curve"/>
      <point x="526" y="489" type="line"/>
      <point x="540" y="449"/>
      <point x="547" y="398"/>
    </contour>
  </outline>
</glyph>
<glyph name="Udieresis" format="1">
  <advance width="745"/>
  <unicode hex="00DC"/>
  <outline>
    <contour>
      <point x="721" y="602" type="curve"/>
      <point x="724" y="667" type="line"/>
      <point x="448" y="667" type="line"/>
      <point x="444" y="602" type="line"/>
      <point x="477" y="599"/>
      <point x="514" y="599"/>
      <point x="536" y="591" type="curve"/>
      <point x="539" y="577"/>
      <point x="541" y="560"/>
      <point x="541" y="540" type="curve" smooth="yes"/>
      <point x="542" y="222" type="line" smooth="yes"/>
      <point x="542" y="118"/>
      <point x="486" y="67"/>
      <point x="390" y="67" type="curve" smooth="yes"/>
      <point x="283" y="67"/>
      <point x="251" y="131"/>
      <point x="251" y="230" type="curve" smooth="yes"/>
      <point x="251" y="540" type="line" smooth="yes"/>
      <point x="251" y="560"/>
      <point x="252" y="577"/>
      <point x="255" y="591" type="curve"/>
      <point x="276" y="599"/>
      <point x="317" y="599"/>
      <point x="351" y="602" type="curve"/>
      <point x="353" y="667" type="line"/>
      <point x="24" y="667" type="line"/>
      <point x="21" y="602" type="line"/>
      <point x="50" y="599"/>
      <point x="85" y="599"/>
      <point x="105" y="591" type="curve"/>
      <point x="108" y="576"/>
      <point x="109" y="560"/>
      <point x="109" y="539" type="curve" smooth="yes"/>
      <point x="109" y="226" type="line" smooth="yes"/>
      <point x="109" y="58"/>
      <point x="202" y="-14"/>
      <point x="387" y="-14" type="curve" smooth="yes"/>
      <point x="547" y="-14"/>
      <point x="636" y="82"/>
      <point x="636" y="224" type="curve" smooth="yes"/>
      <point x="636" y="539" type="line" smooth="yes"/>
      <point x="636" y="560"/>
      <point x="637" y="576"/>
      <point x="640" y="591" type="curve"/>
      <point x="658" y="598"/>
      <point x="692" y="599"/>
    </contour>
    <contour>
      <point x="544" y="775" type="curve" smooth="yes"/>
      <point x="544" y="814"/>
      <point x="517" y="842"/>
      <point x="480" y="842" type="curve" smooth="yes"/>
      <point x="442" y="842"/>
      <point x="415" y="814"/>
      <point x="415" y="775" type="curve" smooth="yes"/>
      <point x="415" y="736"/>
      <point x="442" y="707"/>
      <point x="480" y="707" type="curve" smooth="yes"/>
      <point x="517" y="707"/>
      <point x="544" y="736"/>
    </contour>
    <contour>
      <point x="346" y="775" type="curve" smooth="yes"/>
      <point x="346" y="814"/>
      <point x="319" y="842"/>
      <point x="281" y="842" type="curve" smooth="yes"/>
      <point x="244" y="842"/>
      <point x="217" y="814"/>
      <point x="217" y="775" type="curve" smooth="yes"/>
      <point x="217" y="736"/>
      <point x="244" y="707"/>
      <point x="281" y="707" type="curve" smooth="yes"/>
      <point x="319" y="707"/>
      <point x="346" y="736"/>
    </contour>
  </outline>
</glyph>
<glyph name="germandbls" format="1">
  <advance width="640"/>
  <unicode hex="00DF"/>
  <outline>
    <contour>
      <point x="613" y="143" type="curve" smooth="yes"/>
      <point x="613" y="295"/>
      <point x="429" y="293"/>
      <point x="429" y="387" type="curve" smooth="yes"/>
      <point x="429" y="463"/>
      <point x="549" y="460"/>
      <point x="549" y="569" type="curve" smooth="yes"/>
      <point x="549" y="678"/>
      <point x="463" y="725"/>
      <point x="351" y="725" type="curve" smooth="yes"/>
      <point x="163" y="725"/>
      <point x="109" y="614"/>
      <point x="109" y="441" type="curve" smooth="yes"/>
      <point x="109" y="128" type="line" smooth="yes"/>
      <point x="109" y="85"/>
      <point x="116" y="68"/>
      <point x="61" y="63" type="curve" smooth="yes"/>
      <point x="29" y="60" type="line"/>
      <point x="29" y="0" type="line"/>
      <point x="239" y="0" type="line"/>
      <point x="239" y="444" type="line"/>
      <point x="234" y="472"/>
      <point x="229" y="501"/>
      <point x="223" y="529" type="curve"/>
      <point x="231" y="613"/>
      <point x="267" y="654"/>
      <point x="333" y="654" type="curve" smooth="yes"/>
      <point x="394" y="654"/>
      <point x="431" y="620"/>
      <point x="431" y="569" type="curve" smooth="yes"/>
      <point x="431" y="537"/>
      <point x="424" y="526"/>
      <point x="403" y="512" type="curve" smooth="yes"/>
      <point x="334" y="467"/>
      <point x="299" y="420"/>
      <point x="299" y="362" type="curve" smooth="yes"/>
      <point x="299" y="207"/>
      <point x="480" y="228"/>
      <point x="480" y="121" type="curve" smooth="yes"/>
      <point x="480" y="79"/>
      <point x="451" y="63"/>
      <point x="426" y="58" type="curve"/>
      <point x="361" y="58"/>
      <point x="366" y="112"/>
      <point x="289" y="119" type="curve"/>
      <point x="281" y="8" type="line"/>
      <point x="318" y="-6"/>
      <point x="367" y="-13"/>
      <point x="414" y="-13" type="curve" smooth="yes"/>
      <point x="531" y="-13"/>
      <point x="613" y="52"/>
    </contour>
  </outline>
</glyph>
<glyph name="atilde" format="1">
  <advance width="553"/>
  <unicode hex="00E3"/>
  <outline>
    <contour>
      <point x="520" y="5" type="curve"/>
      <point x="522" y="62" type="line"/>
      <point x="514" y="60"/>
      <point x="502" y="58"/>
      <point x="491" y="58" type="curve" smooth="yes"/>
      <point x="451" y="58"/>
      <point x="442" y="76"/>
      <point x="442" y="113" type="curve" smooth="yes"/>
      <point x="442" y="141"/>
      <point x="447" y="296"/>
      <point x="447" y="327" type="curve" smooth="yes"/>
      <point x="447" y="446"/>
      <point x="381" y="475"/>
      <point x="254" y="475" type="curve" smooth="yes"/>
      <point x="182" y="472"/>
      <point x="131" y="449"/>
      <point x="87" y="409" type="curve"/>
      <point x="81" y="387"/>
      <point x="79" y="364"/>
      <point x="79" y="341" type="curve" smooth="yes"/>
      <point x="79" y="332"/>
      <point x="79" y="324"/>
      <point x="80" y="315" type="curve"/>
      <point x="172" y="307" type="line"/>
      <point x="176" y="343"/>
      <point x="193" y="403"/>
      <point x="239" y="403" type="curve" smooth="yes"/>
      <point x="294" y="403"/>
      <point x="319" y="375"/>
      <point x="319" y="313" type="curve" smooth="yes"/>
      <point x="319" y="296"/>
      <point x="318" y="261"/>
      <point x="318" y="253" type="curve"/>
      <point x="256" y="252" type="line" smooth="yes"/>
      <point x="130" y="250"/>
      <point x="39" y="223"/>
      <point x="39" y="113" type="curve" smooth="yes"/>
      <point x="39" y="45"/>
      <point x="83" y="-4"/>
      <point x="151" y="-11" type="curve"/>
      <point x="217" y="-11"/>
      <point x="288" y="11"/>
      <point x="332" y="69" type="curve"/>
      <point x="339" y="50"/>
      <point x="358" y="1"/>
      <point x="389" y="-5" type="curve"/>
      <point x="430" y="-5"/>
      <point x="479" y="-2"/>
    </contour>
    <contour>
      <point x="277" y="200" type="curve" smooth="yes"/>
      <point x="318" y="202" type="line"/>
      <point x="316" y="141"/>
      <point x="326" y="72"/>
      <point x="234" y="64" type="curve"/>
      <point x="197" y="64"/>
      <point x="173" y="85"/>
      <point x="173" y="129" type="curve" smooth="yes"/>
      <point x="173" y="186"/>
      <point x="227" y="196"/>
    </contour>
    <contour>
      <point x="447" y="679" type="curve"/>
      <point x="395" y="687" type="line"/>
      <point x="387" y="659"/>
      <point x="374" y="639"/>
      <point x="347" y="639" type="curve" smooth="yes"/>
      <point x="306" y="639"/>
      <point x="254" y="684"/>
      <point x="205" y="684" type="curve" smooth="yes"/>
      <point x="143" y="684"/>
      <point x="111" y="636"/>
      <point x="98" y="564" type="curve"/>
      <point x="146" y="555" type="line"/>
      <point x="156" y="585"/>
      <point x="170" y="602"/>
      <point x="197" y="602" type="curve" smooth="yes"/>
      <point x="236" y="602"/>
      <point x="295" y="557"/>
      <point x="342" y="557" type="curve" smooth="yes"/>
      <point x="404" y="557"/>
      <point x="438" y="607"/>
    </contour>
  </outline>
</glyph>
<glyph name="ccedilla" format="1">
  <advance width="524"/>
  <unicode hex="00E7"/>
  <outline>
    <contour>
      <point x="243" y="-16" type="curve"/>
      <point x="206" y="-100" type="line"/>
      <point x="228" y="-119" type="line"/>
      <point x="239" y="-113"/>
      <point x="253" y="-111"/>
      <point x="272" y="-111" type="curve" smooth="yes"/>
      <point x="302" y="-111"/>
      <point x="313" y="-125"/>
      <point x="313" y="-145" type="curve" smooth="yes"/>
      <point x="313" y="-167"/>
      <point x="292" y="-181"/>
      <point x="264" y="-181" type="curve" smooth="yes"/>
      <point x="235" y="-181"/>
      <point x="207" y="-172"/>
      <point x="188" y="-162" type="curve"/>
      <point x="167" y="-207" type="line"/>
      <point x="180" y="-214"/>
      <point x="224" y="-233"/>
      <point x="270" y="-233" type="curve" smooth="yes"/>
      <point x="349" y="-233"/>
      <point x="393" y="-190"/>
      <point x="393" y="-139" type="curve" smooth="yes"/>
      <point x="393" y="-95"/>
      <point x="361" y="-67"/>
      <point x="314" y="-67" type="curve" smooth="yes"/>
      <point x="297" y="-67"/>
      <point x="282" y="-69"/>
      <point x="268" y="-76" type="curve"/>
      <point x="291" y="-16" type="line"/>
      <point x="449" y="-11"/>
      <point x="483" y="71"/>
      <point x="483" y="178" type="curve"/>
      <point x="387" y="178" type="line"/>
      <point x="382" y="84"/>
      <point x="356" y="48"/>
      <point x="281" y="48" type="curve" smooth="yes"/>
      <point x="210" y="48"/>
      <point x="171" y="88"/>
      <point x="171" y="249" type="curve" smooth="yes"/>
      <point x="171" y="412"/>
      <point x="223" y="442"/>
      <point x="299" y="442" type="curve" smooth="yes"/>
      <point x="359" y="442"/>
      <point x="375" y="405"/>
      <point x="377" y="321" type="curve"/>
      <point x="473" y="321" type="line"/>
      <point x="473" y="468" type="line"/>
      <point x="410" y="490"/>
      <point x="342" y="500"/>
      <point x="277" y="500" type="curve" smooth="yes"/>
      <point x="109" y="500"/>
      <point x="37" y="390"/>
      <point x="37" y="242" type="curve" smooth="yes"/>
      <point x="37" y="105"/>
      <point x="99" y="0"/>
    </contour>
  </outline>
</glyph>
<glyph name="eacute" format="1">
  <advance width="511"/>
  <unicode hex="00E9"/>
  <outline>
    <contour>
      <point x="472" y="110" type="curve"/>
      <point x="405" y="144" type="line"/>
      <point x="385" y="91"/>
      <point x="347" y="65"/>
      <point x="291" y="65" type="curve" smooth="yes"/>
      <point x="199" y="65"/>
      <point x="172" y="135"/>
      <point x="172" y="228" type="curve"/>
      <point x="471" y="228" type="line"/>
      <point x="473" y="240"/>
      <point x="473" y="252"/>
      <point x="473" y="263" type="curve" smooth="yes"/>
      <point x="473" y="399"/>
      <point x="408" y="476"/>
      <point x="264" y="476" type="curve" smooth="yes"/>
      <point x="126" y="476"/>
      <point x="32" y="381"/>
      <point x="32" y="229" type="curve" smooth="yes"/>
      <point x="32" y="79"/>
      <point x="126" y="-13"/>
      <point x="268" y="-13" type="curve" smooth="yes"/>
      <point x="389" y="-13"/>
      <point x="448" y="42"/>
    </contour>
    <contour>
      <point x="345" y="294" type="curve"/>
      <point x="173" y="289" type="line"/>
      <point x="173" y="362"/>
      <point x="199" y="415"/>
      <point x="262" y="415" type="curve" smooth="yes"/>
      <point x="327" y="415"/>
      <point x="345" y="361"/>
    </contour>
    <contour>
      <point x="218" y="532" type="line"/>
      <point x="290" y="532" type="line"/>
      <point x="445" y="717" type="line"/>
      <point x="293" y="717" type="line"/>
    </contour>
  </outline>
</glyph>
<glyph name="edieresis" format="1">
  <advance width="525"/>
  <unicode hex="00EB"/>
  <outline>
    <contour>
      <point x="479" y="110" type="curve"/>
      <point x="412" y="144" type="line"/>
      <point x="392" y="91"/>
      <point x="354" y="65"/>
      <point x="298" y="65" type="curve" smooth="yes"/>
      <point x="206" y="65"/>
      <point x="179" y="135"/>
      <point x="179" y="228" type="curve"/>
      <point x="478" y="228" type="line"/>
      <point x="480" y="240"/>
      <point x="480" y="252"/>
      <point x="480" y="263" type="curve" smooth="yes"/>
      <point x="480" y="399"/>
      <point x="415" y="476"/>
      <point x="271" y="476" type="curve" smooth="yes"/>
      <point x="133" y="476"/>
      <point x="39" y="381"/>
      <point x="39" y="229" type="curve" smooth="yes"/>
      <point x="39" y="79"/>
      <point x="133" y="-13"/>
      <point x="275" y="-13" type="curve" smooth="yes"/>
      <point x="396" y="-13"/>
      <point x="455" y="42"/>
    </contour>
    <contour>
      <point x="352" y="294" type="curve"/>
      <point x="180" y="289" type="line"/>
      <point x="180" y="362"/>
      <point x="206" y="415"/>
      <point x="269" y="415" type="curve" smooth="yes"/>
      <point x="334" y="415"/>
      <point x="352" y="361"/>
    </contour>
    <contour>
      <point x="436" y="627" type="curve" smooth="yes"/>
      <point x="436" y="666"/>
      <point x="409" y="694"/>
      <point x="371" y="694" type="curve" smooth="yes"/>
      <point x="334" y="694"/>
      <point x="307" y="666"/>
      <point x="307" y="627" type="curve" smooth="yes"/>
      <point x="307" y="588"/>
      <point x="334" y="559"/>
      <point x="371" y="559" type="curve" smooth="yes"/>
      <point x="409" y="559"/>
      <point x="436" y="588"/>
    </contour>
    <contour>
      <point x="237" y="627" type="curve" smooth="yes"/>
      <point x="237" y="666"/>
      <point x="210" y="694"/>
      <point x="173" y="694" type="curve" smooth="yes"/>
      <point x="135" y="694"/>
      <point x="108" y="666"/>
      <point x="108" y="627" type="curve" smooth="yes"/>
      <point x="108" y="588"/>
      <point x="135" y="559"/>
      <point x="173" y="559" type="curve" smooth="yes"/>
      <point x="210" y="559"/>
      <point x="237" y="588"/>
    </contour>
  </outline>
</glyph>
<glyph name="igrave" format="1">
  <advance width="365"/>
  <unicode hex="00EC"/>
  <outline>
    <contour>
      <point x="38" y="60" type="line"/>
      <point x="38" y="0" type="line"/>
      <point x="335" y="0" type="line"/>
      <point x="335" y="60" type="line"/>
      <point x="301" y="63" type="line" smooth="yes"/>
      <point x="254" y="67"/>
      <point x="254" y="78"/>
      <point x="254" y="120" type="curve" smooth="yes"/>
      <point x="254" y="367" type="line"/>
      <point x="259" y="471" type="line"/>
      <point x="191" y="463"/>
      <point x="111" y="456"/>
      <point x="50" y="451" type="curve"/>
      <point x="50" y="410" type="line"/>
      <point x="79" y="396" type="line"/>
      <point x="106" y="387"/>
      <point x="115" y="373"/>
      <point x="122" y="330" type="curve"/>
      <point x="122" y="120" type="line" smooth="yes"/>
      <point x="122" y="75"/>
      <point x="121" y="67"/>
      <point x="74" y="63" type="curve" smooth="yes"/>
    </contour>
    <contour>
      <point x="41" y="707" type="line"/>
      <point x="185" y="536" type="line"/>
      <point x="258" y="536" type="line"/>
      <point x="183" y="707" type="line"/>
    </contour>
  </outline>
</glyph>
<glyph name="idieresis" format="1">
  <advance width="406"/>
  <unicode hex="00EF"/>
  <outline>
    <contour>
      <point x="60" y="60" type="line"/>
      <point x="60" y="0" type="line"/>
      <point x="357" y="0" type="line"/>
      <point x="357" y="60" type="line"/>
      <point x="323" y="63" type="line" smooth="yes"/>
      <point x="276" y="67"/>
      <point x="276" y="78"/>
      <point x="276" y="120" type="curve" smooth="yes"/>
      <point x="276" y="367" type="line"/>
      <point x="281" y="471" type="line"/>
      <point x="213" y="463"/>
      <point x="133" y="456"/>
      <point x="72" y="451" type="curve"/>
      <point x="72" y="410" type="line"/>
      <point x="101" y="396" type="line"/>
      <point x="128" y="387"/>
      <point x="137" y="373"/>
      <point x="144" y="330" type="curve"/>
      <point x="144" y="120" type="line" smooth="yes"/>
      <point x="144" y="75"/>
      <point x="143" y="67"/>
      <point x="96" y="63" type="curve" smooth="yes"/>
    </contour>
    <contour>
      <point x="368" y="627" type="curve" smooth="yes"/>
      <point x="368" y="666"/>
      <point x="341" y="694"/>
      <point x="303" y="694" type="curve" smooth="yes"/>
      <point x="266" y="694"/>
      <point x="239" y="666"/>
      <point x="239" y="627" type="curve" smooth="yes"/>
      <point x="239" y="588"/>
      <point x="266" y="559"/>
      <point x="303" y="559" type="curve" smooth="yes"/>
      <point x="341" y="559"/>
      <point x="368" y="588"/>
    </contour>
    <contour>
      <point x="169" y="627" type="curve" smooth="yes"/>
      <point x="169" y="666"/>
      <point x="142" y="694"/>
      <point x="105" y="694" type="curve" smooth="yes"/>
      <point x="67" y="694"/>
      <point x="40" y="666"/>
      <point x="40" y="627" type="curve" smooth="yes"/>
      <point x="40" y="588"/>
      <point x="67" y="559"/>
      <point x="105" y="559" type="curve" smooth="yes"/>
      <point x="142" y="559"/>
      <point x="169" y="588"/>
    </contour>
  </outline>
</glyph>
<glyph name="ntilde" format="1">
  <advance width="662"/>
  <unicode hex="00F1"/>
  <outline>
    <contour>
      <point x="369" y="60" type="curve"/>
      <point x="368" y="0" type="line"/>
      <point x="634" y="0" type="line"/>
      <point x="634" y="60" type="line"/>
      <point x="602" y="63" type="line"/>
      <point x="552" y="65"/>
      <point x="557" y="84"/>
      <point x="557" y="123" type="curve" smooth="yes"/>
      <point x="557" y="286" type="line" smooth="yes"/>
      <point x="557" y="423"/>
      <point x="502" y="476"/>
      <point x="389" y="476" type="curve" smooth="yes"/>
      <point x="329" y="476"/>
      <point x="274" y="450"/>
      <point x="236" y="382" type="curve"/>
      <point x="236" y="382"/>
      <point x="236" y="382"/>
      <point x="235" y="382" type="curve"/>
      <point x="237" y="471" type="line"/>
      <point x="181" y="463"/>
      <point x="105" y="456"/>
      <point x="48" y="451" type="curve"/>
      <point x="48" y="410" type="line"/>
      <point x="77" y="396" type="line"/>
      <point x="104" y="387"/>
      <point x="113" y="373"/>
      <point x="120" y="330" type="curve"/>
      <point x="120" y="120" type="line" smooth="yes"/>
      <point x="120" y="75"/>
      <point x="119" y="67"/>
      <point x="72" y="63" type="curve" smooth="yes"/>
      <point x="36" y="60" type="line"/>
      <point x="36" y="0" type="line"/>
      <point x="308" y="0" type="line"/>
      <point x="308" y="60" type="line"/>
      <point x="290" y="63" type="line"/>
      <point x="246" y="65"/>
      <point x="251" y="89"/>
      <point x="251" y="122" type="curve" smooth="yes"/>
      <point x="251" y="277" type="line" smooth="yes"/>
      <point x="251" y="344"/>
      <point x="289" y="384"/>
      <point x="345" y="384" type="curve" smooth="yes"/>
      <point x="389" y="384"/>
      <point x="426" y="358"/>
      <point x="426" y="288" type="curve" smooth="yes"/>
      <point x="426" y="120" type="line" smooth="yes"/>
      <point x="426" y="101"/>
      <point x="426" y="86"/>
      <point x="422" y="74" type="curve"/>
      <point x="408" y="65"/>
      <point x="392" y="62"/>
    </contour>
    <contour>
      <point x="512" y="679" type="curve"/>
      <point x="459" y="687" type="line"/>
      <point x="451" y="659"/>
      <point x="439" y="639"/>
      <point x="411" y="639" type="curve" smooth="yes"/>
      <point x="371" y="639"/>
      <point x="318" y="684"/>
      <point x="270" y="684" type="curve" smooth="yes"/>
      <point x="208" y="684"/>
      <point x="176" y="636"/>
      <point x="163" y="564" type="curve"/>
      <point x="210" y="555" type="line"/>
      <point x="221" y="585"/>
      <point x="234" y="602"/>
      <point x="261" y="602" type="curve" smooth="yes"/>
      <point x="300" y="602"/>
      <point x="360" y="557"/>
      <point x="407" y="557" type="curve" smooth="yes"/>
      <point x="469" y="557"/>
      <point x="502" y="607"/>
    </contour>
  </outline>
</glyph>
<glyph name="ocircumflex" format="1">
  <advance width="551"/>
  <unicode hex="00F4"/>
  <outline>
    <contour>
      <point x="517" y="236" type="curve" smooth="yes"/>
      <point x="517" y="379"/>
      <point x="430" y="476"/>
      <point x="280" y="476" type="curve" smooth="yes"/>
      <point x="124" y="476"/>
      <point x="35" y="374"/>
      <point x="35" y="226" type="curve" smooth="yes"/>
      <point x="35" y="84"/>
      <point x="123" y="-13"/>
      <point x="271" y="-13" type="curve" smooth="yes"/>
      <point x="425" y="-13"/>
      <point x="517" y="86"/>
    </contour>
    <contour>
      <point x="375" y="232" type="curve" smooth="yes"/>
      <point x="375" y="114"/>
      <point x="342" y="60"/>
      <point x="275" y="60" type="curve" smooth="yes"/>
      <point x="212" y="60"/>
      <point x="177" y="113"/>
      <point x="177" y="232" type="curve" smooth="yes"/>
      <point x="177" y="356"/>
      <point x="214" y="403"/>
      <point x="276" y="403" type="curve" smooth="yes"/>
      <point x="339" y="403"/>
      <point x="375" y="352"/>
    </contour>
    <contour>
      <point x="277" y="632" type="line"/>
      <point x="364" y="536" type="line"/>
      <point x="440" y="536" type="line"/>
      <point x="328" y="707" type="line"/>
      <point x="226" y="707" type="line"/>
      <point x="115" y="539" type="line"/>
      <point x="188" y="539" type="line"/>
    </contour>
  </outline>
</glyph>
<glyph name="thorn" format="1">
  <advance width="595"/>
  <unicode hex="00FE"/>
  <outline>
    <contour>
      <point x="318" y="69" type="curve" smooth="yes"/>
      <point x="241" y="69"/>
      <point x="237" y="132"/>
      <point x="237" y="211" type="curve" smooth="yes"/>
      <point x="237" y="269"/>
      <point x="243" y="316"/>
      <point x="252" y="354" type="curve"/>
      <point x="269" y="375"/>
      <point x="293" y="387"/>
      <point x="322" y="387" type="curve" smooth="yes"/>
      <point x="386" y="387"/>
      <point x="423" y="343"/>
      <point x="423" y="230" type="curve" smooth="yes"/>
      <point x="423" y="118"/>
      <point x="378" y="69"/>
    </contour>
    <contour>
      <point x="21" y="-236" type="line"/>
      <point x="337" y="-236" type="line"/>
      <point x="337" y="-176" type="line"/>
      <point x="243" y="-148"/>
      <point x="239" y="-143"/>
      <point x="239" y="-122" type="curve" smooth="yes"/>
      <point x="239" y="28" type="line"/>
      <point x="240" y="28"/>
      <point x="240" y="28"/>
      <point x="240" y="28" type="curve"/>
      <point x="262" y="3"/>
      <point x="303" y="-13"/>
      <point x="353" y="-13" type="curve" smooth="yes"/>
      <point x="465" y="-13"/>
      <point x="565" y="73"/>
      <point x="565" y="235" type="curve" smooth="yes"/>
      <point x="565" y="396"/>
      <point x="493" y="476"/>
      <point x="374" y="476" type="curve" smooth="yes"/>
      <point x="316" y="476"/>
      <point x="270" y="453"/>
      <point x="239" y="411" type="curve"/>
      <point x="239" y="618" type="line"/>
      <point x="244" y="722" type="line"/>
      <point x="176" y="714"/>
      <point x="75" y="713"/>
      <point x="27" y="711" type="curve"/>
      <point x="27" y="658" type="line"/>
      <point x="107" y="630"/>
      <point x="107" y="625"/>
      <point x="107" y="560" type="curve" smooth="yes"/>
      <point x="107" y="304" type="line" smooth="yes"/>
      <point x="107" y="303"/>
      <point x="107" y="301"/>
      <point x="107" y="300" type="curve" smooth="yes"/>
      <point x="107" y="-122" type="line" smooth="yes"/>
      <point x="107" y="-141"/>
      <point x="93" y="-158"/>
      <point x="21" y="-176" type="curve"/>
    </contour>
  </outline>
</glyph>
<glyph name="dotlessi" format="1">
  <advance width="364"/>
  <unicode hex="0131"/>
  <outline>
    <contour>
      <point x="165" y="474" type="move" name="top"/>
    </contour>
    <contour>
      <point x="297" y="10" type="move" name="ogonek"/>
    </contour>
    <contour>
      <point x="37" y="60" type="line"/>
      <point x="37" y="0" type="line"/>
      <point x="334" y="0" type="line"/>
      <point x="334" y="60" type="line"/>
      <point x="300" y="63" type="line" smooth="yes"/>
      <point x="253" y="67"/>
      <point x="253" y="78"/>
      <point x="253" y="120" type="curve" smooth="yes"/>
      <point x="253" y="367" type="line"/>
      <point x="258" y="471" type="line"/>
      <point x="190" y="463"/>
      <point x="89" y="462"/>
      <point x="41" y="460" type="curve"/>
      <point x="41" y="407" type="line"/>
      <point x="121" y="379"/>
      <point x="121" y="374"/>
      <point x="121" y="309" type="curve" smooth="yes"/>
      <point x="121" y="120" type="line" smooth="yes"/>
      <point x="121" y="75"/>
      <point x="120" y="67"/>
      <point x="73" y="63" type="curve" smooth="yes"/>
    </contour>
  </outline>
</glyph>
<glyph name="OE" format="1">
  <advance width="1005"/>
  <unicode hex="0152"/>
  <outline>
    <contour>
      <point x="525" y="667" type="move" name="top"/>
    </contour>
    <contour>
      <point x="966" y="179" type="curve"/>
      <point x="887" y="183" type="line"/>
      <point x="881" y="138"/>
      <point x="876" y="106"/>
      <point x="865" y="80" type="curve"/>
      <point x="848" y="73"/>
      <point x="826" y="73"/>
      <point x="794" y="73" type="curve" smooth="yes"/>
      <point x="608" y="73" type="line"/>
      <point x="608" y="74"/>
      <point x="608" y="224"/>
      <point x="608" y="308" type="curve"/>
      <point x="741" y="308" type="line" smooth="yes"/>
      <point x="758" y="308"/>
      <point x="773" y="308"/>
      <point x="786" y="305" type="curve"/>
      <point x="798" y="286"/>
      <point x="803" y="259"/>
      <point x="807" y="218" type="curve"/>
      <point x="882" y="220" type="line"/>
      <point x="882" y="331" type="line"/>
      <point x="882" y="460" type="line"/>
      <point x="807" y="463" type="line"/>
      <point x="803" y="424"/>
      <point x="797" y="399"/>
      <point x="785" y="381" type="curve"/>
      <point x="773" y="378"/>
      <point x="759" y="378"/>
      <point x="744" y="378" type="curve" smooth="yes"/>
      <point x="609" y="378" type="line"/>
      <point x="609" y="378"/>
      <point x="609" y="593"/>
      <point x="609" y="593" type="curve"/>
      <point x="786" y="593" type="line" smooth="yes"/>
      <point x="806" y="593"/>
      <point x="823" y="593"/>
      <point x="838" y="591" type="curve"/>
      <point x="851" y="571"/>
      <point x="855" y="544"/>
      <point x="858" y="495" type="curve"/>
      <point x="938" y="501" type="line"/>
      <point x="938" y="667" type="line"/>
      <point x="623" y="667" type="line" smooth="yes"/>
      <point x="562" y="667"/>
      <point x="495" y="667"/>
      <point x="374" y="667" type="curve" smooth="yes"/>
      <point x="161" y="667"/>
      <point x="34" y="555"/>
      <point x="34" y="332" type="curve" smooth="yes"/>
      <point x="34" y="90"/>
      <point x="183" y="0"/>
      <point x="326" y="0" type="curve" smooth="yes"/>
      <point x="388" y="0"/>
      <point x="849" y="0"/>
      <point x="849" y="0" type="curve"/>
      <point x="883" y="0"/>
      <point x="938" y="1"/>
      <point x="966" y="0" type="curve"/>
      <point x="966" y="61"/>
      <point x="966" y="118"/>
    </contour>
    <contour>
      <point x="516" y="336" type="curve" smooth="yes"/>
      <point x="516" y="149"/>
      <point x="456" y="67"/>
      <point x="353" y="67" type="curve" smooth="yes"/>
      <point x="251" y="67"/>
      <point x="191" y="155"/>
      <point x="191" y="334" type="curve" smooth="yes"/>
      <point x="191" y="512"/>
      <point x="254" y="603"/>
      <point x="353" y="603" type="curve" smooth="yes"/>
      <point x="453" y="603"/>
      <point x="516" y="531"/>
    </contour>
  </outline>
</glyph>
<glyph name="oe" format="1">
  <advance width="837"/>
  <unicode hex="0153"/>
  <outline>
    <contour>
      <point x="421" y="474" type="move" name="top"/>
    </contour>
    <contour>
      <point x="796" y="107" type="curve"/>
      <point x="732" y="141" type="line"/>
      <point x="711" y="93"/>
      <point x="672" y="65"/>
      <point x="620" y="65" type="curve" smooth="yes"/>
      <point x="528" y="65"/>
      <point x="502" y="131"/>
      <point x="502" y="228" type="curve"/>
      <point x="794" y="228" type="line"/>
      <point x="795" y="240"/>
      <point x="796" y="252"/>
      <point x="796" y="263" type="curve" smooth="yes"/>
      <point x="796" y="399"/>
      <point x="731" y="476"/>
      <point x="596" y="476" type="curve" smooth="yes"/>
      <point x="534" y="476"/>
      <point x="474" y="452"/>
      <point x="440" y="402" type="curve"/>
      <point x="408" y="448"/>
      <point x="356" y="476"/>
      <point x="279" y="476" type="curve" smooth="yes"/>
      <point x="124" y="476"/>
      <point x="36" y="377"/>
      <point x="36" y="226" type="curve" smooth="yes"/>
      <point x="36" y="81"/>
      <point x="123" y="-13"/>
      <point x="271" y="-13" type="curve" smooth="yes"/>
      <point x="343" y="-13"/>
      <point x="402" y="14"/>
      <point x="435" y="58" type="curve"/>
      <point x="476" y="7"/>
      <point x="532" y="-13"/>
      <point x="603" y="-13" type="curve" smooth="yes"/>
      <point x="694" y="-13"/>
      <point x="773" y="20"/>
    </contour>
    <contour>
      <point x="667" y="294" type="curve"/>
      <point x="503" y="289" type="line"/>
      <point x="503" y="335"/>
      <point x="519" y="413"/>
      <point x="589" y="413" type="curve" smooth="yes"/>
      <point x="657" y="413"/>
      <point x="667" y="348"/>
    </contour>
    <contour>
      <point x="373" y="232" type="curve" smooth="yes"/>
      <point x="373" y="113"/>
      <point x="344" y="60"/>
      <point x="275" y="60" type="curve" smooth="yes"/>
      <point x="212" y="60"/>
      <point x="178" y="109"/>
      <point x="178" y="231" type="curve" smooth="yes"/>
      <point x="178" y="359"/>
      <point x="214" y="403"/>
      <point x="276" y="403" type="curve" smooth="yes"/>
      <point x="339" y="403"/>
      <point x="373" y="356"/>
    </contour>
  </outline>
</glyph>
<glyph name="florin" format="1">
  <advance width="464"/>
  <unicode hex="0192"/>
  <outline>
    <contour>
      <point x="278" y="125" type="curve" smooth="yes"/>
      <point x="298" y="307" type="line"/>
      <point x="423" y="307" type="line"/>
      <point x="429" y="373" type="line"/>
      <point x="304" y="373" type="line"/>
      <point x="308" y="413" type="line"/>
      <point x="308" y="420"/>
      <point x="309" y="428"/>
      <point x="309" y="436" type="curve" smooth="yes"/>
      <point x="309" y="463"/>
      <point x="306" y="495"/>
      <point x="305" y="517" type="curve"/>
      <point x="331" y="567"/>
      <point x="387" y="580"/>
      <point x="419" y="580" type="curve" smooth="yes"/>
      <point x="423" y="580"/>
      <point x="427" y="580"/>
      <point x="431" y="580" type="curve"/>
      <point x="433" y="678" type="line"/>
      <point x="414" y="680"/>
      <point x="396" y="681"/>
      <point x="381" y="681" type="curve" smooth="yes"/>
      <point x="274" y="681"/>
      <point x="192" y="600"/>
      <point x="178" y="428" type="curve" smooth="yes"/>
      <point x="175" y="373" type="line"/>
      <point x="58" y="373" type="line"/>
      <point x="52" y="307" type="line"/>
      <point x="169" y="307" type="line"/>
      <point x="160" y="230"/>
      <point x="149" y="131"/>
      <point x="149" y="53" type="curve" smooth="yes"/>
      <point x="149" y="44"/>
      <point x="150" y="35"/>
      <point x="150" y="27" type="curve"/>
      <point x="126" y="-10"/>
      <point x="82" y="-23"/>
      <point x="43" y="-23" type="curve" smooth="yes"/>
      <point x="38" y="-23"/>
      <point x="32" y="-22"/>
      <point x="27" y="-22" type="curve"/>
      <point x="25" y="-119" type="line"/>
      <point x="47" y="-123"/>
      <point x="67" y="-124"/>
      <point x="88" y="-124" type="curve" smooth="yes"/>
      <point x="198" y="-124"/>
      <point x="263" y="-33"/>
    </contour>
  </outline>
</glyph>
<glyph name="breve" format="1">
  <advance width="389"/>
  <unicode hex="02D8"/>
  <outline>
    <contour>
      <point x="193.5" y="474" type="move" name="_top"/>
    </contour>
    <contour>
      <point x="355" y="701" type="curve"/>
      <point x="282" y="703" type="line"/>
      <point x="274" y="661"/>
      <point x="254" y="623"/>
      <point x="194" y="623" type="curve" smooth="yes"/>
      <point x="134" y="623"/>
      <point x="112" y="659"/>
      <point x="105" y="703" type="curve"/>
      <point x="32" y="701" type="line"/>
      <point x="41" y="602"/>
      <point x="95" y="547"/>
      <point x="192" y="547" type="curve" smooth="yes"/>
      <point x="289" y="547"/>
      <point x="345" y="604"/>
    </contour>
  </outline>
</glyph>
<glyph name="dotaccent" format="1">
  <advance width="389"/>
  <unicode hex="02D9"/>
  <outline>
    <contour>
      <point x="194" y="474" type="move" name="_top"/>
    </contour>
    <contour>
      <point x="259" y="636" type="curve" smooth="yes"/>
      <point x="259" y="675"/>
      <point x="231" y="703"/>
      <point x="194" y="703" type="curve" smooth="yes"/>
      <point x="156" y="703"/>
      <point x="129" y="675"/>
      <point x="129" y="636" type="curve" smooth="yes"/>
      <point x="129" y="597"/>
      <point x="156" y="568"/>
      <point x="194" y="568" type="curve" smooth="yes"/>
      <point x="231" y="568"/>
      <point x="259" y="597"/>
    </contour>
  </outline>
</glyph>
<glyph name="ogonek" format="1">
  <advance width="389"/>
  <unicode hex="02DB"/>
  <outline>
    <contour>
      <point x="310" y="10" type="move" name="_ogonek"/>
    </contour>
    <contour>
      <point x="309" y="0" type="curve"/>
      <point x="248" y="0" type="line"/>
      <point x="184" y="-29"/>
      <point x="122" y="-82"/>
      <point x="122" y="-138" type="curve" smooth="yes"/>
      <point x="122" y="-194"/>
      <point x="159" y="-225"/>
      <point x="222" y="-225" type="curve" smooth="yes"/>
      <point x="255" y="-225"/>
      <point x="292" y="-216"/>
      <point x="310" y="-207" type="curve"/>
      <point x="294" y="-154" type="line"/>
      <point x="280" y="-162"/>
      <point x="263" y="-165"/>
      <point x="247" y="-165" type="curve" smooth="yes"/>
      <point x="219" y="-165"/>
      <point x="204" y="-149"/>
      <point x="204" y="-123" type="curve" smooth="yes"/>
      <point x="204" y="-97"/>
      <point x="222" y="-52"/>
    </contour>
  </outline>
</glyph>
<glyph name="tilde" format="1">
  <advance width="389"/>
  <unicode hex="02DC"/>
  <outline>
    <contour>
      <point x="195" y="474" type="move" name="_top"/>
    </contour>
    <contour>
      <point x="341" y="687" type="line"/>
      <point x="314" y="640"/>
      <point x="303" y="636"/>
      <point x="285" y="636" type="curve" smooth="yes"/>
      <point x="241" y="636"/>
      <point x="186" y="684"/>
      <point x="132" y="684" type="curve" smooth="yes"/>
      <point x="70" y="684"/>
      <point x="48" y="656"/>
      <point x="15" y="584" type="curve"/>
      <point x="49" y="572" type="line"/>
      <point x="70" y="600"/>
      <point x="80" y="612"/>
      <point x="99" y="612" type="curve" smooth="yes"/>
      <point x="144" y="612"/>
      <point x="206" y="560"/>
      <point x="262" y="560" type="curve" smooth="yes"/>
      <point x="324" y="560"/>
      <point x="345" y="597"/>
      <point x="375" y="669" type="curve"/>
    </contour>
  </outline>
</glyph>
<glyph name="Delta" format="1">
  <advance width="623"/>
  <unicode hex="0394"/>
  <outline>
    <contour>
      <point x="26" y="31" type="line"/>
      <point x="26" y="0" type="line"/>
      <point x="598" y="0" type="line"/>
      <point x="598" y="31" type="line"/>
      <point x="333" y="672" type="line"/>
      <point x="282" y="659" type="line"/>
    </contour>
    <contour>
      <point x="272" y="520" type="line"/>
      <point x="459" y="55" type="line"/>
      <point x="89" y="55" type="line"/>
    </contour>
  </outline>
</glyph>
<glyph name="endash" format="1">
  <advance width="559"/>
  <unicode hex="2013"/>
  <outline>
    <contour>
      <point x="47" y="282" type="line"/>
      <point x="47" y="199" type="line"/>
      <point x="514" y="199" type="line"/>
      <point x="514" y="282" type="line"/>
    </contour>
  </outline>
</glyph>
<glyph name="emdash" format="1">
  <advance width="1059"/>
  <unicode hex="2014"/>
  <outline>
    <contour>
      <point x="47" y="282" type="line"/>
      <point x="47" y="199" type="line"/>
      <point x="1014" y="199" type="line"/>
      <point x="1014" y="282" type="line"/>
    </contour>
  </outline>
</glyph>
<glyph name="quoteright" format="1">
  <advance width="261"/>
  <unicode hex="2019"/>
  <outline>
    <contour>
      <point x="35" y="458" type="curve"/>
      <point x="78" y="422" type="line"/>
      <point x="155" y="455"/>
      <point x="211" y="529"/>
      <point x="227" y="617" type="curve"/>
      <point x="228" y="627"/>
      <point x="229" y="637"/>
      <point x="229" y="646" type="curve" smooth="yes"/>
      <point x="229" y="692"/>
      <point x="200" y="723"/>
      <point x="151" y="723" type="curve" smooth="yes"/>
      <point x="105" y="723"/>
      <point x="74" y="693"/>
      <point x="74" y="655" type="curve" smooth="yes"/>
      <point x="74" y="631"/>
      <point x="92" y="597"/>
      <point x="130" y="595" type="curve"/>
      <point x="122" y="538"/>
      <point x="91" y="486"/>
    </contour>
  </outline>
</glyph>
<glyph name="quotesinglbase" format="1">
  <advance width="264"/>
  <unicode hex="201A"/>
  <outline>
    <contour>
      <point x="212" y="42" type="curve"/>
      <point x="214" y="54"/>
      <point x="216" y="65"/>
      <point x="216" y="76" type="curve" smooth="yes"/>
      <point x="216" y="113"/>
      <point x="195" y="137"/>
      <point x="139" y="137" type="curve" smooth="yes"/>
      <point x="86" y="137"/>
      <point x="69" y="112"/>
      <point x="65" y="71" type="curve"/>
      <point x="65" y="65"/>
      <point x="66" y="57"/>
      <point x="67" y="53" type="curve"/>
      <point x="82" y="53"/>
      <point x="96" y="54"/>
      <point x="111" y="54" type="curve"/>
      <point x="99" y="-20"/>
      <point x="82" y="-62"/>
      <point x="40" y="-100" type="curve"/>
      <point x="81" y="-130" type="line"/>
      <point x="144" y="-97"/>
      <point x="196" y="-30"/>
    </contour>
  </outline>
</glyph>
<glyph name="quotedblbase" format="1">
  <advance width="458"/>
  <unicode hex="201E"/>
  <outline>
    <contour>
      <point x="212" y="42" type="curve"/>
      <point x="214" y="54"/>
      <point x="216" y="65"/>
      <point x="216" y="76" type="curve" smooth="yes"/>
      <point x="216" y="113"/>
      <point x="195" y="137"/>
      <point x="139" y="137" type="curve" smooth="yes"/>
      <point x="86" y="137"/>
      <point x="69" y="112"/>
      <point x="65" y="71" type="curve"/>
      <point x="65" y="65"/>
      <point x="66" y="57"/>
      <point x="67" y="53" type="curve"/>
      <point x="82" y="53"/>
      <point x="96" y="54"/>
      <point x="111" y="54" type="curve"/>
      <point x="109" y="43"/>
      <point x="108" y="32"/>
      <point x="106" y="20" type="curve" smooth="yes"/>
      <point x="100" y="-30"/>
      <point x="69" y="-73"/>
      <point x="40" y="-100" type="curve"/>
      <point x="81" y="-130" type="line"/>
      <point x="144" y="-97"/>
      <point x="196" y="-30"/>
    </contour>
    <contour>
      <point x="407" y="42" type="curve"/>
      <point x="409" y="53"/>
      <point x="410" y="63"/>
      <point x="410" y="73" type="curve" smooth="yes"/>
      <point x="410" y="112"/>
      <point x="392" y="137"/>
      <point x="333" y="137" type="curve" smooth="yes"/>
      <point x="281" y="137"/>
      <point x="263" y="113"/>
      <point x="260" y="71" type="curve"/>
      <point x="260" y="65"/>
      <point x="261" y="57"/>
      <point x="262" y="53" type="curve"/>
      <point x="276" y="53"/>
      <point x="291" y="54"/>
      <point x="305" y="54" type="curve"/>
      <point x="299" y="-15"/>
      <point x="274" y="-64"/>
      <point x="234" y="-100" type="curve"/>
      <point x="276" y="-130" type="line"/>
      <point x="339" y="-97"/>
      <point x="390" y="-30"/>
    </contour>
  </outline>
</glyph>
<glyph name="dagger" format="1">
  <advance width="464"/>
  <unicode hex="2020"/>
  <outline>
    <contour>
      <point x="290" y="-92" type="line"/>
      <point x="290" y="313" type="line"/>
      <point x="437" y="313" type="line"/>
      <point x="437" y="405" type="line"/>
      <point x="284" y="405" type="line"/>
      <point x="284" y="584" type="line"/>
      <point x="171" y="584" type="line"/>
      <point x="171" y="399" type="line"/>
      <point x="24" y="399" type="line"/>
      <point x="24" y="307" type="line"/>
      <point x="177" y="307" type="line"/>
      <point x="177" y="-92" type="line"/>
    </contour>
  </outline>
</glyph>
<glyph name="daggerdbl" format="1">
  <advance width="486"/>
  <unicode hex="2021"/>
  <outline>
    <contour>
      <point x="303" y="-92" type="line"/>
      <point x="303" y="61" type="line"/>
      <point x="449" y="61" type="line"/>
      <point x="449" y="153" type="line"/>
      <point x="297" y="153" type="line"/>
      <point x="297" y="344" type="line"/>
      <point x="449" y="344" type="line"/>
      <point x="449" y="436" type="line"/>
      <point x="297" y="436" type="line"/>
      <point x="297" y="584" type="line"/>
      <point x="184" y="584" type="line"/>
      <point x="184" y="430" type="line"/>
      <point x="38" y="430" type="line"/>
      <point x="38" y="338" type="line"/>
      <point x="190" y="338" type="line"/>
      <point x="190" y="147" type="line"/>
      <point x="38" y="147" type="line"/>
      <point x="38" y="54" type="line"/>
      <point x="190" y="54" type="line"/>
      <point x="190" y="-92" type="line"/>
    </contour>
  </outline>
</glyph>
<glyph name="ellipsis" format="1">
  <advance width="687"/>
  <unicode hex="2026"/>
  <outline>
    <contour>
      <point x="200" y="64" type="curve" smooth="yes"/>
      <point x="200" y="109"/>
      <point x="172" y="143"/>
      <point x="125" y="143" type="curve" smooth="yes"/>
      <point x="78" y="143"/>
      <point x="49" y="109"/>
      <point x="49" y="64" type="curve" smooth="yes"/>
      <point x="49" y="20"/>
      <point x="78" y="-13"/>
      <point x="125" y="-13" type="curve" smooth="yes"/>
      <point x="172" y="-13"/>
      <point x="200" y="20"/>
    </contour>
    <contour>
      <point x="581" y="64" type="curve" smooth="yes"/>
      <point x="581" y="109"/>
      <point x="553" y="143"/>
      <point x="506" y="143" type="curve" smooth="yes"/>
      <point x="459" y="143"/>
      <point x="430" y="109"/>
      <point x="430" y="64" type="curve" smooth="yes"/>
      <point x="430" y="20"/>
      <point x="459" y="-13"/>
      <point x="506" y="-13" type="curve" smooth="yes"/>
      <point x="553" y="-13"/>
      <point x="581" y="20"/>
    </contour>
    <contour>
      <point x="640" y="64" type="curve" smooth="yes"/>
      <point x="640" y="109"/>
      <point x="612" y="143"/>
      <point x="565" y="143" type="curve" smooth="yes"/>
      <point x="518" y="143"/>
      <point x="490" y="109"/>
      <point x="490" y="64" type="curve" smooth="yes"/>
      <point x="490" y="20"/>
      <point x="518" y="-13"/>
      <point x="565" y="-13" type="curve" smooth="yes"/>
      <point x="612" y="-13"/>
      <point x="640" y="20"/>
    </contour>
  </outline>
</glyph>
<glyph name="guilsinglleft" format="1">
  <advance width="296"/>
  <unicode hex="2039"/>
  <outline>
    <contour>
      <point x="26" y="227" type="line"/>
      <point x="184" y="6" type="line"/>
      <point x="258" y="6" type="line"/>
      <point x="152" y="235" type="line"/>
      <point x="258" y="447" type="line"/>
      <point x="184" y="447" type="line"/>
      <point x="35" y="256" type="line"/>
    </contour>
  </outline>
</glyph>
<glyph name="guilsinglright" format="1">
  <advance width="295"/>
  <unicode hex="203A"/>
  <outline>
    <contour>
      <point x="270" y="228" type="line"/>
      <point x="112" y="449" type="line"/>
      <point x="38" y="449" type="line"/>
      <point x="144" y="221" type="line"/>
      <point x="38" y="8" type="line"/>
      <point x="112" y="8" type="line"/>
      <point x="261" y="200" type="line"/>
    </contour>
  </outline>
</glyph>
<glyph name="fraction" format="1">
  <advance width="521"/>
  <unicode hex="2044"/>
  <outline>
    <contour>
      <point x="24" y="-12" type="line"/>
      <point x="120" y="-12" type="line"/>
      <point x="500" y="679" type="line"/>
      <point x="405" y="679" type="line"/>
    </contour>
  </outline>
</glyph>
<glyph name="Euro" format="1">
  <advance width="589"/>
  <unicode hex="20AC"/>
  <outline>
    <contour>
      <point x="46" y="434" type="line"/>
      <point x="29" y="372" type="line"/>
      <point x="423" y="372" type="line"/>
      <point x="440" y="434" type="line"/>
      <point x="240" y="434" type="line"/>
      <point x="255" y="579"/>
      <point x="313" y="612"/>
      <point x="365" y="612" type="curve" smooth="yes"/>
      <point x="414" y="612"/>
      <point x="440" y="594"/>
      <point x="440" y="595" type="curve"/>
      <point x="440" y="595"/>
      <point x="450" y="519"/>
      <point x="453" y="488" type="curve"/>
      <point x="536" y="488" type="line"/>
      <point x="540" y="644" type="line"/>
      <point x="487" y="670"/>
      <point x="407" y="682"/>
      <point x="356" y="682" type="curve" smooth="yes"/>
      <point x="231" y="682"/>
      <point x="136" y="609"/>
      <point x="107" y="434" type="curve"/>
    </contour>
    <contour>
      <point x="544" y="41" type="curve"/>
      <point x="544" y="192" type="line"/>
      <point x="466" y="192" type="line"/>
      <point x="466" y="192"/>
      <point x="449" y="72"/>
      <point x="449" y="72" type="curve"/>
      <point x="449" y="72"/>
      <point x="401" y="53"/>
      <point x="356" y="56" type="curve" smooth="yes"/>
      <point x="278" y="61"/>
      <point x="245" y="115"/>
      <point x="238" y="243" type="curve"/>
      <point x="405" y="243" type="line"/>
      <point x="421" y="305" type="line"/>
      <point x="46" y="305" type="line"/>
      <point x="29" y="243" type="line"/>
      <point x="102" y="243" type="line"/>
      <point x="116" y="57"/>
      <point x="218" y="-14"/>
      <point x="347" y="-14" type="curve" smooth="yes"/>
      <point x="435" y="-14"/>
      <point x="510" y="12"/>
    </contour>
  </outline>
</glyph>
<glyph name="trademark" format="1">
  <advance width="1161"/>
  <unicode hex="2122"/>
  <outline>
    <contour>
      <point x="897" y="210" type="curve"/>
      <point x="895" y="165" type="line"/>
      <point x="1125" y="165" type="line"/>
      <point x="1123" y="210" type="line"/>
      <point x="1094" y="212"/>
      <point x="1076" y="219"/>
      <point x="1064" y="238" type="curve"/>
      <point x="1057" y="336"/>
      <point x="1051" y="454"/>
      <point x="1051" y="548" type="curve"/>
      <point x="1063" y="565"/>
      <point x="1080" y="575"/>
      <point x="1114" y="577" type="curve"/>
      <point x="1112" y="623" type="line"/>
      <point x="950" y="623" type="line"/>
      <point x="902" y="532"/>
      <point x="839" y="405"/>
      <point x="793" y="296" type="curve"/>
      <point x="748" y="412"/>
      <point x="696" y="528"/>
      <point x="649" y="623" type="curve"/>
      <point x="477" y="623" type="line"/>
      <point x="474" y="577" type="line"/>
      <point x="498" y="575"/>
      <point x="529" y="561"/>
      <point x="540" y="548" type="curve"/>
      <point x="540" y="472"/>
      <point x="531" y="342"/>
      <point x="525" y="238" type="curve"/>
      <point x="514" y="219"/>
      <point x="498" y="212"/>
      <point x="471" y="210" type="curve"/>
      <point x="469" y="165" type="line"/>
      <point x="643" y="165" type="line"/>
      <point x="641" y="210" type="line"/>
      <point x="613" y="212"/>
      <point x="595" y="219"/>
      <point x="583" y="238" type="curve"/>
      <point x="587" y="287"/>
      <point x="591" y="449"/>
      <point x="594" y="492" type="curve"/>
      <point x="641" y="398"/>
      <point x="696" y="272"/>
      <point x="738" y="165" type="curve"/>
      <point x="805" y="165" type="line"/>
      <point x="836" y="249"/>
      <point x="921" y="447"/>
      <point x="950" y="486" type="curve"/>
      <point x="950" y="408"/>
      <point x="954" y="318"/>
      <point x="960" y="238" type="curve"/>
      <point x="947" y="219"/>
      <point x="927" y="212"/>
    </contour>
    <contour>
      <point x="381" y="485" type="curve"/>
      <point x="424" y="489" type="line"/>
      <point x="424" y="624" type="line"/>
      <point x="216" y="624" type="line"/>
      <point x="27" y="624" type="line"/>
      <point x="27" y="489" type="line"/>
      <point x="70" y="485" type="line"/>
      <point x="74" y="515"/>
      <point x="82" y="542"/>
      <point x="94" y="565" type="curve"/>
      <point x="102" y="567"/>
      <point x="112" y="568"/>
      <point x="122" y="568" type="curve" smooth="yes"/>
      <point x="125" y="568"/>
      <point x="127" y="568"/>
      <point x="130" y="568" type="curve" smooth="yes"/>
      <point x="174" y="567" type="line"/>
      <point x="174" y="238" type="line"/>
      <point x="162" y="219"/>
      <point x="144" y="212"/>
      <point x="115" y="210" type="curve"/>
      <point x="113" y="165" type="line"/>
      <point x="341" y="165" type="line"/>
      <point x="339" y="210" type="line"/>
      <point x="310" y="212"/>
      <point x="292" y="219"/>
      <point x="280" y="238" type="curve"/>
      <point x="280" y="567" type="line"/>
      <point x="345" y="570" type="line"/>
      <point x="367" y="552"/>
      <point x="377" y="520"/>
    </contour>
  </outline>
</glyph>
<glyph name="summation" format="1">
  <advance width="563"/>
  <unicode hex="2211"/>
  <outline>
    <contour>
      <point x="25" y="-87" type="line"/>
      <point x="488" y="-87" type="line"/>
      <point x="534" y="115" type="line"/>
      <point x="502" y="123" type="line"/>
      <point x="459" y="12"/>
      <point x="447" y="7"/>
      <point x="360" y="7" type="curve" smooth="yes"/>
      <point x="119" y="7" type="line"/>
      <point x="338" y="331" type="line"/>
      <point x="168" y="632" type="line"/>
      <point x="329" y="632" type="line" smooth="yes"/>
      <point x="403" y="632"/>
      <point x="418" y="623"/>
      <point x="433" y="597" type="curve" smooth="yes"/>
      <point x="447" y="573"/>
      <point x="459" y="539"/>
      <point x="469" y="494" type="curve"/>
      <point x="500" y="501" type="line"/>
      <point x="495" y="568"/>
      <point x="489" y="651"/>
      <point x="488" y="669" type="curve"/>
      <point x="30" y="669" type="line"/>
      <point x="30" y="639" type="line"/>
      <point x="242" y="256" type="line"/>
      <point x="25" y="-58" type="line"/>
    </contour>
  </outline>
</glyph>
<glyph name="radical" format="1">
  <advance width="545"/>
  <unicode hex="221A"/>
  <outline>
    <contour>
      <point x="330" y="-164" type="line"/>
      <point x="356" y="-152" type="line"/>
      <point x="526" y="842" type="line"/>
      <point x="481" y="852" type="line"/>
      <point x="347" y="42" type="line"/>
      <point x="344" y="42" type="line"/>
      <point x="193" y="436" type="line"/>
      <point x="21" y="357" type="line"/>
      <point x="33" y="320" type="line"/>
      <point x="119" y="360" type="line"/>
    </contour>
  </outline>
</glyph>
<glyph name="integral" format="1">
  <advance width="386"/>
  <unicode hex="222B"/>
  <outline>
    <contour>
      <point x="137" y="384" type="curve" smooth="yes"/>
      <point x="157" y="-2" type="line" smooth="yes"/>
      <point x="158" y="-18"/>
      <point x="158" y="-32"/>
      <point x="158" y="-46" type="curve" smooth="yes"/>
      <point x="158" y="-111"/>
      <point x="148" y="-151"/>
      <point x="126" y="-151" type="curve" smooth="yes"/>
      <point x="105" y="-151"/>
      <point x="106" y="-89"/>
      <point x="75" y="-89" type="curve" smooth="yes"/>
      <point x="44" y="-89"/>
      <point x="14" y="-113"/>
      <point x="14" y="-146" type="curve" smooth="yes"/>
      <point x="14" y="-175"/>
      <point x="44" y="-200"/>
      <point x="83" y="-200" type="curve" smooth="yes"/>
      <point x="172" y="-200"/>
      <point x="254" y="-109"/>
      <point x="254" y="163" type="curve" smooth="yes"/>
      <point x="253" y="189"/>
      <point x="253" y="217"/>
      <point x="252" y="247" type="curve" smooth="yes"/>
      <point x="234" y="605" type="line" smooth="yes"/>
      <point x="233" y="622"/>
      <point x="233" y="637"/>
      <point x="233" y="650" type="curve" smooth="yes"/>
      <point x="233" y="736"/>
      <point x="248" y="756"/>
      <point x="265" y="756" type="curve" smooth="yes"/>
      <point x="286" y="756"/>
      <point x="283" y="700"/>
      <point x="319" y="700" type="curve" smooth="yes"/>
      <point x="345" y="700"/>
      <point x="372" y="717"/>
      <point x="372" y="752" type="curve" smooth="yes"/>
      <point x="372" y="787"/>
      <point x="333" y="805"/>
      <point x="303" y="805" type="curve" smooth="yes"/>
      <point x="228" y="805"/>
      <point x="135" y="744"/>
      <point x="135" y="461" type="curve"/>
      <point x="134" y="437"/>
      <point x="135" y="411"/>
    </contour>
  </outline>
</glyph>
<glyph name="notequal" format="1">
  <advance width="505"/>
  <unicode hex="2260"/>
  <outline>
    <contour>
      <point x="471" y="402" type="line"/>
      <point x="340" y="402" type="line"/>
      <point x="377" y="486" type="line"/>
      <point x="322" y="508" type="line"/>
      <point x="275" y="402" type="line"/>
      <point x="35" y="402" type="line"/>
      <point x="35" y="333" type="line"/>
      <point x="248" y="333" type="line"/>
      <point x="192" y="205" type="line"/>
      <point x="35" y="205" type="line"/>
      <point x="35" y="136" type="line"/>
      <point x="164" y="136" type="line"/>
      <point x="126" y="50" type="line"/>
      <point x="181" y="27" type="line"/>
      <point x="229" y="136" type="line"/>
      <point x="471" y="136" type="line"/>
      <point x="471" y="205" type="line"/>
      <point x="256" y="205" type="line"/>
      <point x="313" y="333" type="line"/>
      <point x="471" y="333" type="line"/>
    </contour>
  </outline>
</glyph>
<glyph name="lessequal" format="1">
  <advance width="509"/>
  <unicode hex="2264"/>
  <outline>
    <contour>
      <point x="40" y="384" type="line"/>
      <point x="40" y="309" type="line"/>
      <point x="469" y="98" type="line"/>
      <point x="469" y="178" type="line"/>
      <point x="110" y="346" type="line"/>
      <point x="110" y="348" type="line"/>
      <point x="469" y="515" type="line"/>
      <point x="469" y="594" type="line"/>
    </contour>
    <contour>
      <point x="36" y="63" type="line"/>
      <point x="36" y="-8" type="line"/>
      <point x="472" y="-8" type="line"/>
      <point x="472" y="63" type="line"/>
    </contour>
  </outline>
</glyph>
<glyph name="greaterequal" format="1">
  <advance width="508"/>
  <unicode hex="2265"/>
  <outline>
    <contour>
      <point x="472" y="309" type="line"/>
      <point x="472" y="383" type="line"/>
      <point x="43" y="594" type="line"/>
      <point x="43" y="515" type="line"/>
      <point x="402" y="348" type="line"/>
      <point x="402" y="346" type="line"/>
      <point x="43" y="178" type="line"/>
      <point x="43" y="98" type="line"/>
    </contour>
    <contour>
      <point x="39" y="63" type="line"/>
      <point x="39" y="-8" type="line"/>
      <point x="472" y="-8" type="line"/>
      <point x="472" y="63" type="line"/>
    </contour>
  </outline>
</glyph>
<glyph name="lozenge" format="1">
  <advance width="518"/>
  <unicode hex="25CA"/>
  <outline>
    <contour>
      <point x="217" y="-69" type="line"/>
      <point x="300" y="-69" type="line"/>
      <point x="493" y="320" type="line"/>
      <point x="301" y="712" type="line"/>
      <point x="219" y="712" type="line"/>
      <point x="25" y="320" type="line"/>
    </contour>
    <contour>
      <point x="414" y="320" type="line"/>
      <point x="261" y="0" type="line"/>
      <point x="258" y="0" type="line"/>
      <point x="103" y="321" type="line"/>
      <point x="258" y="639" type="line"/>
      <point x="261" y="639" type="line"/>
    </contour>
  </outline>
</glyph>
